<svg width="24" height="27" viewBox="0 0 24 27" fill="none" xmlns="http://www.w3.org/2000/svg">
<path d="M10.6094 1.56261C11.5295 0.812463 12.8389 0.812461 13.7591 1.56261L22.4268 8.62931C23.0221 9.11462 23.3684 9.84819 23.3684 10.6237V23.443C23.3684 24.8552 22.2418 26 20.852 26H17.4967C16.1069 26 14.9803 24.8552 14.9803 23.443V17.2824C14.9803 16.8116 14.6047 16.43 14.1415 16.43H10.227C9.76371 16.43 9.38816 16.8116 9.38816 17.2824V23.443C9.38816 24.8552 8.26151 26 6.87171 26H3.51645C2.12665 26 1 24.8552 1 23.443V10.6237C1 9.84819 1.34635 9.11462 1.94161 8.62931L10.6094 1.56261ZM12.7092 2.89218C12.4025 2.64213 11.966 2.64213 11.6593 2.89218L2.9915 9.95888C2.79308 10.1206 2.67763 10.3652 2.67763 10.6237V23.443C2.67763 23.9138 3.05318 24.2954 3.51645 24.2954H6.87171C7.33498 24.2954 7.71053 23.9138 7.71053 23.443V17.2824C7.71053 15.8702 8.83718 14.7254 10.227 14.7254H14.1415C15.5312 14.7254 16.6579 15.8702 16.6579 17.2824V23.443C16.6579 23.9138 17.0335 24.2954 17.4967 24.2954H20.852C21.3152 24.2954 21.6908 23.9138 21.6908 23.443V10.6237C21.6908 10.3652 21.5753 10.1206 21.3769 9.95888L12.7092 2.89218Z" fill="#6146C6" stroke="#6146C6" stroke-width="0.5"/>
</svg>
