<svg width="22" height="27" viewBox="0 0 22 27" fill="none" xmlns="http://www.w3.org/2000/svg">
<path d="M11 1C7.54822 1 4.75 3.79822 4.75 7.25C4.75 10.7018 7.54822 13.5 11 13.5C14.4518 13.5 17.25 10.7018 17.25 7.25C17.25 3.79822 14.4518 1 11 1ZM6.3125 7.25C6.3125 4.66117 8.41117 2.5625 11 2.5625C13.5888 2.5625 15.6875 4.66117 15.6875 7.25C15.6875 9.83884 13.5888 11.9375 11 11.9375C8.41117 11.9375 6.3125 9.83884 6.3125 7.25ZM3.65617 16C2.18954 16 1.00001 17.1883 1 18.6556L1 19.125C1 21.4722 2.21355 23.2293 4.0751 24.3626C5.90567 25.4771 8.3663 26 11 26C13.6337 26 16.0943 25.4771 17.9249 24.3626C19.7865 23.2293 21 21.4722 21 19.125L21 18.6555C21 17.1882 19.8105 16 18.3439 16H3.65617ZM2.5625 18.6556C2.56251 18.0519 3.05185 17.5625 3.65617 17.5625H18.3439C18.9482 17.5625 19.4375 18.0518 19.4375 18.6555L19.4375 19.125C19.4375 20.8403 18.5874 22.13 17.1124 23.028C15.6064 23.9448 13.4577 24.4375 11 24.4375C8.54233 24.4375 6.39358 23.9448 4.88762 23.028C3.41264 22.13 2.5625 20.8403 2.5625 19.125L2.5625 18.6556Z" fill="#6146C6" stroke="#6146C6" stroke-width="0.5"/>
</svg>
