<svg width="23" height="36" viewBox="0 0 23 36" fill="none" xmlns="http://www.w3.org/2000/svg">
<path d="M9.60937 0.562615C10.5295 -0.187537 11.8389 -0.187539 12.7591 0.562615L21.4268 7.62931C22.0221 8.11462 22.3684 8.84819 22.3684 9.62366V22.443C22.3684 23.8552 21.2418 25 19.852 25H16.4967C15.1069 25 13.9803 23.8552 13.9803 22.443V16.2824C13.9803 15.8116 13.6047 15.43 13.1415 15.43H9.22698C8.76371 15.43 8.38816 15.8116 8.38816 16.2824V22.443C8.38816 23.8552 7.26151 25 5.87171 25H2.51645C1.12665 25 0 23.8552 0 22.443V9.62366C0 8.84819 0.346346 8.11462 0.941606 7.62931L9.60937 0.562615Z" fill="#6146C6"/>
<circle cx="11.5" cy="33.5" r="2.5" fill="#6146C6"/>
</svg>
