<svg width="20" height="36" viewBox="0 0 20 36" fill="none" xmlns="http://www.w3.org/2000/svg">
<circle cx="10.5" cy="33.5" r="2.5" fill="#6146C6"/>
<path d="M10 0C6.54822 0 3.75 2.79822 3.75 6.25C3.75 9.70178 6.54822 12.5 10 12.5C13.4518 12.5 16.25 9.70178 16.25 6.25C16.25 2.79822 13.4518 0 10 0ZM2.65617 15C1.18954 15 1.2815e-05 16.1883 1.71363e-06 17.6556L0 18.125C0 20.4722 1.21355 22.2293 3.0751 23.3626C4.90568 24.4771 7.3663 25 10 25C12.6337 25 15.0943 24.4771 16.9249 23.3626C18.7865 22.2293 20 20.4722 20 18.125L20 17.6555C20 16.1882 18.8105 15 17.3439 15H2.65617Z" fill="#6146C6"/>
</svg>
