<?xml version="1.0" encoding="utf-8"?>
<!-- Generator: Adobe Illustrator 24.3.0, SVG Export Plug-In . SVG Version: 6.00 Build 0)  -->
<svg version="1.1" id="Layer_1" xmlns="http://www.w3.org/2000/svg" xmlns:xlink="http://www.w3.org/1999/xlink" x="0px" y="0px"
	 viewBox="0 0 979 979" style="enable-background:new 0 0 979 979;" xml:space="preserve">
<style type="text/css">
	.st0{fill:#B5E2DC;}
	.st1{fill:#F7C0B5;filter:url(#Adobe_OpacityMaskFilter);}
	.st2{mask:url(#mask0_76_2035_1_);}
	.st3{fill:#F7D3B5;}
	.st4{fill:#EFBDA5;}
	.st5{fill:#423232;}
	.st6{opacity:0.42;enable-background:new    ;}
	.st7{fill:#ED938A;}
	.st8{fill:#6060D8;}
	.st9{fill:#FFFFFF;}
	.st10{fill:#544D4D;}
	.st11{fill:#FE9DAB;}
	.st12{fill:#E5E5E5;}
</style>
<g>
	<path class="st0" d="M489.5,979C218.9,979,0,759.7,0,489.5C0,218.9,219.3,0,489.5,0C760.1,0,979,219.3,979,489.5
		C979.3,760.1,760.1,979,489.5,979z"/>
</g>
<defs>
	<filter id="Adobe_OpacityMaskFilter" filterUnits="userSpaceOnUse" x="29.4" y="126.1" width="843.6" height="984.5">
		<feColorMatrix  type="matrix" values="1 0 0 0 0  0 1 0 0 0  0 0 1 0 0  0 0 0 1 0"/>
	</filter>
</defs>
<mask maskUnits="userSpaceOnUse" x="29.4" y="126.1" width="843.6" height="984.5" id="mask0_76_2035_1_">
	<path class="st1" d="M489.5,979C218.9,979,0,759.7,0,489.5C0,218.9,219.3,0,489.5,0C760.1,0,979,219.3,979,489.5
		C979.3,760.1,760.1,979,489.5,979z"/>
</mask>
<g class="st2">
	<g>
		<path class="st3" d="M763.6,901.7c-2.3,1.6-4.9,3.3-7.2,4.9c-2.6,1.6-4.9,3.3-7.5,4.6c-2.3,1.3-4.2,2.6-6.5,3.9
			c-0.3,0.3-0.7,0.3-1,0.7c-7.5,4.6-15.3,8.8-23.2,12.7c-2.3,1.3-4.9,2.6-7.2,3.6c0,0-0.3,0.3-0.7,0.3c-2.6,1.3-5.2,2.6-7.8,3.9
			c-5.2,2.6-10.8,4.9-16,7.2c-2.6,1.3-5.5,2.3-8.2,3.3c-2.6,1-5.5,2.3-8.2,3.3c-2.6,1-5.5,2.3-8.2,3.3c0,0,0,0-0.3,0
			c-2.6,1-5.5,2-8.2,2.9c-5.9,2-12.1,3.9-17.9,5.9c-2,0.7-4.2,1.3-6.2,2c-6.2,2-12.4,3.6-18.6,4.9c-2.3,0.7-4.6,1-7.2,1.6
			c-5.9,1.3-12.1,2.6-17.9,3.9c-1.3,0.3-2.3,0.3-3.6,0.7c-2,0.3-4.2,0.7-6.2,1c-2.9,0.3-5.5,1-8.5,1.3c-1.3,0.3-2.6,0.3-3.9,0.7
			c-1.6,0.3-3.6,0.7-5.5,0.7c-5.2,0.7-10.8,1.3-16,2c-1.6,0.3-3.6,0.3-5.2,0.7h-0.3c-2.3,0.3-4.6,0.3-6.9,0.7
			c-2.3,0.3-4.6,0.3-6.9,0.3c-1.3,0-2.9,0.3-4.2,0.3c-2.6,0-4.9,0.3-7.2,0.3c-3.3,0-6.2,0.3-9.5,0.3s-6.2,0-9.5,0
			c-2.3,0-4.6,0-6.9,0c-137.4-2-261.4-60.4-349.5-153c0,0,0-0.3-0.3-0.3c10.1-19.9,47.6-55.8,86.8-85.5
			c49.6-37.5,119.8-60.7,119.8-60.7s46-7.5,216.7,28.1C689.2,739.2,744.7,850.4,763.6,901.7z"/>
	</g>
	<g>
		<path class="st3" d="M595.2,802.2c-6.9,33.6-51.2,53.5-126,23.5c-91.7-37.2-126.9-142-126.9-142c-4.9-75.1-16.3-139.3-16.3-139.3
			c106.1-9.1,231.4,114.9,231.4,114.9l14.4,61.4c1.3,5.2,3.9,9.8,7.8,13.1C586.4,745.4,599.8,780.6,595.2,802.2z"/>
	</g>
	<g>
		<path class="st4" d="M579.6,733.9c-62.3-3.3-108.3-12.4-157.6-100.8c41.8,36.9,91,50.9,142.9,57.4l6.9,30
			C573,726.1,575.7,730.7,579.6,733.9z"/>
	</g>
	<g>
		<path class="st3" d="M708.5,340.7c5.9,27.4,8.8,49.6-7.2,122.7c-16,73.1,14.7,146.2-62.3,213.1c-51.9,45-142.6,53.5-215.1,4.2
			c-24.5-16.6-47-39.8-65.3-70.2c-14.4-23.8-31-46.3-49.6-66.9c-25.8-28.1-56.8-84.5-41.4-184.4c24.8-162.5,185.7-181.1,280.6-163.2
			C643.2,214.1,692.5,268.3,708.5,340.7z"/>
	</g>
	<g>
		<path class="st3" d="M396.2,468.3c0,0-10.1-49-57.8-43.1c-41.1,5.2-55.5,103.8,37.9,131.2"/>
	</g>
	<g>
		<path class="st5" d="M373.3,518.5c-1.2,0-2.5-0.3-3.6-1.1c-0.6-0.4-15.2-9.9-13.5-26.9c0-0.1,0-0.1,0-0.2
			c1.5-11.7,0.4-19.2-3-20.6c-4.8-2-6.7-0.8-7.3-0.3c-3,2-4.3,7.4-4.3,9.1c0.5,3.4-1.6,6.7-5,7.5c-3.6,0.9-7.3-1.3-8.2-4.9
			c-1-4,1-15.3,8.3-21.6c3.3-2.9,10.6-6.9,21.8-2.3c14.9,6.1,12.2,27.5,11.3,34.7c-0.8,8.6,7.3,14.1,7.4,14.1c3.1,2,4.1,6.2,2.1,9.3
			C377.7,517.4,375.5,518.5,373.3,518.5z M341.5,478.6C341.5,478.6,341.5,478.6,341.5,478.6C341.5,478.6,341.5,478.6,341.5,478.6z
			 M341.4,477.8C341.4,477.8,341.4,477.8,341.4,477.8C341.4,477.8,341.4,477.8,341.4,477.8z"/>
	</g>
	<g>
		<path class="st4" d="M622.3,543.4c0,0,12.4,0.7,24.1-13.4c6.5-7.8,12.1-17.6,8.5-20.6c-3.6-3.3-62.7,5.9-66.6,13.7
			C584.5,531,607.3,543.4,622.3,543.4z"/>
	</g>
	<g>
		<path class="st5" d="M619,550.8c-3.3,0-6.2-2.4-6.7-5.8c-0.5-3.7,2-7.1,5.7-7.6c13-1.9,23.6-8.8,28.3-18.6
			c2.8-5.8,3-11.7,0.5-16.1c-20.5-35.7-21.4-67.5-21.5-68.8c-0.1-3.7,2.9-6.8,6.6-6.9c3.7-0.1,6.8,2.9,6.9,6.6c0,0.5,1,30,19.7,62.4
			c4.8,8.3,4.8,18.8,0,28.7c-6.7,13.8-21.1,23.5-38.5,26C619.7,550.7,619.4,550.8,619,550.8z"/>
	</g>
	<g class="st6">
		<path class="st7" d="M455.2,560c18.6,0,33.6-12.4,33.6-27.7c0-15.3-15-27.7-33.6-27.7c-18.6,0-33.6,12.4-33.6,27.7
			C421.6,547.6,436.7,560,455.2,560z"/>
	</g>
	<g class="st6">
		<path class="st7" d="M696.1,505.2c-1,18.3-0.7,36.2-2,54.2c-14.4-3.3-24.8-14-24.8-26.8C669.3,518.9,680.7,507.8,696.1,505.2z"/>
	</g>
	<g>
		<path class="st8" d="M796.6,840.9c-46.3-59.7-118.1-84.5-157.6-99.2c-3.3-16.3-9.5-34.3-19.3-51.6c-15,9.1-32.3,16-50.3,19.6
			l2.6,10.8c1.3,5.2,7.8,29.4-2.3,60.4C561.3,807,527,818.7,469,792.3c-113.2-51.2-126.3-109-126.3-109c-2-31.3-5.2-60.7-8.2-84.5
			c-35.2,7.8-76,23.8-98.2,57.4c-27.4,41.1-37.5,82.9-34.9,116.2C153.7,802.7,80,848.7,55.8,931c-31.3,107-26.1,172.6-26.1,172.6
			H873C872,1103.9,859.6,922.1,796.6,840.9z"/>
	</g>
	<g>
		<path class="st5" d="M399.4,871.5c-1.2,0-2.4-0.3-3.5-1c-46.2-28.3-73.6-63.4-88.4-87.7c-16.2-26.6-21.4-46.4-21.6-47.2
			c-0.9-3.6,1.2-7.3,4.8-8.2c3.6-0.9,7.3,1.2,8.2,4.8c0.1,0.3,5.1,19.1,20.4,44c14.1,23,40,56,83.7,82.8c3.2,1.9,4.2,6.1,2.2,9.3
			C403.9,870.3,401.7,871.5,399.4,871.5z"/>
	</g>
	<g>
		<path class="st5" d="M611.2,894.6c-1.8,0-3.7-0.7-5-2.2c-2.5-2.8-2.3-7,0.5-9.5c47-42.8,25.6-138.7,25.4-139.7
			c-0.8-3.6,1.4-7.2,5.1-8.1c3.6-0.8,7.2,1.4,8.1,5c0.2,1.1,6,26.2,5.4,57.5c-0.7,42.2-12.8,75.1-34.9,95.2
			C614.5,894,612.9,894.6,611.2,894.6z"/>
	</g>
	<g>
		<path class="st5" d="M468.9,963.2c-3.3,0-6.2-2.5-6.7-5.8c-4.7-35.4,12-84.9,12.7-86.9c1.2-3.5,5-5.4,8.6-4.2
			c3.5,1.2,5.4,5,4.2,8.6c-0.2,0.5-16.4,48.5-12.1,80.8c0.5,3.7-2.1,7.1-5.8,7.6C469.5,963.1,469.2,963.2,468.9,963.2z"/>
	</g>
	<g>
		<path class="st5" d="M607.3,948.1c-3.1,0-5.9-2.2-6.6-5.4c-8.9-42.7-21.3-70.1-21.4-70.4c-1.5-3.4-0.1-7.4,3.3-8.9
			c3.4-1.5,7.4-0.1,8.9,3.3c0.5,1.2,13.2,28.9,22.3,73.2c0.8,3.6-1.6,7.2-5.2,8C608.2,948.1,607.8,948.1,607.3,948.1z"/>
	</g>
	<g>
		<path class="st5" d="M386.7,920.4c-0.4,0-0.9,0-1.3-0.1c-84.2-16.9-131.6-55.4-156.5-84.7c-27.3-32.1-34.4-60.1-34.7-61.3
			c-0.9-3.6,1.3-7.3,4.9-8.2c3.6-0.9,7.3,1.3,8.1,4.9l0,0c0.1,0.3,6.9,26.6,32.4,56.4c23.6,27.5,68.5,63.6,148.4,79.6
			c3.6,0.7,6,4.3,5.3,7.9C392.7,918.2,389.9,920.4,386.7,920.4z"/>
	</g>
	<g>
		<path class="st9" d="M471.9,963.9l-14.4-1.3c-5.2-0.7-9.1-5.5-8.2-10.8l4.9-24.5c1.3-6.9,7.8-11.7,14.7-10.8
			c6.9,0.7,12.4,6.5,12.4,13.7l0.3,25.1C481.7,960.3,477.1,964.6,471.9,963.9z"/>
	</g>
	<g>
		<path class="st9" d="M621.7,948.9l-13.7,4.9c-5.2,2-10.8-1.3-11.7-6.5l-5.9-24.1c-1.6-6.9,2-13.7,8.8-16.3c6.5-2.3,14,0.7,17,6.9
			l10.8,22.5C629.2,941.1,626.9,946.9,621.7,948.9z"/>
	</g>
	<g>
		<path class="st10" d="M776.7,1110.7c-0.3,0-0.5,0-0.8,0c-3.7-0.4-6.3-3.8-5.9-7.5c7-58.4-10.9-159.5-11-160.5
			c-0.7-3.7,1.8-7.2,5.5-7.8c3.7-0.7,7.2,1.8,7.8,5.5c0.8,4.2,18.4,104.2,11.2,164.5C783,1108.1,780.1,1110.7,776.7,1110.7z"/>
	</g>
	<g>
		<path class="st5" d="M515.1,466.5c-7.8-0.3-13.7-6.9-13.1-14.7l0.3-9.1c0.3-7.8,6.9-13.7,14.7-13.1c7.8,0.3,13.7,6.9,13.1,14.7
			l-0.3,9.1C529.4,460.9,522.9,466.8,515.1,466.5z"/>
	</g>
	<g>
		<path class="st5" d="M652.4,471.4c-7.2-0.3-12.7-6.5-12.4-13.7l0.3-8.5c0.3-7.2,6.5-12.7,13.7-12.4c7.2,0.3,12.7,6.5,12.4,13.7
			l-0.3,8.5C665.8,466.2,659.6,471.7,652.4,471.4z"/>
	</g>
	<g>
		<path class="st5" d="M546.7,454.3c-2.1,0-4.2-1-5.5-2.8c-0.2-0.2-7.2-9.8-18.7-11.6c-10.4-1.7-19.3,3.8-19.9,6
			c-1,3.6-4.7,5.7-8.3,4.6c-3.6-1-5.7-4.8-4.6-8.3c3-10.6,19.7-18,35-15.6c17.3,2.7,27.2,16.5,27.6,17.1c2.1,3,1.4,7.2-1.6,9.4
			C549.4,453.9,548.1,454.3,546.7,454.3z"/>
	</g>
	<g>
		<path class="st5" d="M675.6,458.2c-2.6,0-5-1.5-6.1-3.9c-0.1-0.2-3.7-7.5-11.5-7.5c-5,0-8.1,1.5-8.3,3.9c0-0.2,0-0.2,0-0.2h-13.5
			c0-4.8,3.9-17.2,21.8-17.2c16.5,0,23.5,14.7,23.8,15.4c1.5,3.4,0.1,7.4-3.3,8.9C677.5,458,676.6,458.2,675.6,458.2z"/>
	</g>
	<g>
		<path class="st5" d="M560.1,395c6.9,2.3,13.7-3.9,12.4-11.4c-0.7-3.9-2.3-7.8-5.5-10.8c-9.8-8.8-50.3-16.6-74.7-5.2
			C470.7,378,528.8,384.6,560.1,395z"/>
	</g>
	<g>
		<path class="st5" d="M657.7,400.2c-5.5,2-11.4-3.9-10.4-10.8c0.3-3.6,1.6-7.2,4.2-9.8c7.8-7.8,34.6-14,51.6-2
			C717.7,387.8,683.1,390.8,657.7,400.2z"/>
	</g>
	<g>
		<path class="st5" d="M634.4,588.9c0.4,7.2-4.9,19.8-14.8,28.8c-50.8-31-73.7-14.8-73.7-14.8c-18-27.4-13.9-64.7,29.7-36.4
			C606.1,585.8,624.5,588.9,634.4,588.9z"/>
	</g>
	<g>
		<path class="st11" d="M619.6,617.7c-10.8,9.4-27,15.3-49,6.3c-10.3-4-18.4-12.1-24.7-21.1C545.9,602.9,568.8,586.7,619.6,617.7z"
			/>
	</g>
	<g>
		<path class="st5" d="M591.2,635.3c-7,0-14.9-1.4-23.7-5c-22.2-9-37-34.4-38.5-53.6c-0.8-11.2,2.7-19.7,9.9-24
			c9.4-5.6,23-2.9,40.2,8.2c43.2,27.6,60.6,20.4,60.7,20.3c-0.2,0.1-0.2,0.1-0.2,0.1l6.5,11.8c-0.6,0.3-2.4,1.2-5.6,1.8
			c-2.1,10.4-9.8,23.5-21.7,31.7C612.4,631.1,603.2,635.3,591.2,635.3z M550,563.3c-2.2,0-3.5,0.5-4.1,0.9
			c-3.6,2.2-3.5,8.7-3.3,11.4c1.1,14.8,13,35.2,30.1,42.2c14.7,6,27.6,5.3,38.5-2.2c8.5-5.9,13.4-14.3,15.4-20.5
			c-12-1.5-29.8-7.1-54.6-22.9C560.7,564.9,553.8,563.3,550,563.3z"/>
	</g>
	<g>
		<path class="st5" d="M619.6,624.4c-1.2,0-2.4-0.3-3.5-1c-45.7-27.9-66.1-15.2-66.3-15.1c-3,2.1-7.2,1.4-9.4-1.6
			c-2.1-3-1.4-7.2,1.6-9.4c1.1-0.8,27.2-18.3,81.1,14.6c3.2,1.9,4.2,6.1,2.2,9.3C624,623.3,621.8,624.4,619.6,624.4z"/>
	</g>
	<g>
		<path class="st5" d="M733.7,261.9c-23.2,83.9-90.4,69.8-153.4,47c-83.9-30.7-157.6-5.9-157.9,69.8c-0.7,111-28.4,77.3-31.3,73.1
			c-7.2-13.7-22.5-30.7-51.6-27.1c-38.2,4.9-53.2,89.1,17.9,123.7c12.4,63-21.5,57.1-21.5,57.1c-11.4-46.3-107.4-144.9-107.7-209.8
			c0-87.5,44.1-112.3,44.1-112.3c1.3-61,64.9-128.2,172-126c107,2,172.6-1,193.5-26.1C658.6,105.6,756.8,178.1,733.7,261.9z"/>
	</g>
	<g>
		<path class="st5" d="M736.3,362.8c-3.3,21.2-12.4,37.5-25.1,49.6c4.9-35.6,2.3-52.5-2-72.4c-9.1-40.8-28.7-76-61.4-102.1
			c16.3-1.3,33,2.3,48,11.7C695.8,249.2,749.6,271.1,736.3,362.8z"/>
	</g>
	<g>
		<path class="st9" d="M359.3,479.1c0,0-26.1-3.9-24.1,32.6c1,18.6,1,28.7,0.7,33.9c-0.3,3.6,2,6.9,5.2,8.2c3.9,1.6,8.2,0,10.1-3.9
			c2.9-5.2,6.2-12.4,6.2-18.3c0-9.8,10.4-18.6,10.4-18.6S358.4,504.8,359.3,479.1z"/>
	</g>
	<g>
		<path class="st9" d="M438.3,1108.2c-2.6-2.9-105.1-178.2-89.7-244.1c10.4-45.4-3.3-97.6-15.3-143.6c-4.9-18.9-9.5-36.5-12.1-52.2
			c-4.6-27.1-1.3-52.9,9.8-76.7c12.1-26.8,10.1-49.9,10.1-50.3l6.5-0.7c0,1,2,25.5-10.8,53.5c-10.4,22.5-13.4,47.3-9.1,73.1
			c2.6,15.3,7.2,33,12.1,51.9c12.4,46.7,26.1,99.9,15.3,146.9c-14.4,62.7,87.8,237.9,88.4,238.5L438.3,1108.2z"/>
	</g>
	<g>
		<path class="st12" d="M336.2,530.6c0.3,7.2,0,12.1,0,15c-0.3,3.6,2,6.9,5.2,8.2c3.9,1.6,8.2,0,10.1-3.9c2.9-5.2,6.2-12.4,6.2-18.3
			c0-0.3,0-1,0-1.3C350.9,532.9,343,534.9,336.2,530.6z"/>
	</g>
	<g>
		<path class="st9" d="M643.2,747.6c-2.3,15-2.6,38.8-3.3,66.6c-1,53.5-32.6,262-48,295l-5.9-2.6c14.7-32,46.3-239.5,47.3-292.4
			c0.7-27.7,1-51.9,3.3-67.6c4.9-33,1.3-57.8-0.7-68.2c1-1,2-1.6,2.9-2.6c1-0.7,1.6-1.6,2.6-2.3C643.6,682,649.1,709.1,643.2,747.6z
			"/>
	</g>
</g>
</svg>
