<svg version="1.1" id="Layer_1" xmlns="http://www.w3.org/2000/svg" x="0" y="0" viewBox="0 0 979 979" style="enable-background:new 0 0 979 979" xml:space="preserve"><style>.st3{fill:#f7d3b5}.st4{fill:#efbda5}.st5{fill:#423232}.st6{opacity:.42;enable-background:new}.st7{fill:#ed938a}.st9{fill:#fff}</style><path d="M489.5 979C218.9 979 0 759.7 0 489.5 0 218.9 219.3 0 489.5 0 760.1 0 979 219.3 979 489.5 979.3 760.1 760.1 979 489.5 979z" style="fill:#b5e2dc"/><defs><filter id="Adobe_OpacityMaskFilter" filterUnits="userSpaceOnUse" x="29.4" y="126.1" width="843.6" height="984.5"><feColorMatrix values="1 0 0 0 0 0 1 0 0 0 0 0 1 0 0 0 0 0 1 0"/></filter></defs><mask maskUnits="userSpaceOnUse" x="29.4" y="126.1" width="843.6" height="984.5" id="mask0_76_2035_1_"><path d="M489.5 979C218.9 979 0 759.7 0 489.5 0 218.9 219.3 0 489.5 0 760.1 0 979 219.3 979 489.5 979.3 760.1 760.1 979 489.5 979z" style="fill:#f7c0b5;filter:url(#Adobe_OpacityMaskFilter)"/></mask><g style="mask:url(#mask0_76_2035_1_)"><path class="st3" d="M763.6 901.7c-2.3 1.6-4.9 3.3-7.2 4.9-2.6 1.6-4.9 3.3-7.5 4.6-2.3 1.3-4.2 2.6-6.5 3.9-.3.3-.7.3-1 .7-7.5 4.6-15.3 8.8-23.2 12.7-2.3 1.3-4.9 2.6-7.2 3.6 0 0-.3.3-.7.3l-7.8 3.9c-5.2 2.6-10.8 4.9-16 7.2-2.6 1.3-5.5 2.3-8.2 3.3-2.6 1-5.5 2.3-8.2 3.3-2.6 1-5.5 2.3-8.2 3.3h-.3c-2.6 1-5.5 2-8.2 2.9-5.9 2-12.1 3.9-17.9 5.9-2 .7-4.2 1.3-6.2 2-6.2 2-12.4 3.6-18.6 4.9-2.3.7-4.6 1-7.2 1.6-5.9 1.3-12.1 2.6-17.9 3.9-1.3.3-2.3.3-3.6.7-2 .3-4.2.7-6.2 1-2.9.3-5.5 1-8.5 1.3-1.3.3-2.6.3-3.9.7-1.6.3-3.6.7-5.5.7-5.2.7-10.8 1.3-16 2-1.6.3-3.6.3-5.2.7h-.3c-2.3.3-4.6.3-6.9.7-2.3.3-4.6.3-6.9.3-1.3 0-2.9.3-4.2.3-2.6 0-4.9.3-7.2.3-3.3 0-6.2.3-9.5.3h-16.4c-137.4-2-261.4-60.4-349.5-153 0 0 0-.3-.3-.3 10.1-19.9 47.6-55.8 86.8-85.5 49.6-37.5 119.8-60.7 119.8-60.7s46-7.5 216.7 28.1c130.4 27 185.9 138.2 204.8 189.5z"/><path class="st3" d="M595.2 802.2c-6.9 33.6-51.2 53.5-126 23.5-91.7-37.2-126.9-142-126.9-142-4.9-75.1-16.3-139.3-16.3-139.3 106.1-9.1 231.4 114.9 231.4 114.9l14.4 61.4c1.3 5.2 3.9 9.8 7.8 13.1 6.8 11.6 20.2 46.8 15.6 68.4z"/><path class="st4" d="M579.6 733.9c-62.3-3.3-108.3-12.4-157.6-100.8 41.8 36.9 91 50.9 142.9 57.4l6.9 30c1.2 5.6 3.9 10.2 7.8 13.4z"/><path class="st3" d="M708.5 340.7c5.9 27.4 8.8 49.6-7.2 122.7S716 609.6 639 676.5c-51.9 45-142.6 53.5-215.1 4.2-24.5-16.6-47-39.8-65.3-70.2-14.4-23.8-31-46.3-49.6-66.9-25.8-28.1-56.8-84.5-41.4-184.4C292.4 196.7 453.3 178.1 548.2 196c95 18.1 144.3 72.3 160.3 144.7z"/><path class="st3" d="M396.2 468.3s-10.1-49-57.8-43.1c-41.1 5.2-55.5 103.8 37.9 131.2"/><path class="st5" d="M373.3 518.5c-1.2 0-2.5-.3-3.6-1.1-.6-.4-15.2-9.9-13.5-26.9v-.2c1.5-11.7.4-19.2-3-20.6-4.8-2-6.7-.8-7.3-.3-3 2-4.3 7.4-4.3 9.1.5 3.4-1.6 6.7-5 7.5-3.6.9-7.3-1.3-8.2-4.9-1-4 1-15.3 8.3-21.6 3.3-2.9 10.6-6.9 21.8-2.3 14.9 6.1 12.2 27.5 11.3 34.7-.8 8.6 7.3 14.1 7.4 14.1 3.1 2 4.1 6.2 2.1 9.3-1.6 2.1-3.8 3.2-6 3.2zm-31.8-39.9zm-.1-.8z"/><path class="st4" d="M622.3 543.4s12.4.7 24.1-13.4c6.5-7.8 12.1-17.6 8.5-20.6-3.6-3.3-62.7 5.9-66.6 13.7-3.8 7.9 19 20.3 34 20.3z"/><path class="st5" d="M619 550.8c-3.3 0-6.2-2.4-6.7-5.8-.5-3.7 2-7.1 5.7-7.6 13-1.9 23.6-8.8 28.3-18.6 2.8-5.8 3-11.7.5-16.1-20.5-35.7-21.4-67.5-21.5-68.8-.1-3.7 2.9-6.8 6.6-6.9 3.7-.1 6.8 2.9 6.9 6.6 0 .5 1 30 19.7 62.4 4.8 8.3 4.8 18.8 0 28.7-6.7 13.8-21.1 23.5-38.5 26-.3 0-.6.1-1 .1z"/><g class="st6"><path class="st7" d="M455.2 560c18.6 0 33.6-12.4 33.6-27.7 0-15.3-15-27.7-33.6-27.7s-33.6 12.4-33.6 27.7c0 15.3 15.1 27.7 33.6 27.7z"/></g><g class="st6"><path class="st7" d="M696.1 505.2c-1 18.3-.7 36.2-2 54.2-14.4-3.3-24.8-14-24.8-26.8 0-13.7 11.4-24.8 26.8-27.4z"/></g><path d="M796.6 840.9c-46.3-59.7-118.1-84.5-157.6-99.2-3.3-16.3-9.5-34.3-19.3-51.6-15 9.1-32.3 16-50.3 19.6l2.6 10.8c1.3 5.2 7.8 29.4-2.3 60.4-8.4 26.1-42.7 37.8-100.7 11.4-113.2-51.2-126.3-109-126.3-109-2-31.3-5.2-60.7-8.2-84.5-35.2 7.8-76 23.8-98.2 57.4-27.4 41.1-37.5 82.9-34.9 116.2C153.7 802.7 80 848.7 55.8 931c-31.3 107-26.1 172.6-26.1 172.6H873c-1 .3-13.4-181.5-76.4-262.7z" style="fill:#6060d8"/><path class="st5" d="M399.4 871.5c-1.2 0-2.4-.3-3.5-1-46.2-28.3-73.6-63.4-88.4-87.7-16.2-26.6-21.4-46.4-21.6-47.2-.9-3.6 1.2-7.3 4.8-8.2 3.6-.9 7.3 1.2 8.2 4.8.1.3 5.1 19.1 20.4 44 14.1 23 40 56 83.7 82.8 3.2 1.9 4.2 6.1 2.2 9.3-1.3 2-3.5 3.2-5.8 3.2z"/><path class="st5" d="M611.2 894.6c-1.8 0-3.7-.7-5-2.2-2.5-2.8-2.3-7 .5-9.5 47-42.8 25.6-138.7 25.4-139.7-.8-3.6 1.4-7.2 5.1-8.1 3.6-.8 7.2 1.4 8.1 5 .2 1.1 6 26.2 5.4 57.5-.7 42.2-12.8 75.1-34.9 95.2-1.3 1.2-2.9 1.8-4.6 1.8z"/><path class="st5" d="M468.9 963.2c-3.3 0-6.2-2.5-6.7-5.8-4.7-35.4 12-84.9 12.7-86.9 1.2-3.5 5-5.4 8.6-4.2 3.5 1.2 5.4 5 4.2 8.6-.2.5-16.4 48.5-12.1 80.8.5 3.7-2.1 7.1-5.8 7.6-.3-.2-.6-.1-.9-.1z"/><path class="st5" d="M607.3 948.1c-3.1 0-5.9-2.2-6.6-5.4-8.9-42.7-21.3-70.1-21.4-70.4-1.5-3.4-.1-7.4 3.3-8.9s7.4-.1 8.9 3.3c.5 1.2 13.2 28.9 22.3 73.2.8 3.6-1.6 7.2-5.2 8-.4.2-.8.2-1.3.2z"/><path class="st5" d="M386.7 920.4c-.4 0-.9 0-1.3-.1-84.2-16.9-131.6-55.4-156.5-84.7-27.3-32.1-34.4-60.1-34.7-61.3-.9-3.6 1.3-7.3 4.9-8.2 3.6-.9 7.3 1.3 8.1 4.9.1.3 6.9 26.6 32.4 56.4C263.2 854.9 308.1 891 388 907c3.6.7 6 4.3 5.3 7.9-.6 3.3-3.4 5.5-6.6 5.5z"/><path class="st9" d="m471.9 963.9-14.4-1.3c-5.2-.7-9.1-5.5-8.2-10.8l4.9-24.5c1.3-6.9 7.8-11.7 14.7-10.8 6.9.7 12.4 6.5 12.4 13.7l.3 25.1c.1 5-4.5 9.3-9.7 8.6z"/><path class="st9" d="m621.7 948.9-13.7 4.9c-5.2 2-10.8-1.3-11.7-6.5l-5.9-24.1c-1.6-6.9 2-13.7 8.8-16.3 6.5-2.3 14 .7 17 6.9l10.8 22.5c2.2 4.8-.1 10.6-5.3 12.6z"/><path d="M776.7 1110.7h-.8c-3.7-.4-6.3-3.8-5.9-7.5 7-58.4-10.9-159.5-11-160.5-.7-3.7 1.8-7.2 5.5-7.8 3.7-.7 7.2 1.8 7.8 5.5.8 4.2 18.4 104.2 11.2 164.5-.5 3.2-3.4 5.8-6.8 5.8z" style="fill:#544d4d"/><path class="st5" d="M515.1 466.5c-7.8-.3-13.7-6.9-13.1-14.7l.3-9.1c.3-7.8 6.9-13.7 14.7-13.1 7.8.3 13.7 6.9 13.1 14.7l-.3 9.1c-.4 7.5-6.9 13.4-14.7 13.1z"/><path class="st5" d="M652.4 471.4c-7.2-.3-12.7-6.5-12.4-13.7l.3-8.5c.3-7.2 6.5-12.7 13.7-12.4 7.2.3 12.7 6.5 12.4 13.7l-.3 8.5c-.3 7.2-6.5 12.7-13.7 12.4z"/><path class="st5" d="M546.7 454.3c-2.1 0-4.2-1-5.5-2.8-.2-.2-7.2-9.8-18.7-11.6-10.4-1.7-19.3 3.8-19.9 6-1 3.6-4.7 5.7-8.3 4.6-3.6-1-5.7-4.8-4.6-8.3 3-10.6 19.7-18 35-15.6 17.3 2.7 27.2 16.5 27.6 17.1 2.1 3 1.4 7.2-1.6 9.4-1.3.8-2.6 1.2-4 1.2z"/><path class="st5" d="M675.6 458.2c-2.6 0-5-1.5-6.1-3.9-.1-.2-3.7-7.5-11.5-7.5-5 0-8.1 1.5-8.3 3.9v-.2h-13.5c0-4.8 3.9-17.2 21.8-17.2 16.5 0 23.5 14.7 23.8 15.4 1.5 3.4.1 7.4-3.3 8.9-1 .4-1.9.6-2.9.6z"/><path class="st5" d="M560.1 395c6.9 2.3 13.7-3.9 12.4-11.4-.7-3.9-2.3-7.8-5.5-10.8-9.8-8.8-50.3-16.6-74.7-5.2-21.6 10.4 36.5 17 67.8 27.4z"/><path class="st5" d="M657.7 400.2c-5.5 2-11.4-3.9-10.4-10.8.3-3.6 1.6-7.2 4.2-9.8 7.8-7.8 34.6-14 51.6-2 14.6 10.2-20 13.2-45.4 22.6z"/><path class="st5" d="M634.4 588.9c.4 7.2-4.9 19.8-14.8 28.8-50.8-31-73.7-14.8-73.7-14.8-18-27.4-13.9-64.7 29.7-36.4 30.5 19.3 48.9 22.4 58.8 22.4z"/><path d="M619.6 617.7c-10.8 9.4-27 15.3-49 6.3-10.3-4-18.4-12.1-24.7-21.1 0 0 22.9-16.2 73.7 14.8z" style="fill:#fe9dab"/><path class="st5" d="M591.2 635.3c-7 0-14.9-1.4-23.7-5-22.2-9-37-34.4-38.5-53.6-.8-11.2 2.7-19.7 9.9-24 9.4-5.6 23-2.9 40.2 8.2 43.2 27.6 60.6 20.4 60.7 20.3l-.2.1 6.5 11.8c-.6.3-2.4 1.2-5.6 1.8-2.1 10.4-9.8 23.5-21.7 31.7-6.4 4.5-15.6 8.7-27.6 8.7zm-41.2-72c-2.2 0-3.5.5-4.1.9-3.6 2.2-3.5 8.7-3.3 11.4 1.1 14.8 13 35.2 30.1 42.2 14.7 6 27.6 5.3 38.5-2.2 8.5-5.9 13.4-14.3 15.4-20.5-12-1.5-29.8-7.1-54.6-22.9-11.3-7.3-18.2-8.9-22-8.9z"/><path class="st5" d="M619.6 624.4c-1.2 0-2.4-.3-3.5-1-45.7-27.9-66.1-15.2-66.3-15.1-3 2.1-7.2 1.4-9.4-1.6-2.1-3-1.4-7.2 1.6-9.4 1.1-.8 27.2-18.3 81.1 14.6 3.2 1.9 4.2 6.1 2.2 9.3-1.3 2.1-3.5 3.2-5.7 3.2z"/><path class="st5" d="M733.7 261.9c-23.2 83.9-90.4 69.8-153.4 47-83.9-30.7-157.6-5.9-157.9 69.8-.7 111-28.4 77.3-31.3 73.1-7.2-13.7-22.5-30.7-51.6-27.1-38.2 4.9-53.2 89.1 17.9 123.7 12.4 63-21.5 57.1-21.5 57.1-11.4-46.3-107.4-144.9-107.7-209.8 0-87.5 44.1-112.3 44.1-112.3 1.3-61 64.9-128.2 172-126 107 2 172.6-1 193.5-26.1 20.8-25.7 119 46.8 95.9 130.6z"/><path class="st5" d="M736.3 362.8c-3.3 21.2-12.4 37.5-25.1 49.6 4.9-35.6 2.3-52.5-2-72.4-9.1-40.8-28.7-76-61.4-102.1 16.3-1.3 33 2.3 48 11.7 0-.4 53.8 21.5 40.5 113.2z"/><path class="st9" d="M359.3 479.1s-26.1-3.9-24.1 32.6c1 18.6 1 28.7.7 33.9-.3 3.6 2 6.9 5.2 8.2 3.9 1.6 8.2 0 10.1-3.9 2.9-5.2 6.2-12.4 6.2-18.3 0-9.8 10.4-18.6 10.4-18.6s-9.4-8.2-8.5-33.9z"/><path class="st9" d="M438.3 1108.2c-2.6-2.9-105.1-178.2-89.7-244.1 10.4-45.4-3.3-97.6-15.3-143.6-4.9-18.9-9.5-36.5-12.1-52.2-4.6-27.1-1.3-52.9 9.8-76.7 12.1-26.8 10.1-49.9 10.1-50.3l6.5-.7c0 1 2 25.5-10.8 53.5-10.4 22.5-13.4 47.3-9.1 73.1 2.6 15.3 7.2 33 12.1 51.9 12.4 46.7 26.1 99.9 15.3 146.9-14.4 62.7 87.8 237.9 88.4 238.5l-5.2 3.7z"/><path d="M336.2 530.6c.3 7.2 0 12.1 0 15-.3 3.6 2 6.9 5.2 8.2 3.9 1.6 8.2 0 10.1-3.9 2.9-5.2 6.2-12.4 6.2-18.3v-1.3c-6.8 2.6-14.7 4.6-21.5.3z" style="fill:#e5e5e5"/><path class="st9" d="M643.2 747.6c-2.3 15-2.6 38.8-3.3 66.6-1 53.5-32.6 262-48 295l-5.9-2.6c14.7-32 46.3-239.5 47.3-292.4.7-27.7 1-51.9 3.3-67.6 4.9-33 1.3-57.8-.7-68.2 1-1 2-1.6 2.9-2.6 1-.7 1.6-1.6 2.6-2.3 2.2 8.5 7.7 35.6 1.8 74.1z"/></g></svg>