<svg width="294" height="278" viewBox="0 0 294 278" fill="none" xmlns="http://www.w3.org/2000/svg">
<g clip-path="url(#clip0_4_144)">
<path d="M149.292 240.636C210.872 240.636 260.789 239.168 260.789 237.354C260.789 235.54 210.868 234.072 149.292 234.072C87.7153 234.072 37.7942 235.54 37.7942 237.354C37.7911 239.168 87.7121 240.636 149.292 240.636Z" fill="#F5F8FF"/>
<path d="M164.526 236.027H88.8243C82.6855 236.027 78.551 231.048 79.5909 224.903L110.081 44.9964C111.121 38.8512 116.945 33.8722 123.084 33.8722H198.789C204.928 33.8722 209.062 38.8544 208.022 44.9964L177.529 224.903C176.489 231.045 170.668 236.027 164.526 236.027Z" fill="#5CA4E6"/>
<path d="M155.073 236.027H79.3678C73.229 236.027 69.0946 231.048 70.1345 224.903L100.624 44.9964C101.664 38.8512 107.486 33.8722 113.628 33.8722H189.332C195.474 33.8722 199.606 38.8544 198.566 44.9964L168.076 224.903C167.033 231.045 161.211 236.027 155.073 236.027Z" fill="#D1E8F7"/>
<path d="M155.506 230.011H80.9701C77.7813 230.011 75.6355 227.424 76.1759 224.234L106.44 45.6596C106.98 42.4692 110.002 39.8822 113.191 39.8822H187.727C190.916 39.8822 193.062 42.4692 192.521 45.6596L162.257 224.234C161.717 227.427 158.695 230.011 155.506 230.011Z" fill="white"/>
<path d="M129.298 54.464L91.2936 56.7052V54.464H129.298Z" fill="white"/>
<path d="M144.806 54.464L91.2936 57.6199V56.7052L129.298 54.464H144.806Z" fill="white"/>
<path d="M160.313 54.464L91.2936 58.5315V57.6199L144.806 54.464H160.313Z" fill="#FEFEFF"/>
<path d="M175.559 54.4797L91.2936 59.4462V58.5315L160.313 54.464H175.559V54.4797Z" fill="#FDFEFF"/>
<path d="M175.559 55.3944L91.2936 60.3609V59.4462L175.559 54.4797V55.3944Z" fill="#FCFDFF"/>
<path d="M175.559 56.3091L91.2936 61.2756V60.3609L175.559 55.3944V56.3091Z" fill="#FBFCFF"/>
<path d="M175.559 57.2207L91.2936 62.1871V61.2756L175.559 56.3091V57.2207Z" fill="#FAFCFF"/>
<path d="M175.559 58.1354L91.2936 63.1018V62.1871L175.559 57.2207V58.1354Z" fill="#F9FBFF"/>
<path d="M175.559 59.0501L91.2936 64.0165V63.1018L175.559 58.1354V59.0501Z" fill="#F8FAFF"/>
<path d="M175.559 59.9648L91.2936 64.9312V64.0165L175.559 59.0501V59.9648Z" fill="#F7FAFF"/>
<path d="M175.559 60.8763L91.2936 65.8428V64.9312L175.559 59.9648V60.8763Z" fill="#F6F9FF"/>
<path d="M175.559 61.791L91.2936 66.7575V65.8428L175.559 60.8763V61.791Z" fill="#F5F8FF"/>
<path d="M175.559 62.7057L91.2936 67.6722V66.7575L175.559 61.791V62.7057Z" fill="#F4F8FF"/>
<path d="M175.559 63.6204L91.2936 68.5869V67.6722L175.559 62.7057V63.6204Z" fill="#F3F7FF"/>
<path d="M175.559 64.5352L91.2936 69.5016V68.5869L175.559 63.6205V64.5352Z" fill="#F2F6FF"/>
<path d="M175.559 65.4467L91.2936 70.4131V69.5016L175.559 64.5352V65.4467Z" fill="#F1F6FF"/>
<path d="M175.559 66.3614L91.2936 71.3278V70.4131L175.559 65.4467V66.3614Z" fill="#F0F5FF"/>
<path d="M175.559 67.2761L91.2936 72.2425V71.3278L175.559 66.3614V67.2761Z" fill="#EFF4FF"/>
<path d="M175.559 68.1908L91.2936 73.1572V72.2425L175.559 67.2761V68.1908Z" fill="#EEF4FF"/>
<path d="M175.559 69.1024L91.2936 74.0688V73.1572L175.559 68.1908V69.1024Z" fill="#EDF3FF"/>
<path d="M175.559 70.0171L91.2936 74.9835V74.0688L175.559 69.1024V70.0171Z" fill="#ECF2FF"/>
<path d="M175.559 70.9318L91.2936 75.8982V74.9835L175.559 70.0171V70.9318Z" fill="#EBF2FF"/>
<path d="M175.559 71.8465L91.2936 76.8129V75.8982L175.559 70.9318V71.8465Z" fill="#EAF1FF"/>
<path d="M175.559 72.758L91.2936 77.7244V76.8129L175.559 71.8465V72.758Z" fill="#E9F0FF"/>
<path d="M175.559 73.6727L91.2936 78.6391V77.7244L175.559 72.758V73.6727Z" fill="#E8F0FF"/>
<path d="M175.559 74.5874L91.2936 79.5538V78.6391L175.559 73.6727V74.5874Z" fill="#E7EFFF"/>
<path d="M175.559 75.5022L91.2936 80.4686V79.5539L175.559 74.5875V75.5022Z" fill="#E6EEFF"/>
<path d="M175.559 76.4168L91.2936 81.3801V80.4685L175.559 75.5021V76.4168Z" fill="#E5EEFF"/>
<path d="M175.559 77.3284L91.2936 82.2948V81.3801L175.559 76.4169V77.3284Z" fill="#E4EDFF"/>
<path d="M175.559 78.2431L91.2936 83.2095V82.2948L175.559 77.3284V78.2431Z" fill="#E3EDFF"/>
<path d="M175.559 79.1578L91.2936 84.1242V83.2095L175.559 78.2431V79.1578Z" fill="#E2ECFF"/>
<path d="M175.559 80.0725L91.2936 85.0389V84.1242L175.559 79.1578V80.0725Z" fill="#E1EBFF"/>
<path d="M175.559 80.984L91.2936 85.9505V85.0389L175.559 80.0725V80.984Z" fill="#E0EBFF"/>
<path d="M175.559 81.8988L91.2936 86.8652V85.9505L175.559 80.9841V81.8988Z" fill="#DFEAFF"/>
<path d="M175.559 82.8134L91.2936 87.7799V86.8652L175.559 81.8987V82.8134Z" fill="#DEE9FF"/>
<path d="M175.559 83.7281L91.2936 88.6946V87.7799L175.559 82.8134V83.7281Z" fill="#DDE9FF"/>
<path d="M175.559 84.6397L91.2936 89.6061V88.6946L175.559 83.7281V84.6397Z" fill="#DCE8FF"/>
<path d="M175.559 85.5544L91.2936 90.5208V89.6061L175.559 84.6397V85.5544Z" fill="#DBE7FF"/>
<path d="M175.559 86.4691L91.2936 91.4355V90.5208L175.559 85.5544V86.4691Z" fill="#DAE7FF"/>
<path d="M175.559 87.3838L91.2936 92.3502V91.4355L175.559 86.4691V87.3838Z" fill="#D9E6FF"/>
<path d="M175.559 88.2985L91.2936 93.2618V92.3502L175.559 87.3838V88.2985Z" fill="#D8E5FF"/>
<path d="M175.559 89.2101L91.2936 94.1765V93.2618L175.559 88.2985V89.2101Z" fill="#D7E5FF"/>
<path d="M175.559 90.1248L91.2936 95.0912V94.1765L175.559 89.2101V90.1248Z" fill="#D6E4FF"/>
<path d="M175.559 91.0395L91.2936 96.0059V95.0912L175.559 90.1248V91.0395Z" fill="#D5E3FF"/>
<path d="M175.559 91.9542L91.2936 96.9206V96.0059L175.559 91.0395V91.9542Z" fill="#D4E3FF"/>
<path d="M175.559 92.8657L91.2936 97.8322V96.9206L175.559 91.9542V92.8657Z" fill="#D3E2FF"/>
<path d="M175.559 93.7805L91.2936 98.7469V97.8322L175.559 92.8658V93.7805Z" fill="#D2E1FF"/>
<path d="M175.559 94.6952L91.2936 99.6616V98.7469L175.559 93.7805V94.6952Z" fill="#D1E1FF"/>
<path d="M175.559 95.6099L100.141 100.054H91.2936V99.6616L175.559 94.6952V95.6099Z" fill="#D0E0FF"/>
<path d="M175.559 96.5214L115.648 100.054H100.141L175.559 95.6099V96.5214Z" fill="#CFDFFF"/>
<path d="M175.559 97.4361L131.155 100.054H115.648L175.559 96.5214V97.4361Z" fill="#CEDFFF"/>
<path d="M175.559 98.3508L146.665 100.054H131.155L175.559 97.4361V98.3508Z" fill="#CDDEFF"/>
<path d="M175.559 99.2655L162.173 100.054H146.665L175.559 98.3508V99.2655Z" fill="#CCDDFF"/>
<path d="M162.173 100.054L175.559 99.2655V100.054H162.173Z" fill="#CBDDFF"/>
<path d="M156.816 94.7706H50.1252C47.6245 94.7706 45.9908 92.74 46.4778 90.2379L53.5779 53.7128C54.0649 51.2107 56.4871 49.1801 58.9879 49.1801H165.682C168.183 49.1801 169.816 51.2107 169.329 53.7128L162.229 90.2379C161.742 92.74 159.32 94.7706 156.816 94.7706Z" fill="#FEBB94"/>
<path d="M150.011 225.356L83.8384 225.67C81.3377 225.67 79.704 223.64 80.191 221.138L87.2911 184.612C87.7781 182.11 90.2003 180.08 92.7011 180.08L158.874 179.766C161.375 179.766 163.008 181.796 162.525 184.298L155.424 220.823C154.934 223.329 152.512 225.356 150.011 225.356Z" fill="#FEBB94"/>
<path d="M146.807 216.894C146.697 216.894 146.587 216.888 146.474 216.872C145.051 216.69 144.045 215.389 144.227 213.968C145.019 207.769 143.31 201.913 139.411 197.484C135.286 192.794 129.232 190.214 122.365 190.214C108.271 190.214 95.406 201.165 93.6844 214.628C93.5022 216.049 92.2015 217.058 90.7815 216.875C89.3583 216.693 88.353 215.392 88.5352 213.971C89.528 206.204 93.5964 198.918 99.9897 193.461C106.361 188.02 114.306 185.024 122.362 185.024C130.74 185.024 138.177 188.234 143.304 194.055C148.202 199.622 150.357 206.927 149.374 214.628C149.21 215.935 148.095 216.894 146.807 216.894Z" fill="#FF967C"/>
<path d="M91.1177 216.894C91.0077 216.894 90.8977 216.888 90.7846 216.872C89.3615 216.69 88.3561 215.389 88.5384 213.968C89.5311 206.201 93.5996 198.915 99.9929 193.458C106.364 188.017 114.309 185.021 122.365 185.021C130.448 185.021 137.712 188.039 142.817 193.514C143.794 194.564 143.737 196.205 142.688 197.183C141.639 198.16 139.999 198.104 139.022 197.054C134.909 192.64 128.994 190.211 122.365 190.211C108.271 190.211 95.406 201.162 93.6844 214.625C93.521 215.935 92.4057 216.894 91.1177 216.894Z" fill="white"/>
<path d="M96.7884 105.219L90.4768 106.118V105.219H96.7884Z" fill="#F4F8FF"/>
<path d="M108.039 105.219L90.4768 107.724V106.118L96.7884 105.219H108.039Z" fill="#F3F7FF"/>
<path d="M119.292 105.219L90.4768 109.33V107.724L108.039 105.219H119.292Z" fill="#F2F6FF"/>
<path d="M130.542 105.219L90.4768 110.937V109.33L119.292 105.219H130.542Z" fill="#F1F6FF"/>
<path d="M141.793 105.219L90.4768 112.543V110.937L130.542 105.219H141.793Z" fill="#F0F5FF"/>
<path d="M153.043 105.219L90.4768 114.149V112.543L141.793 105.219H153.043Z" fill="#EFF4FF"/>
<path d="M157.865 106.137L90.4768 115.755V114.149L153.043 105.219H157.865V106.137Z" fill="#EEF4FF"/>
<path d="M157.865 107.74L90.4768 117.362V115.755L157.865 106.137V107.74Z" fill="#EDF3FF"/>
<path d="M157.865 109.346L90.4768 118.965V117.362L157.865 107.74V109.346Z" fill="#ECF2FF"/>
<path d="M157.865 110.952L90.4768 120.571V118.965L157.865 109.346V110.952Z" fill="#EBF2FF"/>
<path d="M157.865 112.559L90.4768 122.177V120.571L157.865 110.952V112.559Z" fill="#EAF1FF"/>
<path d="M157.865 114.165L90.4768 123.783V122.177L157.865 112.559V114.165Z" fill="#E9F0FF"/>
<path d="M157.865 115.771L90.4768 125.389V123.783L157.865 114.165V115.771Z" fill="#E8F0FF"/>
<path d="M157.865 117.377L90.4768 126.996V125.389L157.865 115.771V117.377Z" fill="#E7EFFF"/>
<path d="M157.865 118.983L90.4768 128.602V126.996L157.865 117.377V118.983Z" fill="#E6EEFF"/>
<path d="M157.865 120.59L90.4768 130.208V128.602L157.865 118.983V120.59Z" fill="#E5EEFF"/>
<path d="M157.865 122.196L90.4768 131.814V130.208L157.865 120.59V122.196Z" fill="#E4EDFF"/>
<path d="M157.865 123.799L90.4768 133.418V131.814L157.865 122.196V123.799Z" fill="#E3EDFF"/>
<path d="M157.865 125.405L90.4768 135.024V133.417L157.865 123.799V125.405Z" fill="#E2ECFF"/>
<path d="M157.865 127.011L90.4768 136.63V135.024L157.865 125.405V127.011Z" fill="#E1EBFF"/>
<path d="M157.865 128.618L90.4768 138.236V136.63L157.865 127.011V128.618Z" fill="#E0EBFF"/>
<path d="M157.865 130.224L90.4768 139.842V138.236L157.865 128.618V130.224Z" fill="#DFEAFF"/>
<path d="M157.865 131.83L90.4768 141.449V139.842L157.865 130.224V131.83Z" fill="#DEE9FF"/>
<path d="M157.865 133.436L90.4768 143.055V141.449L157.865 131.83V133.436Z" fill="#DDE9FF"/>
<path d="M157.865 135.043L90.4768 144.661V143.055L157.865 133.436V135.043Z" fill="#DCE8FF"/>
<path d="M157.865 136.649L90.4768 146.267V144.661L157.865 135.043V136.649Z" fill="#DBE7FF"/>
<path d="M157.865 138.252L90.4768 147.874V146.267L157.865 136.649V138.252Z" fill="#DAE7FF"/>
<path d="M157.865 139.858L90.4768 149.477V147.874L157.865 138.252V139.858Z" fill="#D9E6FF"/>
<path d="M157.865 141.464L90.4768 151.083V149.477L157.865 139.858V141.464Z" fill="#D8E5FF"/>
<path d="M157.865 143.071L90.4768 152.689V151.083L157.865 141.464V143.071Z" fill="#D7E5FF"/>
<path d="M157.865 144.677L90.4768 154.295V152.689L157.865 143.071V144.677Z" fill="#D6E4FF"/>
<path d="M157.865 146.283L90.4768 155.902V154.295L157.865 144.677V146.283Z" fill="#D5E3FF"/>
<path d="M157.865 147.889L90.4768 157.508V155.902L157.865 146.283V147.889Z" fill="#D4E3FF"/>
<path d="M157.865 149.495L90.4768 159.114V157.508L157.865 147.889V149.495Z" fill="#D3E2FF"/>
<path d="M157.865 151.102L90.4768 160.72V159.114L157.865 149.495V151.102Z" fill="#D2E1FF"/>
<path d="M157.865 152.708L90.4768 162.326V160.72L157.865 151.102V152.708Z" fill="#D1E1FF"/>
<path d="M157.865 154.311L90.4768 163.93V162.326L157.865 152.708V154.311Z" fill="#D0E0FF"/>
<path d="M157.865 155.917L90.4768 165.536V163.93L157.865 154.311V155.917Z" fill="#CFDFFF"/>
<path d="M157.865 157.524L90.4768 167.142V165.536L157.865 155.917V157.524Z" fill="#CEDFFF"/>
<path d="M157.865 159.13L90.4768 168.748V167.142L157.865 157.523V159.13Z" fill="#CDDEFF"/>
<path d="M157.865 160.736L90.4768 170.354V168.748L157.865 159.13V160.736Z" fill="#CCDDFF"/>
<path d="M157.865 162.342L90.4768 171.961V170.354L157.865 160.736V162.342Z" fill="#CBDDFF"/>
<path d="M157.865 163.948L90.4768 173.567V171.961L157.865 162.342V163.948Z" fill="#CADCFF"/>
<path d="M157.865 165.555L94.4604 174.604H90.4768V173.567L157.865 163.948V165.555Z" fill="#C8DBFF"/>
<path d="M157.865 167.161L105.711 174.604H94.4604L157.865 165.555V167.161Z" fill="#C7DBFF"/>
<path d="M157.865 168.764L116.961 174.604H105.711L157.865 167.161V168.764Z" fill="#C6DAFF"/>
<path d="M157.865 170.37L128.211 174.604H116.961L157.865 168.764V170.37Z" fill="#C5D9FF"/>
<path d="M157.865 171.976L139.462 174.604H128.211L157.865 170.37V171.976Z" fill="#C4D9FF"/>
<path d="M157.865 173.583L150.715 174.604H139.462L157.865 171.976V173.583Z" fill="#C3D8FF"/>
<path d="M150.715 174.604L157.865 173.583V174.604H150.715Z" fill="#C2D7FF"/>
<path d="M109.305 137.064H102.845C102.49 137.076 102.148 137.208 101.878 137.441C101.608 137.674 101.425 137.991 101.359 138.34L97.8502 159.457C97.8157 159.614 97.8188 159.774 97.8565 159.931C97.8942 160.085 97.9665 160.23 98.0702 160.352C98.1738 160.475 98.3026 160.572 98.4472 160.638C98.5917 160.705 98.7519 160.736 98.9121 160.73H105.371C105.726 160.717 106.069 160.585 106.339 160.352C106.609 160.12 106.791 159.806 106.857 159.453L110.367 138.337C110.401 138.18 110.398 138.019 110.36 137.862C110.323 137.708 110.25 137.564 110.147 137.438C110.043 137.315 109.914 137.218 109.77 137.152C109.625 137.089 109.465 137.057 109.305 137.064Z" fill="white"/>
<path d="M121.092 144.29H114.633C114.278 144.303 113.936 144.435 113.665 144.667C113.395 144.9 113.213 145.214 113.147 145.566L110.838 159.457C110.803 159.614 110.806 159.774 110.844 159.931C110.882 160.085 110.954 160.23 111.058 160.352C111.161 160.475 111.29 160.572 111.435 160.638C111.579 160.705 111.74 160.736 111.9 160.73H118.359C118.714 160.717 119.056 160.585 119.327 160.352C119.597 160.12 119.779 159.806 119.845 159.453L122.154 145.563C122.189 145.406 122.186 145.246 122.148 145.089C122.11 144.935 122.038 144.79 121.934 144.667C121.831 144.545 121.702 144.447 121.557 144.381C121.41 144.315 121.253 144.284 121.092 144.29Z" fill="white"/>
<path d="M136.694 123.962H130.235C129.88 123.975 129.54 124.107 129.267 124.34C128.997 124.572 128.814 124.887 128.749 125.239L123.062 159.457C123.028 159.614 123.031 159.774 123.068 159.931C123.106 160.085 123.178 160.23 123.282 160.352C123.386 160.475 123.514 160.572 123.659 160.638C123.804 160.705 123.964 160.736 124.124 160.73H130.583C130.938 160.717 131.281 160.585 131.551 160.352C131.821 160.12 132.003 159.806 132.069 159.453L137.756 125.235C137.79 125.078 137.787 124.918 137.749 124.761C137.712 124.607 137.639 124.462 137.536 124.336C137.432 124.214 137.303 124.116 137.159 124.05C137.014 123.988 136.854 123.956 136.694 123.962Z" fill="white"/>
<path d="M147.812 132.833H141.353C140.998 132.845 140.655 132.977 140.388 133.21C140.118 133.443 139.936 133.757 139.87 134.109L135.657 159.457C135.622 159.614 135.626 159.774 135.663 159.931C135.701 160.085 135.773 160.23 135.877 160.352C135.981 160.475 136.109 160.572 136.254 160.638C136.402 160.705 136.559 160.736 136.719 160.73H143.178C143.533 160.717 143.876 160.585 144.146 160.352C144.416 160.12 144.598 159.806 144.664 159.453L148.877 134.106C148.912 133.949 148.909 133.788 148.871 133.631C148.833 133.477 148.761 133.333 148.657 133.207C148.554 133.084 148.425 132.987 148.28 132.921C148.133 132.858 147.972 132.827 147.812 132.833Z" fill="white"/>
<path d="M123.125 114.199H105.635C104.768 114.199 104.064 113.495 104.064 112.628C104.064 111.76 104.768 111.056 105.635 111.056H123.125C123.992 111.056 124.696 111.76 124.696 112.628C124.696 113.495 123.992 114.199 123.125 114.199Z" fill="white"/>
<path d="M113.389 120.14H104.643C103.775 120.14 103.072 119.436 103.072 118.569C103.072 117.701 103.775 116.997 104.643 116.997H113.389C114.256 116.997 114.96 117.701 114.96 118.569C114.96 119.436 114.259 120.14 113.389 120.14Z" fill="white"/>
<g opacity="0.6">
<path opacity="0.6" d="M103.119 165.976H99.7352C99.2137 165.976 98.7927 165.555 98.7927 165.033C98.7927 164.511 99.2137 164.09 99.7352 164.09H103.119C103.64 164.09 104.061 164.511 104.061 165.033C104.061 165.555 103.64 165.976 103.119 165.976Z" fill="white"/>
</g>
<g opacity="0.6">
<path opacity="0.6" d="M116.106 165.976H112.723C112.201 165.976 111.78 165.555 111.78 165.033C111.78 164.511 112.201 164.09 112.723 164.09H116.106C116.628 164.09 117.049 164.511 117.049 165.033C117.049 165.555 116.628 165.976 116.106 165.976Z" fill="white"/>
</g>
<g opacity="0.6">
<path opacity="0.6" d="M128.334 165.976H124.95C124.429 165.976 124.008 165.555 124.008 165.033C124.008 164.511 124.429 164.09 124.95 164.09H128.334C128.855 164.09 129.276 164.511 129.276 165.033C129.276 165.555 128.852 165.976 128.334 165.976Z" fill="white"/>
</g>
<g opacity="0.6">
<path opacity="0.6" d="M140.922 165.976H137.539C137.017 165.976 136.596 165.555 136.596 165.033C136.596 164.511 137.017 164.09 137.539 164.09H140.922C141.444 164.09 141.865 164.511 141.865 165.033C141.865 165.555 141.444 165.976 140.922 165.976Z" fill="white"/>
</g>
<path d="M158.94 105.219L152.628 106.118V105.219H158.94Z" fill="#F4F8FF"/>
<path d="M170.193 105.219L152.628 107.724V106.118L158.94 105.219H170.193Z" fill="#F3F7FF"/>
<path d="M181.444 105.219L152.628 109.33V107.724L170.193 105.219H181.444Z" fill="#F2F6FF"/>
<path d="M192.694 105.219L152.628 110.937V109.33L181.444 105.219H192.694Z" fill="#F1F6FF"/>
<path d="M203.944 105.219L152.628 112.543V110.937L192.694 105.219H203.944Z" fill="#F0F5FF"/>
<path d="M215.194 105.219L152.628 114.149V112.543L203.944 105.219H215.194Z" fill="#EFF4FF"/>
<path d="M220.017 106.137L152.628 115.755V114.149L215.194 105.219H220.017V106.137Z" fill="#EEF4FF"/>
<path d="M220.017 107.743L152.628 117.362V115.755L220.017 106.137V107.743Z" fill="#EDF3FF"/>
<path d="M220.017 109.346L152.628 118.965V117.362L220.017 107.743V109.346Z" fill="#ECF2FF"/>
<path d="M220.017 110.952L152.628 120.571V118.965L220.017 109.346V110.952Z" fill="#EBF2FF"/>
<path d="M220.017 112.559L152.628 122.177V120.571L220.017 110.952V112.559Z" fill="#EAF1FF"/>
<path d="M220.017 114.165L152.628 123.783V122.177L220.017 112.559V114.165Z" fill="#E9F0FF"/>
<path d="M220.017 115.771L152.628 125.389V123.783L220.017 114.165V115.771Z" fill="#E8F0FF"/>
<path d="M220.017 117.377L152.628 126.996V125.389L220.017 115.771V117.377Z" fill="#E7EFFF"/>
<path d="M220.017 118.983L152.628 128.602V126.996L220.017 117.377V118.983Z" fill="#E6EEFF"/>
<path d="M220.017 120.59L152.628 130.208V128.602L220.017 118.983V120.59Z" fill="#E5EEFF"/>
<path d="M220.017 122.196L152.628 131.814V130.208L220.017 120.59V122.196Z" fill="#E4EDFF"/>
<path d="M220.017 123.799L152.628 133.418V131.814L220.017 122.196V123.799Z" fill="#E3EDFF"/>
<path d="M220.017 125.405L152.628 135.024V133.417L220.017 123.799V125.405Z" fill="#E2ECFF"/>
<path d="M220.017 127.011L152.628 136.63V135.024L220.017 125.405V127.011Z" fill="#E1EBFF"/>
<path d="M220.017 128.618L152.628 138.236V136.63L220.017 127.011V128.618Z" fill="#E0EBFF"/>
<path d="M220.017 130.224L152.628 139.842V138.236L220.017 128.618V130.224Z" fill="#DFEAFF"/>
<path d="M220.017 131.83L152.628 141.449V139.842L220.017 130.224V131.83Z" fill="#DEE9FF"/>
<path d="M220.017 133.436L152.628 143.055V141.449L220.017 131.83V133.436Z" fill="#DDE9FF"/>
<path d="M220.017 135.043L152.628 144.661V143.055L220.017 133.436V135.043Z" fill="#DCE8FF"/>
<path d="M220.017 136.649L152.628 146.267V144.661L220.017 135.043V136.649Z" fill="#DBE7FF"/>
<path d="M220.017 138.255L152.628 147.874V146.267L220.017 136.649V138.255Z" fill="#DAE7FF"/>
<path d="M220.017 139.858L152.628 149.477V147.874L220.017 138.255V139.858Z" fill="#D9E6FF"/>
<path d="M220.017 141.464L152.628 151.083V149.477L220.017 139.858V141.464Z" fill="#D8E5FF"/>
<path d="M220.017 143.071L152.628 152.689V151.083L220.017 141.464V143.071Z" fill="#D7E5FF"/>
<path d="M220.017 144.677L152.628 154.295V152.689L220.017 143.071V144.677Z" fill="#D6E4FF"/>
<path d="M220.017 146.283L152.628 155.902V154.295L220.017 144.677V146.283Z" fill="#D5E3FF"/>
<path d="M220.017 147.889L152.628 157.508V155.902L220.017 146.283V147.889Z" fill="#D4E3FF"/>
<path d="M220.017 149.495L152.628 159.114V157.508L220.017 147.889V149.495Z" fill="#D3E2FF"/>
<path d="M220.017 151.102L152.628 160.72V159.114L220.017 149.495V151.102Z" fill="#D2E1FF"/>
<path d="M220.017 152.708L152.628 162.326V160.72L220.017 151.102V152.708Z" fill="#D1E1FF"/>
<path d="M220.017 154.311L152.628 163.93V162.326L220.017 152.708V154.311Z" fill="#D0E0FF"/>
<path d="M220.017 155.917L152.628 165.536V163.93L220.017 154.311V155.917Z" fill="#CFDFFF"/>
<path d="M220.017 157.524L152.628 167.142V165.536L220.017 155.917V157.524Z" fill="#CEDFFF"/>
<path d="M220.017 159.13L152.628 168.748V167.142L220.017 157.523V159.13Z" fill="#CDDEFF"/>
<path d="M220.017 160.736L152.628 170.354V168.748L220.017 159.13V160.736Z" fill="#CCDDFF"/>
<path d="M220.017 162.342L152.628 171.961V170.354L220.017 160.736V162.342Z" fill="#CBDDFF"/>
<path d="M220.017 163.948L152.628 173.567V171.961L220.017 162.342V163.948Z" fill="#CADCFF"/>
<path d="M220.017 165.555L156.609 174.604H152.628V173.567L220.017 163.948V165.555Z" fill="#C8DBFF"/>
<path d="M220.017 167.161L167.862 174.604H156.609L220.017 165.555V167.161Z" fill="#C7DBFF"/>
<path d="M220.017 168.767L179.113 174.604H167.862L220.017 167.161V168.767Z" fill="#C6DAFF"/>
<path d="M220.017 170.37L190.363 174.604H179.113L220.017 168.767V170.37Z" fill="#C5D9FF"/>
<path d="M220.017 171.976L201.613 174.604H190.363L220.017 170.37V171.976Z" fill="#C4D9FF"/>
<path d="M220.017 173.583L212.867 174.604H201.613L220.017 171.976V173.583Z" fill="#C3D8FF"/>
<path d="M212.867 174.604L220.017 173.583V174.604H212.867Z" fill="#C2D7FF"/>
<path d="M170.231 146.142H163.772C163.417 146.154 163.074 146.286 162.804 146.519C162.534 146.751 162.352 147.066 162.286 147.418L160.005 159.453C159.97 159.611 159.974 159.771 160.011 159.928C160.049 160.082 160.121 160.227 160.225 160.349C160.329 160.472 160.457 160.569 160.602 160.635C160.746 160.701 160.907 160.733 161.067 160.727H167.526C167.881 160.714 168.224 160.582 168.494 160.349C168.764 160.117 168.946 159.802 169.012 159.45L171.293 147.415C171.327 147.257 171.324 147.097 171.287 146.94C171.249 146.786 171.177 146.641 171.073 146.519C170.969 146.396 170.841 146.299 170.696 146.233C170.548 146.17 170.388 146.138 170.231 146.142Z" fill="white"/>
<path d="M185.685 127.505H179.226C178.871 127.518 178.528 127.65 178.258 127.882C177.988 128.115 177.806 128.429 177.74 128.781L172.993 159.457C172.958 159.614 172.961 159.774 172.999 159.931C173.037 160.085 173.109 160.23 173.212 160.352C173.316 160.475 173.445 160.572 173.589 160.638C173.734 160.705 173.894 160.736 174.054 160.73H180.514C180.869 160.717 181.211 160.585 181.481 160.352C181.752 160.12 181.934 159.806 182 159.453L186.747 128.778C186.781 128.621 186.778 128.46 186.74 128.303C186.703 128.149 186.631 128.005 186.527 127.879C186.423 127.756 186.294 127.659 186.15 127.593C186.002 127.53 185.842 127.499 185.685 127.505Z" fill="white"/>
<path d="M196.709 136.262H190.25C189.895 136.275 189.555 136.407 189.285 136.639C189.015 136.872 188.833 137.186 188.767 137.538L185.22 159.457C185.185 159.614 185.188 159.774 185.226 159.931C185.264 160.085 185.336 160.23 185.44 160.352C185.543 160.475 185.672 160.572 185.817 160.638C185.964 160.704 186.122 160.736 186.282 160.73H192.741C193.096 160.717 193.438 160.585 193.709 160.352C193.979 160.12 194.161 159.806 194.227 159.453L197.777 137.535C197.812 137.378 197.809 137.218 197.771 137.061C197.733 136.907 197.661 136.762 197.557 136.636C197.454 136.514 197.325 136.416 197.18 136.35C197.029 136.287 196.869 136.256 196.709 136.262Z" fill="white"/>
<path d="M209.964 132.833H203.504C203.149 132.845 202.807 132.977 202.54 133.21C202.27 133.443 202.087 133.757 202.022 134.109L197.809 159.457C197.774 159.614 197.777 159.774 197.815 159.931C197.853 160.085 197.925 160.23 198.028 160.352C198.132 160.475 198.261 160.572 198.405 160.638C198.55 160.705 198.71 160.736 198.87 160.73H205.33C205.685 160.717 206.027 160.585 206.297 160.352C206.568 160.12 206.75 159.806 206.816 159.453L211.029 134.106C211.063 133.949 211.06 133.788 211.022 133.631C210.985 133.477 210.912 133.333 210.809 133.207C210.705 133.084 210.576 132.987 210.432 132.921C210.284 132.858 210.124 132.827 209.964 132.833Z" fill="white"/>
<path d="M185.276 114.199H167.787C166.92 114.199 166.216 113.495 166.216 112.628C166.216 111.76 166.92 111.056 167.787 111.056H185.276C186.144 111.056 186.847 111.76 186.847 112.628C186.847 113.495 186.144 114.199 185.276 114.199Z" fill="white"/>
<path d="M175.544 120.14H166.797C165.93 120.14 165.226 119.436 165.226 118.569C165.226 117.701 165.93 116.997 166.797 116.997H175.544C176.411 116.997 177.114 117.701 177.114 118.569C177.114 119.436 176.411 120.14 175.544 120.14Z" fill="white"/>
<g opacity="0.6">
<path opacity="0.6" d="M165.27 165.976H161.89C161.368 165.976 160.947 165.555 160.947 165.033C160.947 164.511 161.368 164.09 161.89 164.09H165.273C165.795 164.09 166.216 164.511 166.216 165.033C166.216 165.555 165.792 165.976 165.27 165.976Z" fill="white"/>
</g>
<g opacity="0.6">
<path opacity="0.6" d="M178.258 165.976H174.874C174.353 165.976 173.932 165.555 173.932 165.033C173.932 164.511 174.353 164.09 174.874 164.09H178.258C178.78 164.09 179.2 164.511 179.2 165.033C179.2 165.555 178.78 165.976 178.258 165.976Z" fill="white"/>
</g>
<g opacity="0.6">
<path opacity="0.6" d="M190.485 165.976H187.102C186.58 165.976 186.159 165.555 186.159 165.033C186.159 164.511 186.58 164.09 187.102 164.09H190.485C191.007 164.09 191.428 164.511 191.428 165.033C191.428 165.555 191.004 165.976 190.485 165.976Z" fill="white"/>
</g>
<g opacity="0.6">
<path opacity="0.6" d="M203.074 165.976H199.69C199.169 165.976 198.748 165.555 198.748 165.033C198.748 164.511 199.169 164.09 199.69 164.09H203.074C203.596 164.09 204.016 164.511 204.016 165.033C204.016 165.555 203.596 165.976 203.074 165.976Z" fill="white"/>
</g>
<path d="M3.1291 242.286L16.5848 270.447L14.9166 271.245C14.3543 271.515 13.7071 271.55 13.1165 271.339C12.529 271.132 12.0451 270.698 11.7781 270.135L0.351873 246.224C0.0816896 245.662 0.0471313 245.014 0.257623 244.423C0.464973 243.835 0.898522 243.351 1.46088 243.084L3.1291 242.286Z" fill="#71C8EA"/>
<path d="M17.7755 235.927L8.48877 239.768L13.6976 247.139L21.9288 244.628L17.7755 235.927Z" fill="#FFCCB3"/>
<path d="M11.8441 240.06C11.8441 240.06 15.4695 245.662 16.0162 248.792C16.5628 251.923 18.4353 267.756 17.9326 269.183C17.5713 270.208 16.255 270.648 15.4193 270.742C15.2371 270.761 15.0517 270.723 14.8915 270.632C14.7313 270.541 14.6024 270.403 14.5239 270.236L2.30912 244.678C2.10491 244.25 2.07664 243.763 2.22744 243.314C2.38138 242.867 2.70183 242.496 3.12595 242.286C4.81617 241.437 7.40176 240.164 8.48877 239.768C10.1727 239.155 11.2817 239.158 11.8441 240.06Z" fill="#5661AE"/>
<path d="M77.5771 253.463L64.9602 276.768C64.6617 277.318 64.1591 277.727 63.5621 277.903C62.9652 278.082 62.3212 278.013 61.7714 277.717L60.144 276.837L75.0041 249.393L76.6315 250.273C77.1812 250.572 77.5897 251.074 77.7656 251.672C77.9415 252.269 77.8755 252.913 77.5771 253.463Z" fill="#71C8EA"/>
<path d="M60.6938 242.298L69.7732 246.605L64.1967 253.702L56.1038 250.776L60.6938 242.298Z" fill="#FFCCB3"/>
<path d="M66.4085 246.727C66.4085 246.727 62.5034 252.14 61.7997 255.236C61.0959 258.336 58.4255 274.055 58.8559 275.504C59.1669 276.548 60.4582 277.054 61.2876 277.189C61.4698 277.217 61.6551 277.189 61.8217 277.107C61.9882 277.026 62.1233 276.894 62.2081 276.73L75.6984 251.816C75.9246 251.401 75.978 250.914 75.846 250.458C75.7141 250.003 75.4125 249.619 75.0009 249.387C73.3578 248.453 70.8382 247.051 69.7732 246.602C68.1238 245.907 67.0148 245.853 66.4085 246.727Z" fill="#5661AE"/>
<path d="M88.0483 209.102C88.0483 209.102 91.5229 226.371 88.8274 229.757L20.0909 247.365L14.2317 236.38L54.3696 218.158L62.4091 207.134L88.0483 209.102Z" fill="#D1E8F7"/>
<path d="M70.656 221.424L55.4912 226.5L48.4162 229.467L57.6181 237.75L49.3901 239.611L26.9492 221.424H70.656Z" fill="#5CA4E6"/>
<path d="M18.539 234.94L19.0039 236.562L29.6604 244.885L39.6698 242.44C39.6698 242.44 20.3611 233.246 18.539 234.94Z" fill="#5CA4E6"/>
<path d="M37.8288 208.093C37.8288 208.093 18.3913 207.037 8.75895 207.885C2.55731 208.429 0.320448 224.312 5.26857 227.201L58.3972 254.419L64.6586 243.1L30.3862 219.89L54.9037 216.438L37.8288 208.093Z" fill="#D1E8F7"/>
<path d="M10.3926 228.556C16.1324 228.556 20.7852 223.901 20.7852 218.158C20.7852 212.415 16.1324 207.76 10.3926 207.76C4.6528 207.757 0 212.415 0 218.158C0 223.901 4.6528 228.556 10.3926 228.556Z" fill="#D1E8F7"/>
<path d="M87.0995 229.898C92.8393 229.898 97.4921 225.243 97.4921 219.5C97.4921 213.757 92.8393 209.102 87.0995 209.102C81.3596 209.102 76.7068 213.757 76.7068 219.5C76.7068 225.243 81.3596 229.898 87.0995 229.898Z" fill="#D1E8F7"/>
<path d="M58.6297 170.43C57.5364 165.02 60.1094 165.162 60.9671 164.3C60.9671 164.3 64.181 161.647 66.6315 164.121C69.2234 166.737 84.0866 187.052 84.0866 187.052L74.7873 195.608L73.0405 193.521L68.5134 188.117L63.669 182.343L63.0658 181.686L56.5311 174.284C56.5342 174.284 59.2486 173.278 58.6297 170.43Z" fill="#5661AE"/>
<path d="M63.7883 175.862C67.5301 174.607 69.5501 170.556 68.2966 166.809C67.0431 163.065 62.9935 161.044 59.2486 162.298C55.5069 163.552 53.4868 167.604 54.7403 171.351C55.9939 175.098 60.0435 177.116 63.7883 175.862Z" fill="#5661AE"/>
<path d="M63.1506 181.658C62.9621 180.526 62.5882 178.266 62.1829 176.207L60.0372 166.234C60.0372 166.234 65.799 174.755 68.4537 180.69C70.4204 185.137 72.7012 189.67 73.0782 193.505L68.5511 188.102L63.7066 182.327L63.1506 181.658Z" fill="#465393"/>
<path d="M93.3765 164.181C95.5851 160.148 94.5232 159.463 95.4657 157.168C96.3925 154.93 94.7463 149.379 96.3234 150.137C97.8974 150.894 98.3843 152.906 98.3843 152.906C99.4619 151.001 100.452 147.493 103.031 147.094C105.61 146.692 105.836 147.506 107.297 148.703C111.183 151.938 106.229 156.801 105.4 158.652C104.869 159.812 100.957 163.351 100.524 164.124L98.554 166.982L93.3765 164.181Z" fill="#FFCCB3"/>
<path d="M100.97 153.154L104.112 147.352L100.97 153.154Z" fill="#E56441"/>
<path d="M100.97 153.305C100.945 153.305 100.923 153.299 100.898 153.286C100.825 153.249 100.8 153.157 100.838 153.085L103.98 147.283C104.017 147.21 104.108 147.182 104.181 147.223C104.253 147.261 104.278 147.352 104.24 147.424L101.099 153.227C101.074 153.277 101.02 153.305 100.97 153.305Z" fill="#E56441"/>
<path d="M103.028 154.094L106.452 148.691L103.028 154.094Z" fill="#E56441"/>
<path d="M103.028 154.245C102.999 154.245 102.974 154.239 102.949 154.223C102.88 154.179 102.858 154.088 102.902 154.019L106.326 148.615C106.37 148.546 106.462 148.524 106.531 148.568C106.6 148.612 106.622 148.703 106.578 148.773L103.153 154.176C103.125 154.22 103.075 154.245 103.028 154.245Z" fill="#E56441"/>
<path d="M105.472 155.131L107.429 151.859L105.472 155.131Z" fill="#E56441"/>
<path d="M105.472 155.282C105.447 155.282 105.419 155.276 105.397 155.26C105.327 155.219 105.302 155.128 105.346 155.056L107.303 151.784C107.344 151.715 107.435 151.69 107.508 151.734C107.577 151.774 107.602 151.866 107.558 151.938L105.601 155.21C105.572 155.257 105.522 155.282 105.472 155.282Z" fill="#E56441"/>
<path d="M100.194 158.262C100.178 156.254 98.9718 153.824 98.9718 153.824L100.194 158.262Z" fill="#E56441"/>
<path d="M100.194 158.41C100.112 158.41 100.046 158.344 100.046 158.262C100.031 156.31 98.8524 153.912 98.8399 153.887C98.8022 153.814 98.8336 153.723 98.9059 153.689C98.9813 153.651 99.0692 153.682 99.1038 153.755C99.154 153.855 100.323 156.238 100.342 158.259C100.342 158.344 100.276 158.41 100.194 158.41Z" fill="#E56441"/>
<path d="M74.7088 186.891L93.6184 161.695C93.7378 161.547 93.9106 161.449 94.0991 161.418C94.2876 161.39 94.4792 161.431 94.6395 161.534L99.5907 164.813C99.8264 164.973 99.9929 165.212 100.062 165.489C100.131 165.765 100.09 166.058 99.9552 166.306L84.7464 194.366L74.7088 186.891Z" fill="#5661AE"/>
<path d="M79.3019 197.535C82.7985 197.535 85.6355 194.696 85.6355 191.198C85.6355 187.699 82.8017 184.861 79.3019 184.861C75.8052 184.861 72.9683 187.696 72.9683 191.198C72.9714 194.696 75.8052 197.535 79.3019 197.535Z" fill="#5661AE"/>
<path d="M51.2217 158.734C51.2217 158.734 61.8342 161.544 63.6564 162.273C65.4785 163.002 65.5979 165.919 65.7205 167.984C65.843 170.05 65.4346 216.442 65.4346 216.442L41.9475 215.536L24.3824 205.251C24.3824 205.251 25.1459 168.44 25.3878 166.74C25.6297 165.039 23.7227 163.574 25.7899 162.716L39.0886 159.202L51.2217 158.734Z" fill="#5661AE"/>
<path d="M33.5467 175.258L33.7352 209.533L23.6379 198.273L28.5232 174.189L33.5467 175.258Z" fill="#465393"/>
<path d="M37.3607 159.724C37.3607 159.724 35.859 162.748 37.3607 164.832C38.8624 166.916 44.8787 168.943 48.988 168.883C53.0972 168.824 55.2744 164.904 53.4114 159.416L46.6066 157.501L39.0949 159.199L37.3607 159.724Z" fill="#465393"/>
<path d="M54.3696 133.672C54.3696 133.672 57.3291 140.059 54.1717 141.379C51.0175 142.7 51.385 133.98 54.3696 133.672Z" fill="#93523E"/>
<path d="M51.03 154.113L51.8877 163.769C51.8877 163.769 52.7077 165.064 49.5126 165.743C47.458 166.18 41.9192 163.999 40.8479 163.342C40.3924 163.1 40.0342 162.704 39.8363 162.226C39.6384 161.748 39.6132 161.217 39.7672 160.72C40.0939 159.538 41.4448 149.694 41.4448 149.694L51.03 154.113Z" fill="#FFCCB3"/>
<path d="M51.1966 155.974L46.0976 153.453L51.784 162.578L51.1966 155.974Z" fill="#FF967C"/>
<path d="M52.67 135.52C52.67 135.52 55.664 143.03 56.7479 148.298C57.8443 153.613 56.0944 154.94 53.7884 155.722C51.9694 156.338 49.0665 156.832 47.0904 156.213C43.4869 155.084 39.9651 151.828 39.12 151.158C37.8162 150.124 36.525 145.425 38.4383 142.766C40.3547 140.106 47.8915 131.755 52.67 135.52Z" fill="#FFCCB3"/>
<path d="M48.8183 145.887C49.2173 145.73 49.3461 145.111 49.1073 144.504C48.8686 143.897 48.3533 143.529 47.9544 143.687C47.5554 143.844 47.4266 144.463 47.6653 145.07C47.9009 145.676 48.4193 146.041 48.8183 145.887Z" fill="#080B09"/>
<path d="M54.2879 143.693C54.6869 143.536 54.8157 142.917 54.577 142.31C54.3382 141.703 53.823 141.335 53.424 141.493C53.025 141.65 52.8962 142.269 53.135 142.876C53.3737 143.482 53.889 143.85 54.2879 143.693Z" fill="#080B09"/>
<path d="M52.2804 144.73C52.2804 144.73 51.7935 146.201 52.8145 146.06C53.7853 145.89 54.445 146.368 53.5968 147.355" fill="#E56441"/>
<path d="M53.5968 147.503C53.5622 147.503 53.5277 147.49 53.4994 147.465C53.4366 147.411 53.4303 147.317 53.4837 147.254C53.7884 146.899 53.9047 146.588 53.801 146.402C53.6847 146.198 53.3077 146.12 52.8428 146.201C52.5506 146.242 52.3307 146.176 52.1893 146.003C51.85 145.598 52.1108 144.771 52.1422 144.68C52.1673 144.601 52.2521 144.561 52.3307 144.586C52.4092 144.611 52.4501 144.696 52.4249 144.774C52.3621 144.969 52.2207 145.579 52.4187 145.815C52.4941 145.903 52.6166 145.934 52.7988 145.909C53.4051 145.802 53.8795 145.934 54.0617 146.258C54.1843 146.475 54.222 146.855 53.713 147.449C53.6816 147.484 53.6408 147.503 53.5968 147.503Z" fill="#E56441"/>
<path d="M53.6471 148.653H53.6533L53.6596 148.65C53.6753 148.647 53.6879 148.644 53.7036 148.65C53.7193 148.653 53.7319 148.659 53.7413 148.672C53.7507 148.681 53.7602 148.694 53.7633 148.71C53.7664 148.725 53.7664 148.738 53.7633 148.754L53.7602 148.766V148.779C53.6973 149.423 53.5371 149.807 53.3423 150.02C53.1538 150.228 52.9182 150.297 52.6511 150.278C52.3778 150.256 52.0762 150.143 51.784 149.983C51.495 149.826 51.228 149.634 51.0206 149.467C51.0049 149.455 50.9955 149.439 50.9892 149.42C50.9829 149.401 50.9829 149.379 50.9861 149.36C50.9892 149.341 51.0018 149.323 51.0143 149.31C51.03 149.294 51.0458 149.285 51.0677 149.282C51.8563 149.077 53.0501 148.795 53.6471 148.653Z" fill="#E56441"/>
<path d="M52.7328 150.435C52.7014 150.435 52.6668 150.435 52.6354 150.432C52.3621 150.41 52.0479 150.306 51.7055 150.118C51.3882 149.945 51.1023 149.734 50.9201 149.587C50.8761 149.546 50.851 149.508 50.8384 149.461C50.8227 149.417 50.8227 149.367 50.8353 149.316C50.8447 149.272 50.8698 149.228 50.9044 149.194C50.9389 149.159 50.9829 149.134 51.0332 149.121C51.7966 148.927 52.9402 148.659 53.5528 148.512L53.625 148.496C53.6533 148.487 53.6973 148.483 53.7381 148.496C53.779 148.505 53.8167 148.527 53.8512 148.559C53.8795 148.587 53.9015 148.622 53.9141 148.663C53.9266 148.71 53.9266 148.751 53.9141 148.791C53.8544 149.407 53.7004 149.854 53.4554 150.124C53.2669 150.332 53.025 150.435 52.7328 150.435ZM51.1965 149.407C51.3662 149.539 51.6018 149.703 51.8563 149.844C52.161 150.011 52.4312 150.105 52.6606 150.121C52.8993 150.137 53.0784 150.074 53.2229 149.917C53.4114 149.706 53.5371 149.341 53.5936 148.832C52.9967 148.967 51.9443 149.219 51.1965 149.407ZM51.1086 149.429C51.1086 149.429 51.1054 149.429 51.1086 149.429V149.429ZM53.6439 148.653L53.6785 148.804C53.6847 148.804 53.691 148.804 53.6973 148.801L53.6439 148.653Z" fill="#E56441"/>
<path d="M45.3499 143.313L45.4253 143.416C45.5196 143.58 45.6766 143.696 45.8589 143.746C46.0411 143.794 46.2359 143.768 46.3992 143.674L49.1607 141.974C49.299 141.898 49.3995 141.772 49.4498 141.622C49.4969 141.471 49.4906 141.31 49.4247 141.166C49.3901 141.078 49.3335 140.996 49.2644 140.927C49.1953 140.861 49.1136 140.807 49.0225 140.776C48.9314 140.745 48.834 140.729 48.7398 140.738C48.6424 140.745 48.5513 140.773 48.4664 140.82L45.6327 142.417C45.5541 142.458 45.485 142.511 45.4285 142.577C45.3719 142.643 45.3279 142.722 45.3028 142.807C45.2776 142.891 45.2682 142.979 45.2776 143.064C45.2839 143.152 45.3091 143.234 45.3499 143.313Z" fill="#080B09"/>
<path d="M54.888 138.95L51.6489 139.248C51.5547 139.258 51.4604 139.289 51.3788 139.336C51.2939 139.383 51.2248 139.449 51.1683 139.528C51.1117 139.607 51.074 139.695 51.0552 139.789C51.0363 139.883 51.0363 139.981 51.0583 140.075C51.0866 140.229 51.1714 140.367 51.2971 140.462C51.4227 140.556 51.5798 140.6 51.7338 140.587L54.9728 140.418C55.1613 140.402 55.3341 140.314 55.4598 140.169C55.5823 140.025 55.6451 139.839 55.6294 139.651L55.6326 139.522C55.6231 139.434 55.598 139.349 55.554 139.273C55.5132 139.198 55.4535 139.129 55.3844 139.075C55.3153 139.022 55.2367 138.981 55.1519 138.959C55.0639 138.943 54.9728 138.937 54.888 138.95Z" fill="#080B09"/>
<path d="M48.9565 137.02C48.9565 137.02 47.3386 140.097 44.4074 141.012C41.4731 141.926 43.0753 146.557 43.0753 146.557C43.0753 146.557 41.0647 144.554 38.7524 145.683C36.4402 146.811 38.1963 151.234 41.3914 151.29L40.5212 156.266C40.5212 156.266 38.9032 154.251 37.2004 153.173C35.4977 152.095 29.3871 147.908 32.0858 142.392C32.0858 142.392 29.9715 134.647 35.7678 130.633C41.5611 126.619 46.5783 128.134 46.5783 128.134C46.5783 128.134 47.9606 125.94 51.162 126.389C54.3633 126.839 55.1016 132.613 54.0429 134.703C52.9842 136.793 51.2531 137.677 48.9565 137.02Z" fill="#93523E"/>
<path d="M24.8129 167.884C28.8876 164.165 30.0909 166.447 31.269 166.74C31.269 166.74 35.1961 168.135 34.3321 171.508C33.421 175.076 23.6379 198.273 23.6379 198.273L11.5236 194.687L12.4159 192.116L14.7218 185.452L17.1849 178.326L17.4394 177.471L20.4302 168.06C20.4334 168.063 22.6922 169.877 24.8129 167.884Z" fill="#5661AE"/>
<path d="M32.8838 174.318C35.4505 171.319 35.1018 166.806 32.1015 164.234C29.1044 161.666 24.5929 162.015 22.0262 165.017C19.4595 168.016 19.8082 172.533 22.8085 175.101C25.8056 177.669 30.3171 177.32 32.8838 174.318Z" fill="#5661AE"/>
<path d="M22.4409 192.578L44.9352 214.631C45.0672 214.769 45.1394 214.952 45.1457 215.143C45.1488 215.335 45.0829 215.521 44.9603 215.665L41.0678 220.148C40.8793 220.361 40.6186 220.493 40.3358 220.525C40.0531 220.556 39.7703 220.481 39.5378 220.314L13.7228 201.558L22.4409 192.578Z" fill="#5661AE"/>
<path d="M17.5713 202.91C21.068 202.91 23.9049 200.074 23.9049 196.573C23.9049 193.071 21.068 190.236 17.5713 190.236C14.0747 190.236 11.2377 193.071 11.2377 196.573C11.2377 200.074 14.0747 202.91 17.5713 202.91Z" fill="#5661AE"/>
<path d="M54.1686 188.331L41.9601 222.169H17.4142C17.4142 221.135 17.8258 220.144 18.5547 219.415C19.2867 218.686 20.2763 218.274 21.3068 218.274H39.0634L49.6037 188.331H54.1686Z" fill="white"/>
<path d="M62.4154 188.331L41.9601 189.994V188.331H62.4154Z" fill="white"/>
<path d="M70.7628 188.331L41.9601 190.67V189.994L62.4154 188.331H70.7628Z" fill="white"/>
<path d="M79.1102 188.331L41.9601 191.349V190.67L70.7628 188.331H79.1102Z" fill="#FEFEFF"/>
<path d="M87.0995 188.359L41.9601 192.028V191.349L79.1102 188.331H87.0995V188.359Z" fill="#FDFEFF"/>
<path d="M87.0995 189.038L41.9601 192.706V192.028L87.0995 188.359V189.038Z" fill="#FCFDFF"/>
<path d="M87.0995 189.714L41.9601 193.385V192.706L87.0995 189.038V189.714Z" fill="#FBFCFF"/>
<path d="M87.0995 190.393L41.9601 194.061V193.385L87.0995 189.714V190.393Z" fill="#FAFCFF"/>
<path d="M87.0995 191.072L41.9601 194.74V194.061L87.0995 190.393V191.072Z" fill="#F9FBFF"/>
<path d="M87.0995 191.751L41.9601 195.419V194.74L87.0995 191.072V191.751Z" fill="#F8FAFF"/>
<path d="M87.0995 192.43L41.9601 196.098V195.419L87.0995 191.751V192.43Z" fill="#F7FAFF"/>
<path d="M87.0995 193.109L41.9601 196.777V196.098L87.0995 192.43V193.109Z" fill="#F6F9FF"/>
<path d="M87.0995 193.785L41.9601 197.456V196.777L87.0995 193.109V193.785Z" fill="#F5F8FF"/>
<path d="M87.0995 194.464L41.9601 198.132V197.456L87.0995 193.785V194.464Z" fill="#F4F8FF"/>
<path d="M87.0995 195.143L41.9601 198.811V198.132L87.0995 194.464V195.143Z" fill="#F3F7FF"/>
<path d="M87.0995 195.821L41.9601 199.49V198.811L87.0995 195.143V195.821Z" fill="#F2F6FF"/>
<path d="M87.0995 196.5L41.9601 200.169V199.49L87.0995 195.821V196.5Z" fill="#F1F6FF"/>
<path d="M87.0995 197.179L41.9601 200.848V200.169L87.0995 196.5V197.179Z" fill="#F0F5FF"/>
<path d="M87.0995 197.855L41.9601 201.527V200.848L87.0995 197.179V197.855Z" fill="#EFF4FF"/>
<path d="M87.0995 198.534L41.9601 202.202V201.527L87.0995 197.855V198.534Z" fill="#EEF4FF"/>
<path d="M87.0995 199.213L41.9601 202.881V202.202L87.0995 198.534V199.213Z" fill="#EDF3FF"/>
<path d="M87.0995 199.892L41.9601 203.56V202.881L87.0995 199.213V199.892Z" fill="#ECF2FF"/>
<path d="M87.0995 200.571L41.9601 204.239V203.56L87.0995 199.892V200.571Z" fill="#EBF2FF"/>
<path d="M87.0995 201.247L41.9601 204.918V204.239L87.0995 200.571V201.247Z" fill="#EAF1FF"/>
<path d="M87.0995 201.926L41.9601 205.594V204.918L87.0995 201.247V201.926Z" fill="#E9F0FF"/>
<path d="M87.0995 202.605L41.9601 206.273V205.594L87.0995 201.926V202.605Z" fill="#E8F0FF"/>
<path d="M87.0995 203.284L41.9601 206.952V206.273L87.0995 202.605V203.284Z" fill="#E7EFFF"/>
<path d="M87.0995 203.963L41.9601 207.631V206.952L87.0995 203.284V203.963Z" fill="#E6EEFF"/>
<path d="M87.0995 204.642L41.9601 208.31V207.631L87.0995 203.963V204.642Z" fill="#E5EEFF"/>
<path d="M87.0995 205.317L41.9601 208.989V208.31L87.0995 204.642V205.317Z" fill="#E4EDFF"/>
<path d="M87.0995 205.996L41.9601 209.665V208.989L87.0995 205.317V205.996Z" fill="#E3EDFF"/>
<path d="M87.0995 206.675L41.9601 210.344V209.665L87.0995 205.996V206.675Z" fill="#E2ECFF"/>
<path d="M87.0995 207.354L41.9601 211.023V210.344L87.0995 206.675V207.354Z" fill="#E1EBFF"/>
<path d="M87.0995 208.033L41.9601 211.701V211.023L87.0995 207.354V208.033Z" fill="#E0EBFF"/>
<path d="M87.0995 208.712L41.9601 212.38V211.701L87.0995 208.033V208.712Z" fill="#DFEAFF"/>
<path d="M87.0995 209.388L41.9601 213.059V212.38L87.0995 208.712V209.388Z" fill="#DEE9FF"/>
<path d="M87.0995 210.067L41.9601 213.735V213.059L87.0995 209.388V210.067Z" fill="#DDE9FF"/>
<path d="M87.0995 210.746L41.9601 214.414V213.735L87.0995 210.067V210.746Z" fill="#DCE8FF"/>
<path d="M87.0995 211.425L41.9601 215.093V214.414L87.0995 210.746V211.425Z" fill="#DBE7FF"/>
<path d="M87.0995 212.104L41.9601 215.772V215.093L87.0995 211.425V212.104Z" fill="#DAE7FF"/>
<path d="M87.0995 212.78L41.9601 216.451V215.772L87.0995 212.104V212.78Z" fill="#D9E6FF"/>
<path d="M87.0995 213.459L41.9601 217.127V216.451L87.0995 212.78V213.459Z" fill="#D8E5FF"/>
<path d="M87.0995 214.138L41.9601 217.806V217.127L87.0995 213.459V214.138Z" fill="#D7E5FF"/>
<path d="M87.0995 214.816L41.9601 218.485V217.806L87.0995 214.138V214.816Z" fill="#D6E4FF"/>
<path d="M87.0995 215.495L41.9601 219.164V218.485L87.0995 214.816V215.495Z" fill="#D5E3FF"/>
<path d="M87.0995 216.174L41.9601 219.843V219.164L87.0995 215.495V216.174Z" fill="#D4E3FF"/>
<path d="M87.0995 216.85L41.9601 220.522V219.843L87.0995 216.174V216.85Z" fill="#D3E2FF"/>
<path d="M87.0995 217.529L41.9601 221.197V220.522L87.0995 216.85V217.529Z" fill="#D2E1FF"/>
<path d="M87.0995 218.208L41.9601 221.876V221.197L87.0995 217.529V218.208Z" fill="#D1E1FF"/>
<path d="M87.0995 218.887L46.7228 222.169H41.9601V221.876L87.0995 218.208V218.887Z" fill="#D0E0FF"/>
<path d="M87.0995 219.566L55.0702 222.169H46.7228L87.0995 218.887V219.566Z" fill="#CFDFFF"/>
<path d="M87.0995 220.245L63.4176 222.169H55.0702L87.0995 219.566V220.245Z" fill="#CEDFFF"/>
<path d="M87.0995 220.921L71.765 222.169H63.4176L87.0995 220.245V220.921Z" fill="#CDDEFF"/>
<path d="M87.0995 221.6L80.1093 222.169H71.765L87.0995 220.921V221.6Z" fill="#CCDDFF"/>
<path d="M80.1093 222.169L87.0995 221.6V222.169H80.1093Z" fill="#CBDDFF"/>
<path d="M145.849 88.2859C145.82 88.2859 145.792 88.2859 145.764 88.2859C142.77 88.2105 141.871 84.844 141.076 81.8767C140.53 79.8336 139.964 77.7213 138.94 77.7213C137.8 77.7213 137.382 78.35 136.678 79.5538C135.896 80.8897 134.916 82.5588 132.192 82.4834C129.418 82.408 128.651 79.6073 128.038 77.3535C127.42 75.0809 126.951 73.6979 125.692 73.6602C125.682 73.6602 125.673 73.6602 125.663 73.6602C124.137 73.6602 122.299 77.1964 120.822 80.0379C118.984 83.5773 117.244 86.9217 114.938 87.3021C111.218 87.915 109.207 84.2939 107.737 81.6536C107.385 81.0186 107.052 80.4214 106.725 79.9216C105.544 78.1079 101.699 78.46 100.316 78.7492C99.8923 78.8372 99.4745 78.5668 99.3865 78.1425C99.2985 77.7182 99.5687 77.3001 99.9929 77.2121C100.238 77.1618 106.028 75.9799 108.039 79.0666C108.394 79.6136 108.739 80.2359 109.107 80.8929C110.489 83.3761 112.051 86.1925 114.68 85.7556C116.213 85.5041 117.919 82.2162 119.427 79.3181C121.378 75.565 123.225 72.0162 125.739 72.0948C128.252 72.1702 128.943 74.7069 129.553 76.9449C130.219 79.3904 130.731 80.8772 132.233 80.918C134.03 80.9652 134.605 79.997 135.321 78.768C135.999 77.605 136.848 76.1591 138.94 76.1591C141.174 76.1591 141.896 78.8623 142.594 81.4775C143.408 84.5203 144.114 86.6797 145.805 86.7237C145.817 86.7237 145.827 86.7237 145.836 86.7237C147.287 86.7237 148.233 84.2405 149.232 81.6096C150.633 77.9256 152.38 73.3395 156.716 73.4873C157.149 73.503 157.488 73.8645 157.473 74.2982C157.457 74.732 157.093 75.0715 156.662 75.0558C153.436 74.9583 152.05 78.6171 150.699 82.1659C149.505 85.3092 148.374 88.2859 145.849 88.2859Z" fill="white"/>
<path d="M72.0918 87.4938C70.367 87.4938 68.6579 87.1638 67.0274 86.5006C63.3768 85.0138 60.5995 82.0402 59.2141 78.1331C57.8663 74.3328 58.0014 70.0831 59.5911 66.1728C62.9212 57.9908 71.6739 53.7945 79.1008 56.8215C82.7514 58.3083 85.5287 61.2818 86.9141 65.189C88.2619 68.9892 88.1268 73.239 86.5371 77.1492C84.9443 81.0626 82.076 84.1934 78.4568 85.9725C76.399 86.9846 74.2312 87.4938 72.0918 87.4938ZM74.0459 61.0272C70.1156 61.0272 66.176 63.765 64.3978 68.1311C63.2857 70.8626 63.182 73.7985 64.1025 76.398C64.9853 78.8906 66.7195 80.7703 68.9815 81.6913C71.2435 82.6123 73.7945 82.4771 76.1696 81.311C78.6453 80.0945 80.6182 77.9225 81.7304 75.191C82.8425 72.4594 82.9462 69.5236 82.0257 66.9241C81.1429 64.4314 79.4087 62.5517 77.1467 61.6307C76.1414 61.2221 75.0952 61.0272 74.0459 61.0272Z" fill="#FF967C"/>
<path d="M72.1043 87.497C70.3795 87.497 68.6642 87.1669 67.0274 86.5005C63.3768 85.0138 60.5995 82.0402 59.2141 78.1331C57.8663 74.3328 58.0014 70.0831 59.5911 66.1728C62.9212 57.9908 71.6739 53.7945 79.1008 56.8215C80.4297 57.3621 81.0675 58.8772 80.5271 60.2068C79.9867 61.5364 78.4725 62.1745 77.1435 61.6339C72.3651 59.6882 66.6472 62.6052 64.3978 68.1342C63.2857 70.8658 63.182 73.8016 64.1025 76.4011C64.9853 78.8937 66.7195 80.7734 68.9815 81.6944C71.6393 82.7757 74.6805 82.3954 77.3258 80.6509C78.5227 79.8619 80.1313 80.1919 80.9198 81.3895C81.7084 82.5871 81.3785 84.1965 80.1815 84.9855C77.6619 86.6483 74.8721 87.497 72.1043 87.497Z" fill="white"/>
<path d="M128.422 60.0025H104.275C103.408 60.0025 102.704 59.2984 102.704 58.4308C102.704 57.5633 103.408 56.8592 104.275 56.8592H128.422C129.289 56.8592 129.993 57.5633 129.993 58.4308C129.993 59.2984 129.289 60.0025 128.422 60.0025Z" fill="white"/>
<g opacity="0.6">
<path opacity="0.6" d="M112.955 66.6663H103.131C102.264 66.6663 101.561 65.9622 101.561 65.0947C101.561 64.2271 102.264 63.523 103.131 63.523H112.955C113.822 63.523 114.526 64.2271 114.526 65.0947C114.526 65.9622 113.822 66.6663 112.955 66.6663Z" fill="white"/>
</g>
<path d="M287.079 224.058C287.01 224.064 286.978 224.105 287.016 224.136C286.985 224.174 286.985 224.174 286.994 224.243C286.846 224.721 286.743 225.215 286.683 225.711L292.64 230.502L293.299 229.76C293.299 229.76 291.1 227.038 290.277 226.249C289.922 225.9 289.605 225.582 289.288 225.265C289.011 224.979 288.763 224.652 288.524 224.397C288.191 223.938 287.227 224.114 287.217 224.045C287.179 224.014 287.079 224.058 287.079 224.058Z" fill="#233B62"/>
<path d="M242.037 182.437L247.789 188.014L279.95 219.088L280.538 219.623L280.792 220.019L280.83 220.05L285.386 226.956L285.895 227.745L286.064 228.009L289.146 232.714L286.608 233.978L285.873 234.34L284.836 234.839L283.199 235.688L283.171 235.726L281.433 236.618L281.349 236.486L277.39 228.917C276.623 227.456 275.546 226.176 274.236 225.174L239.263 198.39L232.615 193.297L242.037 182.437Z" fill="#FFCCB3"/>
<path d="M284.946 220.308C283.403 219.591 281.672 218.95 279.982 219.051C281 219.943 281.465 221.534 282.14 222.694C283.526 225.079 287.079 229.511 285.263 233.28C284.242 235.399 281.389 236.521 281.348 236.49C280.871 238.665 278.505 247.513 283.224 242.383C285.86 239.52 288.474 236.458 289.787 233.422C290.327 232.177 289.187 230.935 288.628 229.882C287.911 228.292 286.843 226.183 286.978 224.422L287.007 224.385C287.085 224.262 293.196 229.735 293.299 229.763C293.51 229.423 294 228.735 294 228.735C294 228.735 285.238 220.418 284.946 220.308Z" fill="#1C85E8"/>
<path d="M219.137 249.258C219.081 249.214 219.034 249.22 219.04 249.27C218.99 249.277 218.99 249.277 218.949 249.333C218.509 249.572 218.091 249.852 217.702 250.166L218.613 257.757L219.602 257.688C219.602 257.688 219.932 254.205 219.894 253.061C219.885 252.564 219.882 252.115 219.876 251.665C219.879 251.266 219.929 250.861 219.938 250.512C220.02 249.952 219.206 249.402 219.25 249.346C219.241 249.295 219.137 249.258 219.137 249.258Z" fill="#233B62"/>
<path d="M216.033 187.992L216.244 196.001L217.513 240.717L217.56 241.509L217.466 241.968L217.472 242.019L215.901 250.141L215.713 251.062L215.65 251.37L214.566 256.89L211.867 256.016L211.088 255.761L209.998 255.393L208.239 254.856L208.189 254.862L206.322 254.287L206.354 254.133L208.814 245.951C209.288 244.367 209.411 242.701 209.175 241.066L202.898 197.45L201.704 189.158L216.033 187.992Z" fill="#FFCCB3"/>
<path d="M220.234 245.083C219.634 243.493 218.842 241.824 217.563 240.711C217.667 242.063 216.888 243.524 216.561 244.826C215.886 247.501 215.326 253.155 211.396 254.579C209.188 255.378 206.36 254.186 206.354 254.136C204.494 255.356 196.615 260.027 203.573 259.662C207.46 259.458 211.468 259.099 214.532 257.848C215.788 257.336 215.842 255.651 216.175 254.507C216.775 252.869 217.482 250.612 218.811 249.449L218.861 249.443C219.002 249.412 219.543 257.597 219.599 257.688C219.986 257.591 220.818 257.443 220.818 257.443C220.818 257.443 220.366 245.366 220.234 245.083Z" fill="#1C85E8"/>
<path d="M207.365 127.895L195.996 175.931L195.974 179.341L205.22 236.219L219.938 234.626L215.669 180.303L227.381 151.96L225.012 128.715L207.365 127.895Z" fill="#1F2D49"/>
<path d="M205.776 187.599C211.267 187.599 215.716 183.145 215.716 177.653C215.716 172.159 211.264 167.708 205.776 167.708C200.284 167.708 195.836 172.162 195.836 177.653C195.832 183.145 200.284 187.599 205.776 187.599Z" fill="#1F2D49"/>
<path d="M219.401 171.272L216.599 147.537L215.672 180.3L219.401 171.272Z" fill="#0D1B33"/>
<path d="M238.056 127.744C238.056 127.744 243.356 136.655 243.426 144.114C243.532 155.314 239.495 175.393 239.495 175.393L274.742 211.038L266.35 223.627C266.35 223.627 236.275 198.66 223.548 186.8L220.699 181.026L216.599 147.537L222.866 127.744H238.056Z" fill="#1F2D49"/>
<path d="M207.365 127.895L238.239 128.212L241.239 134.423L206.844 130.098L207.365 127.895Z" fill="#0D1B33"/>
<path d="M230.551 189.686C236.043 189.686 240.494 185.232 240.494 179.74C240.494 174.246 236.043 169.795 230.551 169.795C225.059 169.795 220.611 174.249 220.611 179.74C220.611 185.235 225.062 189.686 230.551 189.686Z" fill="#1F2D49"/>
<path d="M203.762 61.8853C203.762 61.8853 204.177 66.5029 202.958 70.9412C201.739 75.3795 192.521 84.778 200.696 92.4351C208.873 100.092 218.873 79.5538 218.873 79.5538L215.741 70.0674L204.912 58.7955L203.762 61.8853Z" fill="#1F2D49"/>
<path d="M228.707 62.9635C228.707 62.9635 231.16 66.0817 236.753 68.6309C242.238 71.1329 248.144 75.2444 246.928 84.2091C245.709 93.1738 229.492 86.2114 224.729 81.0752C219.964 75.9422 220.62 66.7732 220.62 66.7732L228.707 62.9635Z" fill="#1F2D49"/>
<path d="M216.165 79.7582C216.165 79.7582 209.942 82.2225 208.993 82.9832C208.044 83.7439 207.139 89.9519 205.524 92.8972C203.91 95.8456 201.547 101.283 204.997 106.281C208.449 111.276 208.082 115.246 208.082 115.246L207.347 127.778L237.092 128.328C237.356 128.338 237.617 128.291 237.858 128.19C238.1 128.09 238.317 127.939 238.499 127.75C238.678 127.558 238.814 127.332 238.901 127.084C238.986 126.835 239.018 126.571 238.996 126.31C238.666 122.655 237.155 117.525 237.035 111.707C236.875 103.82 236.756 77.4698 236.756 77.4698L223.796 77.0612C221.186 77.5107 216.165 79.7582 216.165 79.7582Z" fill="#FEBB94"/>
<path d="M231.654 88.2388C231.654 88.2388 227.318 92.1931 227.064 95.1289C226.809 98.0616 226.219 106.244 220.648 107.058C213.822 108.057 212.034 109.032 215.198 109.796C218.364 110.559 225.546 109.321 225.546 112.603C225.546 114.938 228.336 116.686 229.74 115.41C231.145 114.133 242.317 94.7454 231.654 88.2388Z" fill="#FF967C"/>
<path d="M179.373 91.555L177.023 88.5437C176.53 87.8396 175.877 87.2644 175.116 86.8652C173.96 86.2868 172.188 85.2055 171.573 84.1242C170.551 82.408 166.527 77.7716 170.017 74.1662C171.309 72.8366 170.988 73.1509 173.571 73.1918C176.153 73.2327 176.549 75.9139 177.84 77.6679C177.84 77.6679 178.129 75.6436 179.555 74.7194C180.982 73.7953 180.036 79.4438 181.133 81.5844C182.229 83.725 181.343 84.536 183.944 88.2985L179.373 91.555Z" fill="#FFCCB3"/>
<path d="M173.175 73.4998L175.273 78.2651L173.175 73.4998Z" fill="#E56441"/>
<path d="M175.277 78.4129C175.22 78.4129 175.163 78.3783 175.141 78.3248L173.043 73.5596C173.011 73.4841 173.043 73.3961 173.118 73.3647C173.194 73.3333 173.282 73.3647 173.313 73.4401L175.412 78.2054C175.443 78.2808 175.412 78.3688 175.336 78.4003C175.314 78.4097 175.295 78.4129 175.277 78.4129Z" fill="#E56441"/>
<path d="M170.438 74.3454L173.348 79.4187L170.438 74.3454Z" fill="#E56441"/>
<path d="M173.348 79.5696C173.297 79.5696 173.247 79.5413 173.219 79.4941L170.31 74.4208C170.269 74.3486 170.294 74.2574 170.363 74.2165C170.435 74.1757 170.526 74.2008 170.567 74.2731L173.476 79.3464C173.517 79.4187 173.492 79.5099 173.423 79.5507C173.398 79.5633 173.373 79.5696 173.348 79.5696Z" fill="#E56441"/>
<path d="M168.72 77.6836L171.013 80.7137L168.72 77.6836Z" fill="#E56441"/>
<path d="M171.013 80.8615C170.969 80.8615 170.925 80.8426 170.894 80.8018L168.6 77.7747C168.55 77.7087 168.563 77.6144 168.629 77.5673C168.695 77.517 168.786 77.5296 168.836 77.5956L171.13 80.6226C171.18 80.6886 171.167 80.7829 171.101 80.83C171.076 80.8489 171.045 80.8615 171.013 80.8615Z" fill="#E56441"/>
<path d="M177.3 78.746C177.3 78.746 176.411 81.2921 176.565 83.2975L177.3 78.746Z" fill="#E56441"/>
<path d="M176.565 83.4484C176.489 83.4484 176.423 83.3887 176.417 83.3101C176.263 81.2952 177.124 78.8026 177.158 78.6989C177.187 78.6203 177.268 78.5794 177.347 78.6077C177.425 78.636 177.466 78.7209 177.438 78.7963C177.429 78.8215 176.561 81.3361 176.712 83.2881C176.719 83.3698 176.659 83.4421 176.574 83.4484C176.571 83.4453 176.568 83.4484 176.565 83.4484Z" fill="#E56441"/>
<path d="M210.504 82.1628C208.091 82.9989 204.727 84.6963 203.819 86.5886L195.776 104.917L182.383 84.558L177.312 89.9016L189.819 115.784C192.103 121.476 197.912 123.614 202.116 117.481L208.836 106.923L210.504 82.1628Z" fill="#FEBB94"/>
<path d="M207.073 97.9422C207.073 97.9422 206.348 96.6912 206.348 103.223L202.113 117.484L208.833 106.926C214.227 99.671 209.967 97.7347 207.073 97.9422Z" fill="#FF967C"/>
<path d="M221.817 89.2918L199.602 98.1434C198.911 98.42 198.575 99.2027 198.852 99.891L209.97 127.819C210.246 128.511 211.026 128.847 211.717 128.571L233.931 119.719C234.623 119.442 234.959 118.66 234.682 117.971L223.564 90.0431C223.291 89.3547 222.508 89.0184 221.817 89.2918Z" fill="#1C85E8"/>
<path d="M202.992 101.4C202.744 101.4 202.505 101.249 202.408 101.004C202.279 100.68 202.436 100.315 202.76 100.187L211.921 96.5371C212.244 96.4082 212.609 96.5654 212.738 96.8892C212.867 97.2129 212.709 97.5776 212.386 97.7064L203.225 101.356C203.149 101.387 203.071 101.4 202.992 101.4Z" fill="white"/>
<path d="M204.378 104.681C204.13 104.681 203.891 104.531 203.793 104.285C203.665 103.962 203.822 103.597 204.145 103.468L208.321 101.805C208.644 101.676 209.009 101.834 209.137 102.157C209.266 102.481 209.109 102.846 208.786 102.975L204.61 104.637C204.532 104.669 204.453 104.681 204.378 104.681Z" fill="white"/>
<path d="M215.377 73.1918L215.725 82.9895C215.725 82.9895 215.248 85.1332 217.447 84.8975C219.646 84.6586 222.609 82.9266 224.277 81.0218C225.942 79.1169 225.829 78.9661 225.116 77.715C224.403 76.464 221.051 66.9398 221.051 66.9398L215.377 73.1918Z" fill="#FFCCB3"/>
<path d="M215.427 74.0153L219.486 71.4284C219.486 71.4284 217.689 79.3244 215.729 82.9895L215.427 74.0153Z" fill="#FCBA9F"/>
<path d="M204.488 58.5315C204.488 58.5315 204.422 68.282 208.628 73.1887C211.371 76.3886 214.255 75.9642 219.065 70.6961C223.476 65.8648 224.095 63.347 224.095 63.347L221.047 53.7819C221.047 53.7819 204.984 49.6579 204.488 58.5315Z" fill="#FFCCB3"/>
<path d="M208.672 56.2683C208.672 56.2683 210.435 60.5463 213.705 61.7439C216.976 62.9384 217.83 65.1638 217.83 65.1638C217.83 65.1638 218.459 61.505 221.029 61.637C223.598 61.7691 223.077 66.3111 221.481 67.8168C221.481 67.8168 223.401 71.3781 225.028 74.0122L232.156 66.9335C232.156 66.9335 228.484 62.6869 227.676 59.267C226.869 55.8502 224.255 46.7001 214.293 47.3067C202.596 48.0171 203.269 57.5287 203.765 62.8095C203.762 62.8126 207.431 61.4076 208.672 56.2683Z" fill="#1F2D49"/>
<path d="M209.939 70.1743L212.782 68.7786C212.785 68.7943 212.788 68.8132 212.788 68.8289C212.807 68.9798 212.816 69.1841 212.775 69.4104C212.697 69.8505 212.424 70.388 211.616 70.7338C211.098 70.9035 210.655 70.7369 210.331 70.5137C210.168 70.4037 210.039 70.2811 209.951 70.1837C209.945 70.1805 209.942 70.1774 209.939 70.1743Z" fill="#E56441"/>
<path d="M211.192 70.9569C210.868 70.9569 210.548 70.8501 210.243 70.6457C210.061 70.5232 209.92 70.3849 209.835 70.2937L209.69 70.1397L209.869 70.0328L212.904 68.5429L212.945 68.8101C212.964 68.9547 212.977 69.1841 212.933 69.4356C212.816 70.0737 212.383 70.5734 211.682 70.8752C211.516 70.9286 211.352 70.9569 211.192 70.9569ZM210.206 70.2183C210.268 70.2748 210.338 70.3314 210.419 70.3848C210.796 70.6426 211.183 70.7086 211.569 70.5829C212.166 70.3251 212.524 69.9196 212.622 69.379C212.647 69.247 212.65 69.1212 212.647 69.0175L210.206 70.2183Z" fill="#E56441"/>
<path d="M206.841 66.2137C207.199 66.1257 207.384 65.6227 207.256 65.0947C207.127 64.5666 206.728 64.2082 206.366 64.2963C206.008 64.3843 205.823 64.8872 205.952 65.4153C206.084 65.9433 206.48 66.3017 206.841 66.2137Z" fill="#080B09"/>
<path d="M212.169 64.9784C212.527 64.8903 212.713 64.3874 212.584 63.8593C212.452 63.3313 212.056 62.9729 211.698 63.0609C211.34 63.1489 211.154 63.6519 211.283 64.18C211.412 64.708 211.808 65.0664 212.169 64.9784Z" fill="#080B09"/>
<path d="M204.774 63.3564L207.485 62.734C207.529 62.7183 207.57 62.69 207.595 62.6492C207.62 62.6083 207.629 62.5612 207.62 62.514C207.589 62.4354 207.545 62.3631 207.485 62.3003C207.425 62.2374 207.356 62.1902 207.278 62.1557C207.199 62.1211 207.114 62.1054 207.029 62.1054C206.945 62.1054 206.86 62.1242 206.781 62.1557L204.654 63.0578C204.475 63.1018 204.551 63.4098 204.774 63.3564Z" fill="#080B09"/>
<path d="M213.878 60.9266L210.347 62.0331C210.322 61.9231 210.322 61.8099 210.347 61.6967C210.369 61.5867 210.416 61.483 210.482 61.3887C210.548 61.2975 210.633 61.2221 210.73 61.1624C210.828 61.1027 210.934 61.0681 211.048 61.0555L213.869 60.6877C213.957 60.6752 214.01 60.8952 213.878 60.9266Z" fill="#080B09"/>
<path d="M208.742 64.4409L208.358 67.3013L209.37 67.7885" fill="#E56441"/>
<path d="M209.37 67.9393C209.348 67.9393 209.326 67.9331 209.304 67.9236L208.198 67.3893L208.594 64.422C208.603 64.3403 208.685 64.2837 208.76 64.2931C208.842 64.3025 208.899 64.378 208.889 64.4597L208.522 67.2132L209.436 67.6533C209.511 67.6879 209.54 67.779 209.505 67.8513C209.477 67.9079 209.423 67.9393 209.37 67.9393Z" fill="#E56441"/>
<path d="M211.431 114.602L202.672 117.116L201.601 122.517L203.592 128.492C203.592 128.492 204.994 127.549 204.701 125.349C204.409 123.148 211.811 123.211 213.168 120.445" fill="#FFCCB3"/>
<path d="M231.437 84.8377C231.437 84.8377 231.38 77.4164 237.321 77.4133C241.308 77.4133 243.215 79.2835 243.724 85.1175C244.079 89.1975 244.337 111.581 244.337 111.581C244.337 111.581 245.339 121.797 236.677 121.988L211.67 121.24L211.104 114.25L232.904 112.074L231.437 84.8377Z" fill="#FEBB94"/>
<path d="M213.35 83.9105C213.35 83.9105 215.606 83.2692 215.238 81.0532C214.883 78.8718 214.868 76.9795 215.584 77.2435C215.584 77.2435 216.216 78.328 220.14 77.1241C224.038 75.9642 223.793 74.6283 223.793 74.6283C223.793 74.6283 224.346 74.138 224.758 75.3953C225.169 76.6495 226.215 80.1259 228.421 79.8776L229.018 86.356L217.274 90.2254C217.252 90.2631 211.824 85.0012 213.35 83.9105Z" fill="#FEBB94"/>
<path d="M124.95 214.006H117.561C117.127 214.006 116.776 213.653 116.776 213.22C116.776 212.786 117.127 212.434 117.561 212.434H124.95C125.384 212.434 125.736 212.786 125.736 213.22C125.736 213.653 125.384 214.006 124.95 214.006Z" fill="white"/>
<g opacity="0.5">
<path opacity="0.5" d="M122.76 217.215H119.066C118.632 217.215 118.28 216.863 118.28 216.429C118.28 215.995 118.632 215.643 119.066 215.643H122.76C123.194 215.643 123.546 215.995 123.546 216.429C123.546 216.863 123.194 217.215 122.76 217.215Z" fill="white"/>
</g>
<path d="M112.638 207.838C112.314 207.838 111.997 207.684 111.799 207.401C111.476 206.939 111.589 206.301 112.054 205.977L117.724 202.023C118.07 201.784 118.526 201.778 118.874 202.011L122.277 204.277L127.017 200.841C127.473 200.508 128.114 200.612 128.444 201.071C128.774 201.527 128.673 202.168 128.214 202.498L122.899 206.348C122.553 206.6 122.088 206.609 121.733 206.37L118.318 204.095L113.219 207.653C113.043 207.779 112.842 207.838 112.638 207.838Z" fill="white"/>
<path d="M129.185 206.609C128.62 206.609 128.164 206.15 128.164 205.588V201.011H123.53C122.965 201.011 122.509 200.552 122.509 199.99C122.509 199.427 122.968 198.968 123.53 198.968H129.185C129.751 198.968 130.206 199.427 130.206 199.99V205.588C130.206 206.15 129.751 206.609 129.185 206.609Z" fill="white"/>
<path d="M190.482 26.1648H168.566C168.299 26.1743 168.032 26.124 167.787 26.0108C167.542 25.9008 167.328 25.7342 167.162 25.5236C166.992 25.3162 166.876 25.071 166.819 24.8069C166.763 24.546 166.769 24.2726 166.835 24.0148L170.203 6.68895C170.332 6.098 170.655 5.56364 171.12 5.17702C171.585 4.78725 172.166 4.56407 172.769 4.53893H194.683C194.95 4.5295 195.217 4.57979 195.462 4.69295C195.707 4.80611 195.92 4.96956 196.087 5.18016C196.257 5.38762 196.373 5.63594 196.429 5.89683C196.486 6.15773 196.48 6.43119 196.414 6.69209L193.049 24.0148C192.92 24.6058 192.597 25.1401 192.132 25.5299C191.67 25.9165 191.089 26.1397 190.482 26.1648Z" fill="#1C85E8"/>
<path d="M175.452 9.22244L190.045 9.22559C190.149 9.22244 190.253 9.2413 190.35 9.28217C190.444 9.32617 190.529 9.38904 190.598 9.47076C190.664 9.55249 190.712 9.64679 190.737 9.74737C190.762 9.8511 190.762 9.95483 190.737 10.0586L190.536 11.1524C190.501 11.3096 190.432 11.4605 190.331 11.5862C190.231 11.7151 190.102 11.8157 189.954 11.8848L181.959 15.7354C181.836 15.8014 181.698 15.836 181.557 15.8328C181.415 15.8328 181.28 15.7982 181.158 15.7291L174.582 11.7654C174.463 11.6899 174.369 11.5799 174.315 11.4479C174.262 11.3159 174.249 11.1713 174.281 11.033L174.46 10.0554C174.507 9.82596 174.633 9.6185 174.812 9.46762C174.991 9.31674 175.217 9.23187 175.452 9.22244Z" fill="white"/>
<path d="M174.727 13.2019L181.02 17.1498C181.104 17.197 181.202 17.2221 181.299 17.2221C181.397 17.2221 181.494 17.197 181.579 17.1498L189.314 13.205C189.728 12.9913 190.149 13.2616 190.071 13.6922L188.921 19.982C188.833 20.3969 188.61 20.7678 188.286 21.0381C187.963 21.3084 187.557 21.4625 187.133 21.4782L173.885 21.475C173.696 21.4845 173.511 21.4467 173.338 21.3713C173.165 21.2959 173.015 21.1796 172.895 21.035C172.776 20.8904 172.691 20.7206 172.647 20.5352C172.603 20.3529 172.603 20.1611 172.647 19.9788L173.797 13.6891C173.816 13.5885 173.857 13.4942 173.916 13.4125C173.976 13.3307 174.054 13.2647 174.146 13.2176C174.237 13.1704 174.334 13.1453 174.438 13.1421C174.535 13.139 174.636 13.161 174.727 13.2019Z" fill="white"/>
<path d="M195.443 9.07472C197.947 9.07472 199.979 7.04414 199.979 4.53579C199.979 2.02743 197.95 0 195.443 0C192.939 0 190.906 2.03057 190.906 4.53893C190.906 7.04729 192.939 9.07472 195.443 9.07472Z" fill="#FF967C"/>
<path d="M195.76 104.914L199.521 110.503L197.516 100.953L195.76 104.914Z" fill="#FF967C"/>
</g>
<defs>
<clipPath id="clip0_4_144">
<rect width="294" height="278" fill="white"/>
</clipPath>
</defs>
</svg>
