<svg width="350" height="278" viewBox="0 0 350 278" fill="none" xmlns="http://www.w3.org/2000/svg">
<g clip-path="url(#clip0_6_848)">
<path d="M174.801 278C271.345 278 349.606 276.004 349.606 273.546C349.606 271.085 271.345 269.092 174.801 269.092C78.2615 269.092 0 271.085 0 273.546C0 276.007 78.2615 278 174.801 278Z" fill="#F5F8FF"/>
<path d="M141.385 128.211C145.058 124.16 144.017 123.078 145.741 120.686C147.433 118.355 147.062 111.489 148.675 112.797C150.291 114.104 150.298 116.563 150.298 116.563C152.072 114.658 154.187 110.879 157.285 111.129C160.383 111.374 160.422 112.377 161.786 114.163C165.396 118.971 158.31 123.222 156.842 125.136C155.905 126.329 150.396 129.341 149.68 130.115L146.612 132.871L141.385 128.211Z" fill="#FFCCB3"/>
<path d="M153.228 117.742C153.185 117.742 153.143 117.726 153.11 117.697C153.037 117.631 153.031 117.52 153.097 117.447L158.336 111.61C158.402 111.538 158.514 111.532 158.586 111.597C158.658 111.663 158.665 111.774 158.599 111.846L153.359 117.683C153.323 117.723 153.277 117.742 153.228 117.742Z" fill="#EF6A77"/>
<path d="M155.353 119.398C155.307 119.398 155.261 119.381 155.225 119.345C155.156 119.276 155.16 119.165 155.229 119.096L160.685 113.796C160.754 113.728 160.869 113.731 160.935 113.8C161.004 113.868 161.001 113.98 160.932 114.049L155.475 119.348C155.442 119.381 155.396 119.398 155.353 119.398Z" fill="#EF6A77"/>
<path d="M157.899 121.269C157.853 121.269 157.811 121.253 157.775 121.22C157.706 121.151 157.702 121.04 157.771 120.971L160.941 117.729C161.01 117.661 161.122 117.657 161.191 117.726C161.26 117.795 161.263 117.906 161.194 117.975L158.024 121.217C157.991 121.253 157.945 121.269 157.899 121.269Z" fill="#EF6A77"/>
<path d="M86.3527 160.979L55.6138 271.068H61.8753L97.4039 160.979H86.3527V160.979Z" fill="#D1E8F7"/>
<path d="M86.3527 160.979L84.0959 169.061L95.873 165.724L97.4039 160.979H86.3527Z" fill="#5CA4E6"/>
<path d="M304.774 248.634L288.122 270.718C287.731 271.239 287.146 271.583 286.502 271.671C285.855 271.763 285.198 271.593 284.679 271.203L283.132 270.042L302.74 244.032L304.288 245.193C304.81 245.583 305.152 246.166 305.244 246.812C305.336 247.457 305.168 248.113 304.774 248.634Z" fill="#5661AE"/>
<path d="M289.068 235.701L295.07 240.568L288.973 249.958L282.202 244.803L289.068 235.701Z" fill="#BC775C"/>
<path d="M291.732 238.074L284.255 246.212L282.435 244.78L289.439 236.196L291.732 238.074Z" fill="#93523E"/>
<path d="M284.272 246.432L282.202 244.803L289.416 235.96L291.972 238.054L284.272 246.432ZM282.668 244.754L284.239 245.989L291.495 238.09L289.465 236.426L282.668 244.754Z" fill="#93523E"/>
<path d="M294.265 239.965C294.265 239.965 292.58 245.881 287.024 248.909L282.008 268.476C282.169 269.6 283.427 270.321 284.262 270.586C284.446 270.645 284.643 270.642 284.827 270.583C285.011 270.524 285.168 270.409 285.283 270.255L303.085 246.648C303.381 246.255 303.512 245.76 303.45 245.271C303.384 244.783 303.131 244.337 302.74 244.036C301.187 242.82 298.798 240.984 297.767 240.355C296.167 239.382 295.03 239.159 294.265 239.965Z" fill="#1C85E8"/>
<path d="M285.865 252.967L288.72 252.357C288.825 252.334 288.933 252.338 289.035 252.367C289.137 252.397 289.229 252.449 289.308 252.524C289.383 252.596 289.442 252.692 289.475 252.79C289.508 252.891 289.515 253 289.495 253.104C289.472 253.232 289.413 253.35 289.321 253.445C289.229 253.537 289.114 253.603 288.986 253.629L285.48 254.334L285.865 252.967Z" fill="white"/>
<path d="M285.191 256.067L288.03 255.448C288.135 255.425 288.243 255.428 288.345 255.458C288.447 255.487 288.542 255.54 288.618 255.615C288.697 255.69 288.752 255.782 288.785 255.88C288.818 255.982 288.825 256.09 288.808 256.195C288.785 256.323 288.723 256.441 288.631 256.536C288.542 256.628 288.424 256.693 288.296 256.72L284.84 257.434L285.191 256.067Z" fill="white"/>
<path d="M284.324 259.443L287.133 258.817C287.238 258.794 287.346 258.797 287.448 258.827C287.55 258.856 287.645 258.909 287.721 258.984C287.796 259.056 287.856 259.148 287.888 259.25C287.921 259.351 287.928 259.459 287.908 259.564C287.885 259.692 287.826 259.81 287.734 259.905C287.642 260 287.527 260.063 287.399 260.089L283.982 260.777L284.324 259.443Z" fill="white"/>
<path d="M231.999 209.963L279.525 248.162L290.365 235.557L248.812 196.663L231.999 209.963Z" fill="#1F2D49"/>
<path d="M257.491 204.785V230.451L279.525 248.162L282.688 228.37L257.491 204.785Z" fill="#0D1B33"/>
<path d="M236.217 139.734L228.405 201.884H250.248L269.219 140.046L236.217 139.734Z" fill="#1F2D49"/>
<path d="M254.972 186.487L258.641 155.656H267.662L254.972 186.487Z" fill="#0D1B33"/>
<path d="M274.577 272.13H246.877C246.223 272.13 245.599 271.871 245.136 271.412C244.673 270.954 244.416 270.328 244.416 269.675V267.745H277.038V269.675C277.038 270.328 276.778 270.95 276.318 271.412C275.855 271.874 275.231 272.13 274.577 272.13Z" fill="#5661AE"/>
<path d="M275.494 251.833L275.205 259.548L264.015 260.328L264.075 251.833H275.494Z" fill="#BC775C"/>
<path d="M275.198 255.386L264.183 254.314L264.236 252.003L275.323 252.426L275.198 255.386Z" fill="#93523E"/>
<path d="M275.356 255.566L264.015 254.465L264.075 251.836L264.242 251.843L275.494 252.272L275.356 255.566ZM264.351 254.166L275.04 255.205L275.152 252.583L264.397 252.174L264.351 254.166Z" fill="#93523E"/>
<path d="M275.205 258.542C275.205 258.542 269.452 260.754 263.687 258.145L244.998 265.906C244.193 266.709 244.374 268.145 244.66 268.971C244.722 269.151 244.843 269.308 245.001 269.42C245.159 269.531 245.346 269.59 245.54 269.587H275.152C275.648 269.587 276.121 269.393 276.476 269.049C276.827 268.705 277.031 268.236 277.041 267.742C277.08 265.769 277.113 262.763 276.998 261.56C276.814 259.709 276.308 258.666 275.205 258.542Z" fill="#1C85E8"/>
<path d="M259.738 259.659L261.943 261.567C262.021 261.636 262.084 261.724 262.123 261.823C262.163 261.921 262.176 262.029 262.163 262.134C262.15 262.239 262.11 262.34 262.051 262.429C261.989 262.517 261.91 262.586 261.814 262.635C261.696 262.694 261.565 262.717 261.437 262.701C261.305 262.684 261.184 262.629 261.088 262.544L258.418 260.174L259.738 259.659Z" fill="white"/>
<path d="M256.847 260.987L259.048 262.881C259.127 262.95 259.19 263.038 259.229 263.14C259.268 263.238 259.282 263.347 259.268 263.451C259.255 263.556 259.216 263.658 259.153 263.746C259.091 263.835 259.012 263.904 258.917 263.953C258.802 264.012 258.667 264.035 258.539 264.018C258.408 264.002 258.286 263.946 258.191 263.861L255.54 261.534L256.847 260.987Z" fill="white"/>
<path d="M253.625 262.324L255.812 264.186C255.891 264.254 255.954 264.343 255.993 264.444C256.033 264.543 256.046 264.651 256.033 264.756C256.019 264.861 255.98 264.962 255.918 265.048C255.855 265.136 255.776 265.205 255.681 265.254C255.566 265.313 255.431 265.336 255.303 265.32C255.172 265.303 255.05 265.247 254.955 265.162L252.353 262.855L253.625 262.324Z" fill="white"/>
<path d="M282.471 140.046C282.291 143.198 282.291 146.358 282.471 149.508C283.197 159.694 280.875 189.447 280.894 193.36C280.911 197.276 278.329 252.413 278.329 252.413H262.626C262.626 252.413 258.611 205.028 258.519 199.603C258.427 194.179 257.491 140.268 257.491 140.268L282.471 140.046Z" fill="#1F2D49"/>
<path d="M235.744 143.497L282.471 149.507V140.046L235.987 141.57L235.744 143.497Z" fill="#0D1B33"/>
<path d="M239.325 212.779C245.356 212.779 250.244 207.902 250.244 201.884C250.244 195.867 245.356 190.99 239.325 190.99C233.293 190.99 228.405 195.867 228.405 201.884C228.405 207.902 233.293 212.779 239.325 212.779Z" fill="#1F2D49"/>
<path d="M163.839 155.656L33.9977 155.915V155.656H163.839Z" fill="white"/>
<path d="M217.074 155.656L33.9977 156.023V155.915L163.839 155.656H217.074Z" fill="white"/>
<path d="M270.306 155.656L33.9977 156.128V156.023L217.074 155.656H270.306Z" fill="#FEFEFF"/>
<path d="M320.71 155.659L33.9977 156.236V156.128L270.306 155.656H320.71V155.659Z" fill="#FDFEFF"/>
<path d="M320.71 155.767L33.9977 156.341V156.236L320.71 155.659V155.767Z" fill="#FCFDFF"/>
<path d="M320.71 155.872L33.9977 156.449V156.341L320.71 155.767V155.872Z" fill="#FBFCFF"/>
<path d="M320.71 155.98L33.9977 156.554V156.449L320.71 155.872V155.98Z" fill="#FAFCFF"/>
<path d="M320.71 156.089L33.9977 156.662V156.554L320.71 155.98V156.089Z" fill="#F9FBFF"/>
<path d="M320.71 156.194L33.9977 156.77V156.662L320.71 156.089V156.194Z" fill="#F8FAFF"/>
<path d="M320.71 156.302L33.9977 156.875V156.77L320.71 156.193V156.302Z" fill="#F7FAFF"/>
<path d="M320.71 156.407L33.9977 156.983V156.875L320.71 156.302V156.407Z" fill="#F6F9FF"/>
<path d="M320.71 156.515L33.9977 157.088V156.983L320.71 156.407V156.515Z" fill="#F5F8FF"/>
<path d="M320.71 156.62L33.9977 157.196V157.088L320.71 156.515V156.62Z" fill="#F4F8FF"/>
<path d="M320.71 156.728L33.9977 157.301V157.196L320.71 156.62V156.728Z" fill="#F3F7FF"/>
<path d="M320.71 156.836L33.9977 157.409V157.301L320.71 156.728V156.836Z" fill="#F2F6FF"/>
<path d="M320.71 156.941L33.9977 157.514V157.409L320.71 156.836V156.941Z" fill="#F1F6FF"/>
<path d="M320.71 157.049L33.9977 157.622V157.514L320.71 156.941V157.049Z" fill="#F0F5FF"/>
<path d="M320.71 157.154L33.9977 157.731V157.622L320.71 157.049V157.154Z" fill="#EFF4FF"/>
<path d="M320.71 157.262L33.9977 157.835V157.731L320.71 157.154V157.262Z" fill="#EEF4FF"/>
<path d="M320.71 157.367L33.9977 157.944V157.836L320.71 157.262V157.367Z" fill="#EDF3FF"/>
<path d="M320.71 157.475L33.9977 158.049V157.944L320.71 157.367V157.475Z" fill="#ECF2FF"/>
<path d="M320.71 157.58L33.9977 158.157V158.049L320.71 157.475V157.58Z" fill="#EBF2FF"/>
<path d="M320.71 157.688L33.9977 158.262V158.157L320.71 157.58V157.688Z" fill="#EAF1FF"/>
<path d="M320.71 157.796L33.9977 158.37V158.262L320.71 157.688V157.796Z" fill="#E9F0FF"/>
<path d="M320.71 157.901L33.9977 158.475V158.37L320.71 157.796V157.901Z" fill="#E8F0FF"/>
<path d="M320.71 158.009L33.9977 158.583V158.475L320.71 157.901V158.009Z" fill="#E7EFFF"/>
<path d="M320.71 158.114L33.9977 158.691V158.583L320.71 158.009V158.114Z" fill="#E6EEFF"/>
<path d="M320.71 158.222L33.9977 158.796V158.691L320.71 158.114V158.222Z" fill="#E5EEFF"/>
<path d="M320.71 158.327L33.9977 158.904V158.796L320.71 158.222V158.327Z" fill="#E4EDFF"/>
<path d="M320.71 158.435L33.9977 159.009V158.904L320.71 158.327V158.435Z" fill="#E3EDFF"/>
<path d="M320.71 158.54L33.9977 159.117V159.009L320.71 158.435V158.54Z" fill="#E2ECFF"/>
<path d="M320.71 158.648L33.9977 159.222V159.117L320.71 158.54V158.648Z" fill="#E1EBFF"/>
<path d="M320.71 158.756L33.9977 159.33V159.222L320.71 158.648V158.756Z" fill="#E0EBFF"/>
<path d="M320.71 158.861L33.9977 159.438V159.33L320.71 158.756V158.861Z" fill="#DFEAFF"/>
<path d="M320.71 158.97L33.9977 159.543V159.438L320.71 158.861V158.97Z" fill="#DEE9FF"/>
<path d="M320.71 159.074L33.9977 159.651V159.543L320.71 158.969V159.074Z" fill="#DDE9FF"/>
<path d="M320.71 159.183L33.9977 159.756V159.651L320.71 159.074V159.183Z" fill="#DCE8FF"/>
<path d="M320.71 159.287L33.9977 159.864V159.756L320.71 159.183V159.287Z" fill="#DBE7FF"/>
<path d="M320.71 159.396L33.9977 159.969V159.864L320.71 159.287V159.396Z" fill="#DAE7FF"/>
<path d="M320.71 159.504L33.9977 160.077V159.969L320.71 159.396V159.504Z" fill="#D9E6FF"/>
<path d="M320.71 159.609L33.9977 160.182V160.077L320.71 159.504V159.609Z" fill="#D8E5FF"/>
<path d="M320.71 159.717L33.9977 160.29V160.182L320.71 159.609V159.717Z" fill="#D7E5FF"/>
<path d="M320.71 159.822L33.9977 160.398V160.29L320.71 159.717V159.822Z" fill="#D6E4FF"/>
<path d="M320.71 159.93L33.9977 160.503V160.398L320.71 159.822V159.93Z" fill="#D5E3FF"/>
<path d="M320.71 160.035L33.9977 160.611V160.503L320.71 159.93V160.035Z" fill="#D4E3FF"/>
<path d="M320.71 160.143L33.9977 160.716V160.612L320.71 160.035V160.143Z" fill="#D3E2FF"/>
<path d="M320.71 160.248L33.9977 160.825V160.716L320.71 160.143V160.248Z" fill="#D2E1FF"/>
<path d="M320.71 160.356L33.9977 160.929V160.825L320.71 160.248V160.356Z" fill="#D1E1FF"/>
<path d="M320.71 160.464L63.8234 160.979H33.9977V160.929L320.71 160.356V160.464Z" fill="#D0E0FF"/>
<path d="M320.71 160.569L117.055 160.979H63.8234L320.71 160.464V160.569Z" fill="#CFDFFF"/>
<path d="M320.71 160.677L170.291 160.979H117.056L320.71 160.569V160.677Z" fill="#CEDFFF"/>
<path d="M320.71 160.782L223.523 160.979H170.291L320.71 160.677V160.782Z" fill="#CDDEFF"/>
<path d="M320.71 160.89L276.758 160.979H223.523L320.71 160.782V160.89Z" fill="#CCDDFF"/>
<path d="M276.758 160.979L320.71 160.89V160.979H276.758Z" fill="#CBDDFF"/>
<path fill-rule="evenodd" clip-rule="evenodd" d="M171.579 265.464C167.341 263.969 162.975 262.432 158.951 262.717C158.859 262.724 158.773 262.75 158.691 262.793C158.612 262.835 158.54 262.898 158.487 262.97C158.435 263.042 158.396 263.127 158.376 263.215C158.356 263.304 158.359 263.396 158.379 263.484L160.064 270.59C160.097 270.737 160.186 270.865 160.307 270.954C160.429 271.042 160.58 271.081 160.731 271.068L188.1 268.433C190.117 268.24 191.092 267.047 191.237 265.405C191.24 265.349 191.227 265.293 191.201 265.244C191.174 265.195 191.132 265.156 191.082 265.126C191.033 265.1 190.977 265.087 190.918 265.093C190.862 265.097 190.807 265.12 190.764 265.152C187.745 267.411 183.957 268.404 180.215 267.912C177.515 267.555 174.578 266.519 171.579 265.464Z" fill="#5661AE"/>
<path fill-rule="evenodd" clip-rule="evenodd" d="M156.773 244.963C156.773 244.963 159.595 256.13 159.673 257.326C159.68 257.991 159.637 258.657 159.545 259.315C159.42 260.502 159.279 261.823 159.489 262.688C163.363 262.567 167.528 264.035 171.575 265.461C174.575 266.519 177.512 267.552 180.212 267.899C183.773 268.364 187.383 267.493 190.333 265.447C190.209 263.409 188.274 261.688 184.696 261.724C178.287 261.786 174.742 261.672 171.207 257.365C168.694 254.307 167.482 241.401 167.482 241.401L156.773 244.963Z" fill="#FFCCB3"/>
<path fill-rule="evenodd" clip-rule="evenodd" d="M170.396 255.589C169.217 255.864 164.519 256.939 159.933 257.686C159.043 257.831 158.76 259.666 159.434 260.577C159.897 261.252 160.307 261.96 160.656 262.701C162.252 262.796 163.836 263.055 165.38 263.474C164.565 261.734 165.436 260.594 167.114 260.184C168.438 259.859 171.638 259.804 173.294 259.797C173.386 259.797 173.474 259.771 173.55 259.722C173.625 259.673 173.688 259.604 173.724 259.518C173.763 259.437 173.776 259.345 173.763 259.253C173.75 259.165 173.714 259.079 173.655 259.01L170.866 255.743C170.81 255.677 170.734 255.628 170.652 255.599C170.57 255.572 170.481 255.569 170.396 255.589Z" fill="white"/>
<path fill-rule="evenodd" clip-rule="evenodd" d="M187.157 267.112C184.226 268.246 182.177 268.01 182.177 268.01L181.552 261.554L186.595 261.301L187.157 267.112Z" fill="white"/>
<path d="M154.108 199.915C158.97 198.46 161.73 193.35 160.271 188.499C158.813 183.649 153.691 180.896 148.829 182.351C143.967 183.806 141.208 188.916 142.666 193.766C144.125 198.62 149.246 201.37 154.108 199.915Z" fill="#FFCCB3"/>
<path d="M154.187 182.377L138.954 177.176L131.865 196.234L151.572 199.656L154.187 182.377Z" fill="#FFCCB3"/>
<path d="M160.577 189.918L168.31 247.575L158.277 251.04L143.113 196.296L160.577 189.918Z" fill="#FFCCB3"/>
<path fill-rule="evenodd" clip-rule="evenodd" d="M128.81 269.459C124.808 267.42 120.682 265.32 116.655 265.074C116.563 265.067 116.474 265.08 116.389 265.113C116.303 265.146 116.228 265.195 116.165 265.261C116.103 265.326 116.054 265.405 116.024 265.49C115.994 265.575 115.985 265.667 115.991 265.759L116.724 273.025C116.74 273.176 116.809 273.313 116.918 273.418C117.026 273.52 117.17 273.582 117.322 273.585L144.798 274.572C146.825 274.644 147.949 273.592 148.307 271.983C148.317 271.927 148.313 271.871 148.294 271.815C148.274 271.763 148.238 271.717 148.192 271.684C148.146 271.652 148.09 271.632 148.034 271.629C147.978 271.625 147.923 271.638 147.873 271.668C144.582 273.51 140.695 273.995 137.052 273.015C134.417 272.317 131.645 270.904 128.81 269.459Z" fill="#5661AE"/>
<path fill-rule="evenodd" clip-rule="evenodd" d="M116.845 247.192C116.845 247.192 118.169 258.63 118.087 259.83C118.005 260.492 117.877 261.144 117.699 261.786C117.417 262.947 117.105 264.235 117.197 265.123C121.05 265.513 124.986 267.515 128.81 269.462C131.645 270.904 134.417 272.317 137.049 273.015C140.518 273.946 144.21 273.556 147.407 271.917C147.555 269.879 145.859 267.922 142.312 267.486C135.952 266.703 132.45 266.123 129.516 261.39C127.43 258.027 127.933 245.075 127.933 245.075L116.845 247.192Z" fill="#FCBA9F"/>
<path fill-rule="evenodd" clip-rule="evenodd" d="M128.941 259.515C127.735 259.633 122.936 260.082 118.294 260.217C117.391 260.243 116.868 262.026 117.417 263.019C117.788 263.746 118.1 264.507 118.347 265.287C119.917 265.592 121.451 266.054 122.926 266.673C122.348 264.841 123.363 263.825 125.081 263.638C126.438 263.491 129.618 263.858 131.26 264.068C131.352 264.081 131.441 264.064 131.523 264.025C131.605 263.986 131.674 263.923 131.724 263.848C131.773 263.773 131.796 263.681 131.796 263.592C131.796 263.501 131.77 263.412 131.72 263.337L129.388 259.731C129.342 259.659 129.273 259.6 129.194 259.561C129.118 259.522 129.03 259.505 128.941 259.515Z" fill="white"/>
<path fill-rule="evenodd" clip-rule="evenodd" d="M144.033 273.146C140.978 273.884 138.977 273.379 138.977 273.379L139.21 266.896L144.243 267.309L144.033 273.146Z" fill="white"/>
<path d="M118.695 202.484C114.178 202.484 110.186 199.207 109.447 194.615C109.05 192.15 109.641 189.679 111.106 187.654C112.571 185.628 114.743 184.298 117.213 183.904C119.684 183.511 122.161 184.098 124.191 185.559C126.218 187.021 127.555 189.188 127.949 191.652C128.767 196.742 125.285 201.547 120.183 202.363C119.684 202.445 119.188 202.484 118.695 202.484ZM118.721 184.144C118.241 184.144 117.759 184.183 117.276 184.258C114.9 184.639 112.814 185.92 111.405 187.864C109.996 189.81 109.427 192.186 109.809 194.556C110.597 199.449 115.226 202.792 120.13 202.006C125.035 201.219 128.386 196.601 127.597 191.708C127.216 189.338 125.932 187.257 123.984 185.851C122.427 184.73 120.6 184.144 118.721 184.144Z" fill="#5CA4E6"/>
<path d="M127.89 193.127L127.933 251.299L117.532 253.413L109.736 197.152L127.89 193.127Z" fill="#FCBA9F"/>
<path d="M100.663 171.889C100.663 171.889 97.8671 185.543 101.53 191.249C106.169 198.473 111.842 199.577 116.037 199.656L138.691 197.706C138.691 197.706 138.54 184.711 146.934 179.857C146.93 179.853 112.542 167.193 100.663 171.889Z" fill="#5661AE"/>
<path d="M91.9407 102.227L90.1405 111.397L79.7267 110.693L81.7207 100.946L91.9407 102.227Z" fill="#FFCCB3"/>
<path d="M91.8356 102.761L90.9618 107.215C90.9618 107.215 88.5669 105.18 88.107 102.004L91.8356 102.761Z" fill="#FCBA9F"/>
<path d="M76.5138 113.298C76.5138 113.298 78.8857 107.124 80.3015 107.874C83.6655 109.657 88.58 109.326 90.7581 108.254C92.0623 107.612 92.1116 113.298 92.1116 113.298H76.5138Z" fill="#FEBB94"/>
<path d="M76.5138 113.298L66.5205 114.635C66.2478 114.671 65.9981 114.812 65.8273 115.032C65.6565 115.248 65.5776 115.524 65.6072 115.799L72.5848 181.846L108.393 178.339L103.961 115.491L92.1148 113.302H76.5138V113.298Z" fill="#FEBB94"/>
<path d="M101.996 132.117L99.2041 127.05L99.8907 132.117H101.996Z" fill="#FF967C"/>
<path d="M103.337 115.373C107.111 115.95 110.278 118.46 111.336 120.653L120.676 141.884L143.612 123.583L150.133 130.436L129.516 155.849C125.37 161.297 118.195 163.538 113.31 156.436L105.505 144.205L103.337 115.373Z" fill="#FEBB94"/>
<path d="M120.676 141.884L123.284 147.004L125.272 138.217L120.676 141.884Z" fill="#FF967C"/>
<path d="M66.596 114.622C66.596 114.622 63.8989 114.573 61.6322 118.532C59.3655 122.491 50.1802 146.469 50.1802 146.469C50.1802 146.469 45.9851 155.518 54.487 155.856H72.2858L66.596 114.622Z" fill="#FEBB94"/>
<path d="M68.6032 132.117L67.8575 128.797L65.9817 132.117H68.6032Z" fill="#FF967C"/>
<path d="M115.692 199.63H76.8193C75.5939 199.63 74.4113 199.19 73.4882 198.387C72.5618 197.588 71.9573 196.48 71.7865 195.271L63.5704 137.905C63.4686 137.184 63.5211 136.453 63.7281 135.755C63.935 135.057 64.2866 134.412 64.7662 133.864C65.2458 133.317 65.8338 132.874 66.4974 132.573C67.161 132.271 67.8805 132.114 68.6098 132.114H107.483C108.708 132.114 109.891 132.553 110.814 133.356C111.74 134.156 112.341 135.264 112.515 136.473L120.732 193.838C120.833 194.559 120.781 195.29 120.577 195.988C120.37 196.686 120.019 197.332 119.539 197.879C119.063 198.43 118.471 198.869 117.808 199.171C117.141 199.476 116.421 199.63 115.692 199.63Z" fill="#5CA4E6"/>
<path d="M113.074 199.63H142.844C143.1 199.63 143.35 199.561 143.573 199.433C143.793 199.305 143.977 199.122 144.105 198.899C144.233 198.676 144.299 198.427 144.296 198.171C144.292 197.916 144.223 197.666 144.095 197.447C143.993 197.276 143.859 197.126 143.695 197.011C143.534 196.893 143.35 196.811 143.152 196.768L119.053 191.541L113.074 199.63Z" fill="#5CA4E6"/>
<path d="M86.8455 132.117L60.847 135.441V132.117H86.8455Z" fill="white"/>
<path d="M97.4335 132.117L60.847 136.794V135.441L86.8455 132.117H97.4335Z" fill="white"/>
<path d="M108.025 132.117L60.847 138.148V136.794L97.4335 132.117H108.025Z" fill="#FEFEFF"/>
<path d="M110.853 132.117L110.978 133.094L60.847 139.501V138.148L108.025 132.117H110.853Z" fill="#FDFEFF"/>
<path d="M110.978 133.094L111.149 134.425L60.847 140.855V139.501L110.978 133.094Z" fill="#FCFDFF"/>
<path d="M111.149 134.425L111.32 135.755L60.847 142.209V140.855L111.149 134.425Z" fill="#FBFCFF"/>
<path d="M111.32 135.755L111.49 137.089L61.0014 143.543L60.847 142.346V142.209L111.32 135.755Z" fill="#FAFCFF"/>
<path d="M111.497 137.089L61.0026 143.544L61.1738 144.877L111.668 138.422L111.497 137.089Z" fill="#F9FBFF"/>
<path d="M111.667 138.42L61.1733 144.875L61.3445 146.208L111.838 139.753L111.667 138.42Z" fill="#F8FAFF"/>
<path d="M111.838 139.751L61.344 146.206L61.5152 147.539L112.009 141.084L111.838 139.751Z" fill="#F7FAFF"/>
<path d="M112.009 141.085L61.5151 147.54L61.6863 148.873L112.18 142.417L112.009 141.085Z" fill="#F6F9FF"/>
<path d="M112.18 142.415L61.6859 148.87L61.857 150.203L112.351 143.748L112.18 142.415Z" fill="#F5F8FF"/>
<path d="M112.351 143.746L61.8566 150.201L62.0278 151.534L112.522 145.079L112.351 143.746Z" fill="#F4F8FF"/>
<path d="M112.521 145.077L62.0273 151.532L62.1985 152.865L112.692 146.41L112.521 145.077Z" fill="#F3F7FF"/>
<path d="M112.692 146.411L62.1984 152.866L62.3696 154.199L112.863 147.743L112.692 146.411Z" fill="#F2F6FF"/>
<path d="M112.863 147.741L62.3691 154.196L62.5403 155.529L113.034 149.074L112.863 147.741Z" fill="#F1F6FF"/>
<path d="M113.034 149.072L62.5398 155.527L62.711 156.86L113.205 150.405L113.034 149.072Z" fill="#F0F5FF"/>
<path d="M113.205 150.406L62.7109 156.861L62.8821 158.194L113.376 151.739L113.205 150.406Z" fill="#EFF4FF"/>
<path d="M113.376 151.737L62.8817 158.192L63.0528 159.525L113.547 153.069L113.376 151.737Z" fill="#EEF4FF"/>
<path d="M113.546 153.067L63.0524 159.522L63.2236 160.855L113.717 154.4L113.546 153.067Z" fill="#EDF3FF"/>
<path d="M113.721 154.401L63.2267 160.856L63.3979 162.189L113.892 155.734L113.721 154.401Z" fill="#ECF2FF"/>
<path d="M113.891 155.732L63.3975 162.187L63.5687 163.52L114.063 157.064L113.891 155.732Z" fill="#EBF2FF"/>
<path d="M114.062 157.062L63.5682 163.517L63.7394 164.85L114.233 158.395L114.062 157.062Z" fill="#EAF1FF"/>
<path d="M114.233 158.396L63.7393 164.851L63.9105 166.184L114.404 159.729L114.233 158.396Z" fill="#E9F0FF"/>
<path d="M114.404 159.727L63.91 166.182L64.0812 167.515L114.575 161.06L114.404 159.727Z" fill="#E8F0FF"/>
<path d="M114.575 161.058L64.0807 167.513L64.2519 168.845L114.746 162.39L114.575 161.058Z" fill="#E7EFFF"/>
<path d="M114.746 162.391L64.2518 168.847L64.423 170.179L114.917 163.724L114.746 162.391Z" fill="#E6EEFF"/>
<path d="M114.916 163.722L64.4226 170.177L64.5938 171.51L115.088 165.055L114.916 163.722Z" fill="#E5EEFF"/>
<path d="M115.087 165.053L64.5933 171.508L64.7645 172.841L115.258 166.386L115.087 165.053Z" fill="#E4EDFF"/>
<path d="M115.258 166.384L64.764 172.839L64.9352 174.172L115.429 167.716L115.258 166.384Z" fill="#E3EDFF"/>
<path d="M115.429 167.717L64.9351 174.173L65.1063 175.505L115.6 169.05L115.429 167.717Z" fill="#E2ECFF"/>
<path d="M115.6 169.048L65.1058 175.503L65.277 176.836L115.771 170.381L115.6 169.048Z" fill="#E1EBFF"/>
<path d="M115.77 170.379L65.2766 176.834L65.4477 178.167L115.942 171.712L115.77 170.379Z" fill="#E0EBFF"/>
<path d="M115.942 171.713L65.4477 178.168L65.6189 179.501L116.113 173.046L115.942 171.713Z" fill="#DFEAFF"/>
<path d="M116.112 173.043L65.6184 179.499L65.7896 180.831L116.283 174.376L116.112 173.043Z" fill="#DEE9FF"/>
<path d="M116.283 174.374L65.7891 180.829L65.9603 182.162L116.454 175.707L116.283 174.374Z" fill="#DDE9FF"/>
<path d="M116.454 175.708L65.9602 182.163L66.1314 183.496L116.625 177.041L116.454 175.708Z" fill="#DCE8FF"/>
<path d="M116.628 177.038L66.1342 183.493L66.3054 184.826L116.799 178.371L116.628 177.038Z" fill="#DBE7FF"/>
<path d="M116.799 178.369L66.3049 184.824L66.4761 186.157L116.97 179.702L116.799 178.369Z" fill="#DAE7FF"/>
<path d="M116.97 179.703L66.476 186.158L66.6472 187.491L117.141 181.036L116.97 179.703Z" fill="#D9E6FF"/>
<path d="M117.141 181.034L66.6468 187.489L66.8179 188.822L117.312 182.367L117.141 181.034Z" fill="#D8E5FF"/>
<path d="M117.311 182.364L66.8174 188.819L66.9886 190.152L117.483 183.697L117.311 182.364Z" fill="#D7E5FF"/>
<path d="M117.482 183.695L66.9882 190.15L67.1593 191.483L117.653 185.028L117.482 183.695Z" fill="#D6E4FF"/>
<path d="M117.653 185.029L67.1593 191.484L67.3305 192.817L117.824 186.362L117.653 185.029Z" fill="#D5E3FF"/>
<path d="M117.824 186.36L67.33 192.815L67.5012 194.148L117.995 187.693L117.824 186.36Z" fill="#D4E3FF"/>
<path d="M117.995 187.69L67.5007 194.145L67.6719 195.478L118.166 189.023L117.995 187.69Z" fill="#D3E2FF"/>
<path d="M118.163 189.024L118.212 189.401V190.371L67.8411 196.808L67.6703 195.477L118.163 189.024Z" fill="#D2E1FF"/>
<path d="M118.212 191.724L68.0119 198.142L67.8411 196.808L118.212 190.371V191.724Z" fill="#D1E1FF"/>
<path d="M118.212 193.078L68.1827 199.472L68.0119 198.142L118.212 191.724V193.078Z" fill="#D0E0FF"/>
<path d="M118.212 194.432L77.5256 199.63H68.2024L68.1827 199.472L118.212 193.078V194.432Z" fill="#CFDFFF"/>
<path d="M118.212 195.785L88.1136 199.63H77.5256L118.212 194.432V195.785Z" fill="#CEDFFF"/>
<path d="M118.212 197.139L98.7015 199.63H88.1136L118.212 195.785V197.139Z" fill="#CDDEFF"/>
<path d="M118.212 198.492L109.293 199.63H98.7015L118.212 197.139V198.492Z" fill="#CCDDFF"/>
<path d="M109.293 199.63L118.212 198.492V199.63H109.293Z" fill="#CBDDFF"/>
<path d="M271.831 146.912C271.831 146.912 269.732 150.868 269.219 151.323C268.71 151.779 260.274 152.814 258.638 153.398C257.005 153.981 256.223 154.863 256.223 155.656H276.052C276.052 155.656 276.565 155.177 276.936 153.657C277.304 152.136 277.951 151.49 277.951 151.49L271.831 146.912Z" fill="#BC775C"/>
<path d="M243.326 84.5746C244.63 78.1508 241.562 78.318 240.543 77.2954C240.543 77.2954 236.713 74.1458 233.796 77.0824C230.708 80.1894 213.004 104.318 213.004 104.318L224.082 114.481L226.164 112.004L231.558 105.586L237.327 98.7267L238.043 97.9466L245.826 89.1532C245.826 89.15 242.59 87.957 243.326 84.5746Z" fill="#5661AE"/>
<path d="M247.961 85.6693C249.453 81.2218 247.051 76.4072 242.593 74.9193C238.135 73.428 233.309 75.8271 231.818 80.2746C230.323 84.7221 232.728 89.5367 237.186 91.0247C241.644 92.5159 246.466 90.1168 247.961 85.6693Z" fill="#5661AE"/>
<path d="M237.941 97.9106C238.165 96.5668 238.612 93.8826 239.091 91.4343L241.647 79.5896C241.647 79.5896 234.784 89.7104 231.621 96.7602C229.279 102.043 226.562 107.428 226.112 111.984L231.506 105.567L237.275 98.707L237.941 97.9106Z" fill="#465393"/>
<path d="M201.943 77.1512C199.312 72.3629 200.576 71.5501 199.456 68.8232C198.352 66.1652 200.31 59.571 198.438 60.4723C196.562 61.3703 195.984 63.7595 195.984 63.7595C194.703 61.4948 193.52 57.3325 190.452 56.854C187.383 56.3755 187.111 57.3423 185.37 58.7647C180.741 62.6092 186.644 68.384 187.63 70.5799C188.264 71.9597 192.922 76.1614 193.438 77.0791L195.783 80.4713L201.943 77.1512Z" fill="#BC775C"/>
<path d="M192.896 64.2315C192.833 64.2315 192.771 64.1987 192.741 64.1397L189 57.2505C188.954 57.1653 188.987 57.0571 189.072 57.0113C189.157 56.9654 189.266 56.9981 189.312 57.0834L193.053 63.9726C193.099 64.0578 193.067 64.1659 192.981 64.2118C192.955 64.2249 192.925 64.2315 192.896 64.2315Z" fill="#93523E"/>
<path d="M190.445 65.3491C190.386 65.3491 190.33 65.3196 190.294 65.2672L186.217 58.8499C186.165 58.768 186.191 58.6598 186.273 58.6074C186.355 58.555 186.464 58.5779 186.516 58.6631L190.593 65.0804C190.646 65.1623 190.619 65.2705 190.537 65.3229C190.511 65.3393 190.478 65.3491 190.445 65.3491Z" fill="#93523E"/>
<path d="M187.535 66.5814C187.475 66.5814 187.416 66.5519 187.383 66.4962L185.054 62.6092C185.005 62.5239 185.031 62.4158 185.117 62.3666C185.199 62.3175 185.31 62.3437 185.36 62.4289L187.689 66.316C187.738 66.4012 187.712 66.5093 187.627 66.5585C187.597 66.5749 187.567 66.5814 187.535 66.5814Z" fill="#93523E"/>
<path d="M193.822 70.298C193.724 70.298 193.645 70.2161 193.645 70.1211C193.665 67.722 195.057 64.8903 195.117 64.7723C195.159 64.6838 195.268 64.651 195.353 64.6936C195.442 64.7362 195.478 64.8444 195.432 64.9296C195.419 64.9591 194.013 67.8072 193.996 70.1243C194 70.2194 193.917 70.298 193.822 70.298Z" fill="#93523E"/>
<path d="M224.177 104.125L201.654 74.1982C201.509 74.0212 201.306 73.9065 201.082 73.8705C200.859 73.8344 200.629 73.8836 200.438 74.0081L194.542 77.8985C194.262 78.0886 194.062 78.3737 193.98 78.7014C193.901 79.0292 193.944 79.3766 194.105 79.6716L212.219 112.997L224.177 104.125Z" fill="#5661AE"/>
<path d="M218.704 116.766C222.869 116.766 226.246 113.397 226.246 109.241C226.246 105.085 222.869 101.716 218.704 101.716C214.538 101.716 211.161 105.085 211.161 109.241C211.161 113.397 214.538 116.766 218.704 116.766Z" fill="#5661AE"/>
<path d="M250.218 70.5308C250.218 70.5308 239.219 74.0212 237.051 74.9258C234.883 75.8304 234.735 79.4553 234.591 82.0182C234.489 83.8176 236.522 113.334 236.657 130.429C236.687 134.081 236.003 136.401 235.563 138.43C235.126 140.458 235.563 141.566 235.563 141.566L282.685 141.986C282.685 141.986 281.272 82.5852 280.983 80.4745C280.694 78.3606 282.967 76.5416 280.504 75.4797L262.511 70.5308H250.218V70.5308Z" fill="white"/>
<path d="M244.305 72.435C244.305 72.435 246.102 80.6286 247.278 87.1868C248.454 93.7449 248.812 148.029 248.812 148.029C248.812 148.029 235.041 145.358 233.178 142.202C231.312 139.046 234.906 124.864 235.185 111.981C235.464 99.097 232.748 79.1013 235.602 75.6338C235.599 75.637 236.332 74.9127 244.305 72.435Z" fill="#5661AE"/>
<path d="M267.448 71.9106C267.448 71.9106 260.914 85.4923 261.315 89.6318C261.716 93.7712 261.739 129.069 261.315 136.44C261.052 140.924 260.369 145.371 259.272 149.727C259.272 149.727 277.097 150.986 283.979 148.836C283.979 148.836 287.251 128.299 285.103 120.964C282.957 113.629 281.318 75.5027 281.318 75.5027L267.448 71.9106Z" fill="#5661AE"/>
<path d="M272.271 90.1594C272.271 90.1594 272.938 114.773 272.8 122.977C272.714 128.089 266.854 130.252 266.837 133.215C266.828 134.965 271.463 132.917 272.715 134.726C273.963 136.535 271.828 142.209 271.828 142.209L282.688 141.992L287.041 120.928L277.872 88.8976L272.271 90.1594Z" fill="#465393"/>
<path d="M250.445 65.0443L249.426 76.5154C249.426 76.5154 249.154 78.2983 252.255 78.862C254.719 79.311 259.837 76.4236 260.99 75.4699C263.559 73.3559 263.795 72.0777 263.523 71.0977C263.135 69.695 261.864 59.8036 261.864 59.8036L250.445 65.0443Z" fill="#BC775C"/>
<path d="M249.774 74.4309L250.402 67.3615L255.875 64.6641L249.774 74.4309Z" fill="#93523E"/>
<path d="M249.916 74.5194L249.614 74.4178L250.251 67.2566L256.325 64.2643L249.916 74.5194ZM250.56 67.4696L250.001 73.7656L255.435 65.0673L250.56 67.4696Z" fill="#93523E"/>
<path d="M244.361 43.3345C244.361 43.3345 242.265 52.7047 241.985 59.0892C241.703 65.5294 244.009 66.7551 246.87 67.2336C249.124 67.6138 252.633 67.6401 254.84 66.5421C258.861 64.5396 265.468 59.6726 266.331 58.7319C267.672 57.2702 267.58 50.7546 262.468 49.1421C258.746 47.9688 249.269 38.0184 244.361 43.3345Z" fill="#BC775C"/>
<path d="M244.38 44.3341C247.429 45.5271 253.171 44.7438 256.322 45.7631C259.469 46.7856 256.604 47.8672 256.742 50.9021C256.831 52.8686 256.982 56.6245 258.191 56.5721C259.4 56.5229 260.113 52.2557 262.662 52.4196C265.211 52.5867 266.414 53.6716 266.358 55.2972C266.302 56.9195 264.472 58.3354 263.027 59.0859C261.217 60.02 260.471 59.63 260.471 59.63C260.471 59.63 262.508 67.1091 262.813 66.8141C262.813 66.8141 265.008 65.5785 265.405 63.4121C265.405 63.4121 268.319 62.7829 267.675 59.8758C267.675 59.8758 269.488 59.2957 268.628 57.611C268.628 57.611 273.319 54.4647 270.875 50.6137C270.875 50.6137 273.099 48.3981 270.441 47.4641C270.441 47.4641 273.963 42.3316 268.953 41.2369C268.953 41.2369 269.288 38.8214 266.995 38.9132C266.995 38.9132 265.993 34.7574 260.99 36.3961C260.967 35.5636 260.691 34.7574 260.201 34.0855C259.712 33.4136 259.025 32.9023 258.24 32.6237C255.405 31.4865 253.562 33.0531 253.562 33.0531C253.562 33.0531 250.589 30.6343 249.022 34.1805C249.022 34.1805 246.772 33.0334 245.087 34.2526C243.398 35.4686 244.219 38.0152 244.219 38.0152C244.219 38.0152 242.288 37.5629 241.585 39.159C240.589 41.404 241.985 42.2201 241.985 42.2201C241.985 42.2201 238.842 45.9269 243.263 49.4371L244.38 44.3341Z" fill="#493212"/>
<path d="M252.054 53.5863C252.222 52.8292 251.952 52.1246 251.453 52.0164C250.954 51.9083 250.418 52.436 250.251 53.193C250.083 53.9501 250.353 54.6515 250.852 54.7629C251.351 54.8711 251.89 54.3434 252.054 53.5863Z" fill="#080B09"/>
<path d="M245.208 52.0492C245.372 51.2921 245.106 50.5908 244.607 50.4793C244.108 50.3712 243.572 50.8988 243.405 51.6559C243.237 52.413 243.506 53.1144 244.006 53.2258C244.505 53.334 245.041 52.8063 245.208 52.0492Z" fill="#080B09"/>
<path d="M245.51 57.5619C245.471 57.5619 245.428 57.5488 245.395 57.5193C244.683 56.9195 244.656 56.4639 244.758 56.1886C244.913 55.7724 245.448 55.5331 246.184 55.543C246.394 55.5397 246.535 55.4774 246.608 55.3594C246.795 55.0448 246.516 54.3565 246.404 54.1402C246.358 54.055 246.394 53.9469 246.479 53.901C246.565 53.8551 246.673 53.8911 246.719 53.9764C246.772 54.078 247.235 54.9989 246.913 55.5364C246.775 55.7658 246.532 55.8838 246.187 55.8937C245.612 55.8806 245.188 56.051 245.093 56.3099C245.005 56.5459 245.198 56.89 245.625 57.2473C245.701 57.3095 245.711 57.421 245.645 57.4963C245.609 57.5422 245.56 57.5619 245.51 57.5619Z" fill="#93523E"/>
<path d="M245.691 58.8958H245.698H245.704C246.433 58.9483 247.886 59.0531 248.855 59.1383H248.858C248.887 59.1416 248.914 59.1515 248.937 59.1678C248.96 59.1842 248.976 59.2072 248.989 59.2334C248.999 59.2596 249.006 59.2891 248.999 59.3153C248.996 59.3415 248.986 59.3678 248.966 59.3907C248.753 59.6234 248.474 59.902 248.161 60.1413C247.846 60.3838 247.511 60.5772 247.189 60.6558C246.874 60.7312 246.575 60.6951 246.309 60.4821C246.033 60.2625 245.77 59.8397 245.576 59.0925L245.573 59.0794L245.566 59.0662C245.556 59.0466 245.553 59.0236 245.556 59.004C245.56 58.981 245.566 58.9614 245.579 58.945C245.592 58.9286 245.609 58.9155 245.629 58.9056C245.648 58.8958 245.668 58.8958 245.691 58.8958Z" fill="#93523E"/>
<path d="M246.9 60.8557C246.64 60.8557 246.407 60.7738 246.204 60.6099C245.865 60.3379 245.599 59.843 245.415 59.135C245.395 59.0892 245.386 59.0367 245.392 58.9876C245.395 58.9384 245.415 58.8892 245.448 58.8499C245.478 58.8106 245.52 58.7778 245.57 58.7581C245.612 58.7385 245.665 58.7319 245.714 58.7385H245.717C246.364 58.7844 247.882 58.8925 248.868 58.981C248.927 58.9876 248.983 59.0072 249.029 59.04C249.075 59.0728 249.114 59.1219 249.137 59.1744C249.16 59.2268 249.167 59.2858 249.16 59.3448C249.15 59.4038 249.127 59.4562 249.091 59.4988C248.897 59.7119 248.602 60.0134 248.26 60.2756C247.889 60.5607 247.541 60.7443 247.225 60.8197C247.11 60.8426 247.002 60.8557 246.9 60.8557ZM245.727 59.0629C245.908 59.7053 246.131 60.1314 246.407 60.351C246.617 60.5181 246.851 60.564 247.146 60.4952C247.419 60.4296 247.725 60.2658 248.056 60.0101C248.378 59.761 248.661 59.4759 248.838 59.2793C247.872 59.217 246.394 59.1121 245.727 59.0629Z" fill="#93523E"/>
<path d="M254.443 51.0889L254.374 51.2266C254.291 51.4363 254.131 51.6035 253.927 51.6952C253.72 51.787 253.487 51.7903 253.28 51.7116L249.712 50.2368C249.538 50.1712 249.39 50.0434 249.305 49.8795C249.219 49.7124 249.2 49.5223 249.249 49.342C249.275 49.2306 249.321 49.1257 249.39 49.034C249.459 48.9422 249.545 48.8668 249.646 48.8111C249.745 48.7554 249.857 48.7226 249.972 48.7128C250.087 48.7029 250.202 48.7193 250.31 48.7554L253.947 50.0926C254.045 50.1253 254.137 50.1745 254.216 50.2433C254.295 50.3122 254.36 50.3941 254.406 50.4859C254.452 50.5776 254.479 50.6792 254.485 50.7841C254.492 50.889 254.475 50.9906 254.443 51.0889Z" fill="#080B09"/>
<path d="M242.403 47.7754L246.269 47.5165C246.384 47.5099 246.499 47.5296 246.604 47.5689C246.713 47.6115 246.808 47.6738 246.89 47.7558C246.969 47.8377 247.035 47.936 247.074 48.0409C247.113 48.149 247.13 48.2638 247.123 48.3785C247.12 48.5653 247.048 48.7423 246.916 48.8799C246.788 49.0143 246.611 49.0962 246.424 49.1093L242.583 49.519C242.36 49.5354 242.137 49.4666 241.966 49.3224C241.795 49.1782 241.687 48.9717 241.667 48.7488L241.641 48.5981C241.634 48.4932 241.65 48.3883 241.687 48.2933C241.723 48.1949 241.778 48.1064 241.847 48.0278C241.92 47.9524 242.005 47.8901 242.1 47.8475C242.192 47.8016 242.298 47.7754 242.403 47.7754Z" fill="#080B09"/>
<path d="M281.673 81.3988C276.818 76.9808 275.385 79.6912 273.983 80.0419C273.983 80.0419 269.308 81.7003 270.333 85.7054C271.417 89.9431 283.069 117.493 283.069 117.493L297.773 114.019L296.44 110.178L293.693 102.266L290.76 93.8039L290.454 92.7879L286.89 81.6085C286.89 81.6118 284.203 83.7684 281.673 81.3988Z" fill="#5661AE"/>
<path d="M284.065 89.9726C287.635 86.9213 288.053 81.5594 284.994 77.9968C281.936 74.4342 276.561 74.018 272.99 77.0693C269.419 80.1206 269.002 85.4825 272.061 89.0451C275.119 92.6077 280.49 93.0239 284.065 89.9726Z" fill="#5661AE"/>
<path d="M282.957 113.626L269.952 148.727C269.883 148.944 269.896 149.176 269.988 149.383C270.08 149.589 270.244 149.757 270.454 149.848L276.926 152.687C277.238 152.818 277.59 152.831 277.908 152.719C278.227 152.608 278.496 152.385 278.657 152.087L296.919 118.84L282.957 113.626Z" fill="#5661AE"/>
<path d="M290.231 122.967C294.396 122.967 297.773 119.598 297.773 115.442C297.773 111.286 294.396 107.917 290.231 107.917C286.065 107.917 282.688 111.286 282.688 115.442C282.688 119.598 286.065 122.967 290.231 122.967Z" fill="#5661AE"/>
<path d="M86.563 199.63H114.904C114.904 202.75 113.662 205.739 111.451 207.944C109.24 210.15 106.241 211.389 103.117 211.389H98.3533C95.2259 211.389 92.2298 210.15 90.0189 207.944C87.8048 205.742 86.563 202.75 86.563 199.63Z" fill="#E7EFFF"/>
<path d="M101.362 211.392H100.104V267.925H101.362V211.392Z" fill="#5CA4E6"/>
<path d="M100.104 267.925L82.8311 273.51H118.37L101.362 267.925H100.104Z" fill="#5CA4E6"/>
<path d="M43.9911 160.979L13.2522 271.068H19.5136L55.0422 160.979H43.9911V160.979Z" fill="#E7EFFF"/>
<path d="M43.9911 160.979L41.7342 169.061L53.5114 165.724L55.0422 160.979H43.9911Z" fill="#96BAFD"/>
<path d="M306.032 160.979L336.771 271.068H330.51L294.978 160.979H306.032V160.979Z" fill="#D1E8F7"/>
<path d="M306.032 160.979L307.757 167.157L296.571 165.911L294.978 160.979H306.032Z" fill="#5CA4E6"/>
<path d="M92.4138 82.7884C92.4138 82.7884 96.5465 90.2282 97.9821 93.2992C99.4144 96.3702 99.9072 99.6837 97.5189 101.208C94.2699 103.282 90.676 102.82 86.8028 102.391C83.4487 102.017 79.247 92.6044 79.7628 90.2905C80.272 87.9799 86.1064 78.708 92.4138 82.7884Z" fill="#FFCCB3"/>
<path d="M95.4952 91.3163C95.7975 91.0738 95.7515 90.5166 95.3901 90.0742C95.0288 89.6317 94.4966 89.4679 94.1943 89.7137C93.8921 89.9562 93.9414 90.5134 94.2995 90.9558C94.6575 91.3983 95.193 91.5589 95.4952 91.3163Z" fill="#080B09"/>
<path d="M91.0439 90.1857L94.1976 87.9471C94.122 87.8586 94.0268 87.7865 93.9184 87.7341C93.8133 87.6849 93.695 87.6554 93.5767 87.6522C93.4585 87.6489 93.3402 87.6718 93.2318 87.7177C93.1234 87.7636 93.0248 87.8291 92.9427 87.9144L90.8533 90.0283C90.7811 90.0906 90.9322 90.2774 91.0439 90.1857Z" fill="#080B09"/>
<path d="M95.9716 96.5013C95.4427 96.5013 94.9236 96.3538 94.4736 96.0752C94.398 96.0261 94.3717 95.9277 94.421 95.8491C94.4703 95.7704 94.5688 95.7475 94.6477 95.7966C95.4427 96.2883 96.5005 96.2915 97.2955 95.7966C97.3711 95.7475 97.4729 95.7737 97.5222 95.8491C97.5714 95.9245 97.5452 96.0261 97.4696 96.0752C97.0196 96.3538 96.5038 96.5013 95.9716 96.5013Z" fill="#EF6A77"/>
<path d="M89.4473 87.2523L96.2015 83.8438C96.2015 83.8438 93.7541 75.8959 84.7825 75.0667C78.1991 74.4571 72.0822 78.0787 69.7136 83.7323C67.3418 89.3892 69.3687 98.707 75.3837 100.942C80.4691 102.833 80.3048 107.871 80.3048 107.871L87.7522 98.1269C87.7522 98.1269 82.6011 95.6262 83.8363 92.5749C85.5118 88.4355 89.72 93.2206 89.72 93.2206L86.8718 84.9515L89.4473 87.2523Z" fill="#1F2D49"/>
<path d="M96.5859 90.5167C96.5859 90.5167 97.7127 91.9817 98.3927 92.2635C99.0728 92.5454 98.465 93.5876 98.0084 93.7318C97.555 93.8728 96.3264 91.2082 96.5859 90.5167Z" fill="#FFCCB3"/>
<path d="M68.7445 98.5005C73.163 98.5005 76.747 94.9281 76.747 90.5166C76.747 86.1085 73.1662 82.5328 68.7445 82.5328C64.326 82.5328 60.7419 86.1085 60.7419 90.5166C60.7419 94.9248 64.326 98.5005 68.7445 98.5005Z" fill="#0D1B33"/>
<path d="M67.8608 98.8512C72.2793 98.8512 75.8633 95.2788 75.8633 90.8674C75.8633 86.4592 72.2825 82.8835 67.8608 82.8835C63.4423 82.8835 59.8582 86.4592 59.8582 90.8674C59.8582 95.2755 63.439 98.8512 67.8608 98.8512Z" fill="#1F2D49"/>
<path d="M181.165 25.4101H176.74C175.652 25.4101 174.769 24.5284 174.769 23.4436C174.769 22.3588 175.652 21.4771 176.74 21.4771H181.165C182.252 21.4771 183.136 22.3588 183.136 23.4436C183.136 24.5284 182.255 25.4101 181.165 25.4101Z" fill="#D4DCF4"/>
<path d="M232.12 25.4101H190.908C189.821 25.4101 188.937 24.5284 188.937 23.4436C188.937 22.3588 189.821 21.4771 190.908 21.4771H232.123C233.211 21.4771 234.095 22.3588 234.095 23.4436C234.095 24.5284 233.211 25.4101 232.12 25.4101Z" fill="#5661AE"/>
<path d="M181.165 35.0818H176.74C175.652 35.0818 174.769 34.2002 174.769 33.1154C174.769 32.0305 175.652 31.1489 176.74 31.1489H181.165C182.252 31.1489 183.136 32.0305 183.136 33.1154C183.136 34.2002 182.255 35.0818 181.165 35.0818Z" fill="#D4DCF4"/>
<path d="M210.097 35.0818H190.908C189.821 35.0818 188.937 34.2002 188.937 33.1154C188.937 32.0305 189.821 31.1489 190.908 31.1489H210.097C211.184 31.1489 212.068 32.0305 212.068 33.1154C212.068 34.2002 211.184 35.0818 210.097 35.0818Z" fill="#5661AE"/>
<path d="M181.165 44.9208H176.74C175.652 44.9208 174.769 44.0391 174.769 42.9543C174.769 41.8695 175.652 40.9878 176.74 40.9878H181.165C182.252 40.9878 183.136 41.8695 183.136 42.9543C183.136 44.0391 182.255 44.9208 181.165 44.9208Z" fill="#D4DCF4"/>
<path d="M223.907 44.9208H190.908C189.821 44.9208 188.937 44.0391 188.937 42.9543C188.937 41.8695 189.821 40.9878 190.908 40.9878H223.907C224.995 40.9878 225.878 41.8695 225.878 42.9543C225.878 44.0391 224.995 44.9208 223.907 44.9208Z" fill="#5661AE"/>
<path d="M320.71 155.656H273.51V160.979H320.71V155.656Z" fill="#96BAFD"/>
<path d="M263.667 160.979L294.406 271.068H288.145L252.616 160.979H263.667V160.979Z" fill="#E7EFFF"/>
<path d="M263.667 160.979L265.924 169.061L254.147 165.724L252.616 160.979H263.667Z" fill="#5CA4E6"/>
<path d="M133.448 97.9958C143.057 97.9958 150.843 90.225 150.843 80.6384C150.843 71.0519 143.054 63.281 133.448 63.281C123.839 63.281 116.05 71.0519 116.05 80.6384C116.05 90.225 123.836 97.9958 133.448 97.9958Z" fill="#FEBB94"/>
<path d="M135.777 88.4387H131.106C130.853 88.4387 130.649 88.2355 130.649 87.9832V86.2527C129.647 85.7906 128.777 85.0892 128.113 84.2076C127.39 83.244 126.94 82.1034 126.816 80.9006C126.691 79.6978 126.894 78.4884 127.407 77.4003C127.923 76.3089 128.721 75.3748 129.723 74.7029C130.722 74.0311 131.891 73.6411 133.097 73.5788C134.306 73.5165 135.505 73.782 136.572 74.349C137.64 74.916 138.53 75.7616 139.155 76.794C139.775 77.8264 140.104 79.0095 140.104 80.2156C140.104 81.543 139.71 82.8278 138.967 83.9257C138.284 84.9384 137.344 85.7381 136.237 86.2494V87.9799C136.237 88.2355 136.03 88.4387 135.777 88.4387ZM131.563 87.5243H135.317V85.9512C135.317 85.7643 135.429 85.5972 135.603 85.5284C136.668 85.0957 137.568 84.3682 138.205 83.4177C138.846 82.4705 139.184 81.3627 139.184 80.2189C139.184 79.1799 138.902 78.1574 138.366 77.2692C137.831 76.3777 137.059 75.6501 136.142 75.1618C135.222 74.6735 134.187 74.444 133.146 74.4965C132.105 74.5489 131.099 74.8865 130.235 75.4666C129.371 76.0467 128.682 76.8497 128.238 77.7936C127.798 78.7342 127.62 79.7764 127.729 80.8121C127.837 81.8478 128.222 82.8343 128.846 83.6635C129.47 84.4927 130.311 85.1416 131.28 85.5316C131.454 85.6005 131.566 85.7676 131.566 85.9544V87.5243H131.563Z" fill="white"/>
<path d="M134.201 91.0279H132.699C132.154 91.0279 131.638 90.8149 131.247 90.4282C130.86 90.0414 130.646 89.5269 130.646 88.9795V87.9832C130.646 87.7308 130.85 87.5276 131.103 87.5276H135.794C136.047 87.5276 136.254 87.7308 136.254 87.9832V88.9795C136.254 89.5269 136.04 90.0414 135.649 90.4282C135.272 90.8084 134.743 91.0279 134.201 91.0279ZM131.563 88.4388V88.9763C131.563 89.2811 131.681 89.5629 131.894 89.7792C132.108 89.9923 132.397 90.1103 132.699 90.1103H134.201C134.5 90.1103 134.792 89.989 135.002 89.7792C135.219 89.5629 135.337 89.2811 135.337 88.9763V88.4388H131.563Z" fill="white"/>
<path d="M134.454 88.4387C134.201 88.4387 133.994 88.2355 133.994 87.9832V81.9756H132.854V87.9832C132.854 88.2355 132.65 88.4387 132.394 88.4387C132.138 88.4387 131.934 88.2355 131.934 87.9832V81.9756H131.73C131.586 81.9756 131.444 81.9494 131.31 81.8937C131.172 81.8347 131.05 81.7527 130.952 81.6544C130.85 81.5561 130.768 81.4348 130.712 81.2972C130.656 81.1628 130.63 81.0219 130.63 80.8777C130.63 80.5893 130.748 80.3074 130.955 80.1009C131.155 79.8977 131.438 79.7797 131.733 79.7797C132.046 79.7797 132.321 79.8944 132.532 80.1009C132.739 80.3074 132.857 80.5893 132.857 80.8777V81.0612H133.997V80.8777C133.997 80.5893 134.115 80.3074 134.322 80.1009C134.529 79.8944 134.805 79.7797 135.101 79.7797H135.157C135.449 79.7797 135.725 79.8944 135.935 80.1009C136.142 80.3041 136.26 80.5893 136.26 80.8777C136.26 81.0219 136.231 81.1628 136.178 81.2972C136.122 81.4348 136.04 81.5561 135.932 81.661C135.84 81.756 135.715 81.838 135.584 81.8937C135.446 81.9494 135.304 81.9789 135.16 81.9789H134.917V87.9865C134.91 88.2355 134.706 88.4387 134.454 88.4387ZM134.91 81.0612H135.153C135.18 81.0612 135.203 81.0547 135.226 81.0448C135.242 81.0383 135.265 81.0219 135.281 81.0088C135.304 80.9891 135.314 80.9694 135.324 80.9498C135.334 80.9268 135.341 80.9006 135.341 80.8777C135.341 80.8285 135.321 80.7826 135.285 80.7466C135.249 80.7105 135.203 80.6909 135.153 80.6909H135.097C135.048 80.6909 135.002 80.7105 134.966 80.7466C134.93 80.7826 134.91 80.8285 134.91 80.8777V81.0612V81.0612ZM131.75 80.6941C131.681 80.6941 131.635 80.7138 131.605 80.7433C131.566 80.7826 131.546 80.8285 131.546 80.8777C131.546 80.9006 131.553 80.9268 131.563 80.9498C131.572 80.9694 131.582 80.9891 131.599 81.0022C131.622 81.0252 131.641 81.0383 131.664 81.0481C131.684 81.0547 131.707 81.0612 131.733 81.0612H131.937V80.8777C131.937 80.8285 131.917 80.7826 131.881 80.7466C131.845 80.7138 131.799 80.6941 131.75 80.6941Z" fill="white"/>
<path d="M133.448 72.7529C133.195 72.7529 132.988 72.5497 132.988 72.2973V70.7077C132.988 70.4554 133.192 70.2522 133.448 70.2522C133.701 70.2522 133.905 70.4554 133.905 70.7077V72.2973C133.908 72.5497 133.701 72.7529 133.448 72.7529Z" fill="white"/>
<path d="M128.507 74.0737C128.35 74.0737 128.195 73.9917 128.11 73.8443L127.315 72.4677C127.19 72.2481 127.262 71.9696 127.482 71.8417C127.703 71.7172 127.982 71.7893 128.11 72.0089L128.905 73.3854C129.03 73.605 128.958 73.8836 128.737 74.0114C128.662 74.0507 128.583 74.0737 128.507 74.0737Z" fill="white"/>
<path d="M124.884 77.6789C124.805 77.6789 124.726 77.6592 124.654 77.6166L123.278 76.8235C123.057 76.6956 122.982 76.417 123.11 76.1975C123.235 75.9779 123.517 75.9058 123.734 76.0303L125.111 76.8235C125.331 76.9513 125.406 77.2299 125.278 77.4494C125.196 77.5969 125.042 77.6789 124.884 77.6789Z" fill="white"/>
<path d="M142.009 77.692C141.852 77.692 141.697 77.6101 141.612 77.4626C141.484 77.243 141.559 76.9644 141.779 76.8366L143.156 76.0434C143.376 75.9189 143.655 75.991 143.78 76.2106C143.908 76.4302 143.833 76.7087 143.612 76.8366L142.236 77.6297C142.164 77.6723 142.085 77.692 142.009 77.692Z" fill="white"/>
<path d="M138.392 74.0802C138.314 74.0802 138.235 74.0606 138.162 74.018C137.942 73.8901 137.867 73.6116 137.995 73.392L138.79 72.0154C138.915 71.7959 139.197 71.7238 139.414 71.8483C139.634 71.9761 139.71 72.2547 139.582 72.4743L138.787 73.8508C138.704 73.9983 138.55 74.0802 138.392 74.0802Z" fill="white"/>
</g>
<defs>
<clipPath id="clip0_6_848">
<rect width="349.606" height="278" fill="white"/>
</clipPath>
</defs>
</svg>
