<svg width="325" height="165" viewBox="0 0 325 165" fill="none" xmlns="http://www.w3.org/2000/svg">
<g clip-path="url(#clip0_673_153)">
<path d="M162.165 147.48C251.565 147.48 324.039 145.481 324.039 143.014C324.039 140.548 251.565 138.548 162.165 138.548C72.7637 138.548 0.290039 140.548 0.290039 143.014C0.290039 145.481 72.7637 147.48 162.165 147.48Z" fill="#E6E6E6"/>
<path d="M248.432 94.6193C248.228 94.6221 248.023 94.6248 247.816 94.6248C247.609 94.6248 247.405 94.6221 247.2 94.6193C236.364 94.3762 228.511 87.6982 230.51 80.6914L235.384 63.5985L236.616 59.2735L258.456 59.6408L259.783 63.8719L265.008 80.5257C267.22 87.5711 259.366 94.3762 248.432 94.6193Z" fill="#3F3D56"/>
<path opacity="0.2" d="M259.783 63.8719C256.06 65.9715 251.835 67.0531 247.546 67.005C243.257 66.957 239.059 65.781 235.384 63.5985L236.616 59.2735L258.456 59.6408L259.783 63.8719Z" fill="black"/>
<path d="M258.862 81.2585C259.805 77.7903 262.906 72.7872 271.602 66.7549C286.767 56.233 277.72 48.3436 277.328 48.013C276.506 47.3196 276.627 46.5411 277.611 46.2751C278.182 46.1625 278.771 46.1716 279.338 46.3019C279.906 46.4321 280.438 46.6805 280.9 47.0304C281.391 47.431 292.72 56.9735 275.607 68.8449C260.206 79.5303 263.48 86.5055 263.518 86.5724C263.93 87.3184 263.269 87.9153 262.038 87.9073C260.808 87.8992 259.475 87.2885 259.061 86.5433C258.974 86.3856 257.983 84.4873 258.862 81.2585Z" fill="#3F3D56"/>
<path d="M237.736 97.1104C237.405 97.1104 237.078 97.0462 236.772 96.9213C236.466 96.7963 236.188 96.6133 235.954 96.3824C235.72 96.1516 235.535 95.8776 235.408 95.576C235.281 95.2744 235.216 94.9512 235.216 94.6248V83.8537C235.216 83.1944 235.482 82.5622 235.954 82.0961C236.427 81.6299 237.068 81.368 237.736 81.368C238.405 81.368 239.046 81.6299 239.518 82.0961C239.991 82.5622 240.256 83.1944 240.256 83.8537V94.6248C240.256 94.9512 240.191 95.2744 240.064 95.576C239.938 95.8776 239.752 96.1516 239.518 96.3824C239.284 96.6133 239.006 96.7963 238.701 96.9213C238.395 97.0462 238.067 97.1104 237.736 97.1104Z" fill="#3F3D56"/>
<path d="M239.946 71.5393C239.808 71.8359 239.611 72.1026 239.368 72.3244C239.126 72.5461 238.841 72.7185 238.531 72.8318C238.22 72.945 237.89 72.9968 237.56 72.9842C237.229 72.9716 236.904 72.8949 236.603 72.7585L226.683 68.2565C226.077 67.9805 225.606 67.4783 225.375 66.8603C225.143 66.2423 225.17 65.559 225.449 64.9605C225.729 64.3621 226.237 63.8974 226.863 63.6686C227.49 63.4398 228.182 63.4655 228.79 63.7403L238.71 68.2423C239.01 68.3787 239.281 68.5722 239.506 68.8117C239.731 69.0513 239.905 69.3321 240.02 69.6383C240.135 69.9444 240.187 70.2699 240.175 70.5961C240.162 70.9223 240.084 71.2428 239.946 71.5393Z" fill="#3F3D56"/>
<path d="M255.687 71.5393C255.825 71.8359 256.021 72.1026 256.264 72.3244C256.507 72.5461 256.792 72.7185 257.102 72.8318C257.412 72.945 257.742 72.9968 258.073 72.9842C258.404 72.9716 258.729 72.8949 259.029 72.7585L268.95 68.2565C269.557 67.9809 270.028 67.4788 270.26 66.8605C270.492 66.2421 270.465 65.5583 270.186 64.9594C269.906 64.3606 269.397 63.8957 268.77 63.667C268.143 63.4384 267.45 63.4647 266.843 63.7403L256.923 68.2423C256.622 68.3787 256.352 68.5722 256.127 68.8117C255.902 69.0513 255.727 69.3321 255.612 69.6383C255.498 69.9444 255.445 70.2699 255.458 70.5961C255.471 70.9223 255.548 71.2428 255.687 71.5393Z" fill="#3F3D56"/>
<path d="M257.896 97.1104C258.227 97.1104 258.555 97.0462 258.861 96.9213C259.166 96.7963 259.444 96.6133 259.678 96.3824C259.912 96.1516 260.098 95.8776 260.224 95.576C260.351 95.2744 260.416 94.9512 260.416 94.6248V83.8537C260.416 83.1944 260.151 82.5622 259.678 82.0961C259.205 81.6299 258.564 81.368 257.896 81.368C257.228 81.368 256.587 81.6299 256.114 82.0961C255.642 82.5622 255.376 83.1944 255.376 83.8537V94.6248C255.376 94.9512 255.441 95.2744 255.568 95.576C255.695 95.8776 255.88 96.1516 256.114 96.3824C256.348 96.6133 256.626 96.7963 256.932 96.9213C257.238 97.0462 257.565 97.1104 257.896 97.1104Z" fill="#3F3D56"/>
<path d="M268.427 27.3784C268.645 27.1078 268.802 26.7948 268.888 26.46C268.975 26.1251 268.988 25.7761 268.927 25.4358L267.556 17.4774L266.184 9.51908C266.11 9.08938 265.923 8.68648 265.641 8.35088C265.359 8.01527 264.993 7.75879 264.578 7.60719C264.164 7.4556 263.717 7.41425 263.281 7.48729C262.845 7.56034 262.437 7.7452 262.097 8.02331L255.795 13.1741L251.998 16.2772C249.467 15.8331 246.879 15.7946 244.334 16.1632L240.677 13.1741L234.376 8.02331C234.036 7.7452 233.627 7.56034 233.191 7.4873C232.756 7.41426 232.308 7.45561 231.894 7.6072C231.48 7.75879 231.113 8.01528 230.831 8.35088C230.549 8.68649 230.362 9.08939 230.288 9.51908L228.916 17.4774L227.545 25.4358C227.472 25.8541 227.509 26.2839 227.655 26.6835C225.304 30.2376 223.962 34.348 223.768 38.5871C223.574 42.8262 224.535 47.0392 226.551 50.7878C228.567 54.5364 231.565 57.6836 235.232 59.9022C238.9 62.1207 243.102 63.3295 247.404 63.4029C251.705 63.4762 255.948 62.4113 259.691 60.319C263.433 58.2268 266.54 55.1835 268.686 51.5059C270.832 47.8282 271.94 43.6505 271.895 39.4073C271.849 35.1641 270.652 31.0105 268.427 27.3784Z" fill="#3F3D56"/>
<path d="M233.744 11.2845C233.595 11.2848 233.447 11.3113 233.307 11.3629C233.101 11.4368 232.919 11.5634 232.779 11.7298C232.639 11.8962 232.547 12.0962 232.511 12.3094L230.848 21.9605C230.811 22.1732 230.832 22.3917 230.908 22.594C230.984 22.7964 231.113 22.9754 231.282 23.113C231.45 23.2507 231.652 23.3422 231.868 23.3784C232.084 23.4145 232.305 23.3941 232.51 23.319L241.815 19.9142C242.02 19.8391 242.202 19.7122 242.341 19.546C242.481 19.3799 242.574 19.1804 242.61 18.9677C242.647 18.755 242.626 18.5365 242.55 18.3343C242.474 18.132 242.345 17.953 242.177 17.8153L242.177 17.815L234.535 11.569C234.313 11.3857 234.034 11.2851 233.744 11.2845Z" fill="#E6E6E6"/>
<path d="M262.728 11.2845C262.439 11.2851 262.159 11.3857 261.937 11.569L254.295 17.8153C254.127 17.953 253.998 18.132 253.922 18.3343C253.846 18.5365 253.825 18.755 253.862 18.9677C253.899 19.1804 253.991 19.3799 254.131 19.546C254.271 19.7122 254.452 19.8391 254.657 19.9142L263.962 23.319C264.167 23.3941 264.389 23.4145 264.604 23.3784C264.82 23.3422 265.022 23.2507 265.191 23.113C265.359 22.9754 265.488 22.7964 265.564 22.594C265.64 22.3917 265.661 22.1732 265.624 21.9605L263.961 12.3094C263.926 12.0962 263.833 11.8962 263.694 11.7298C263.554 11.5634 263.372 11.4368 263.166 11.3629C263.026 11.3113 262.878 11.2848 262.728 11.2845Z" fill="#E6E6E6"/>
<path d="M247.816 46.2929C249.672 46.2929 251.176 44.8091 251.176 42.9787C251.176 41.1483 249.672 39.6645 247.816 39.6645C245.961 39.6645 244.456 41.1483 244.456 42.9787C244.456 44.8091 245.961 46.2929 247.816 46.2929Z" fill="#E6E6E6"/>
<path d="M247.816 42.1501C249.053 42.1501 250.056 41.7792 250.056 41.3216C250.056 40.864 249.053 40.493 247.816 40.493C246.579 40.493 245.576 40.864 245.576 41.3216C245.576 41.7792 246.579 42.1501 247.816 42.1501Z" fill="#3F3D56"/>
<path d="M246.136 44.9119H249.216V48.6404C249.216 48.8399 249.176 49.0374 249.099 49.2217C249.022 49.406 248.908 49.5734 248.765 49.7145C248.622 49.8556 248.452 49.9674 248.266 50.0438C248.079 50.1201 247.878 50.1594 247.676 50.1594C247.268 50.1594 246.876 49.9994 246.587 49.7145C246.298 49.4296 246.136 49.0433 246.136 48.6404V44.9119H246.136Z" fill="#FF6584"/>
<path d="M248.003 7.31992C247.842 7.65028 247.685 7.98421 247.537 8.32497C245.8 12.3223 245.214 16.7151 245.844 21.0198C246.159 20.5686 246.49 20.0986 246.827 19.6234C246.106 15.492 246.512 11.2455 248.003 7.31992Z" fill="#3F3D56"/>
<path d="M250.523 10.3579C250.362 10.6883 250.205 11.0222 250.057 11.363C248.32 15.3603 247.734 19.7531 248.364 24.0578C248.679 23.6066 249.01 23.1366 249.347 22.6614C248.626 18.53 249.031 14.2835 250.523 10.3579Z" fill="#3F3D56"/>
<path d="M258.292 70.0002L257.937 65.547L257.582 61.0939C257.563 60.8534 257.48 60.6222 257.342 60.4234C257.203 60.2247 257.014 60.0653 256.794 59.9615C256.573 59.8576 256.328 59.8129 256.085 59.8318C255.841 59.8508 255.606 59.9326 255.405 60.0692L251.673 62.599L248.947 64.4464C248.773 64.2452 248.557 64.0837 248.313 63.9729C248.069 63.8622 247.804 63.8048 247.536 63.8048C247.268 63.8048 247.003 63.8622 246.759 63.9729C246.516 64.0837 246.3 64.2452 246.125 64.4464L243.4 62.599L239.668 60.0692C239.466 59.9326 239.232 59.8507 238.988 59.8318C238.744 59.8129 238.5 59.8576 238.279 59.9615C238.058 60.0653 237.869 60.2246 237.731 60.4234C237.592 60.6222 237.509 60.8534 237.49 61.0939L237.135 65.547L236.78 70.0001C236.761 70.2406 236.806 70.4818 236.912 70.6994C237.017 70.9171 237.178 71.1036 237.38 71.2402C237.581 71.3768 237.816 71.4587 238.06 71.4776C238.303 71.4965 238.548 71.4518 238.768 71.3479L242.856 69.4246L246.214 67.8443C246.387 68.017 246.593 68.1541 246.82 68.2477C247.047 68.3413 247.29 68.3895 247.536 68.3895C247.782 68.3895 248.026 68.3413 248.253 68.2477C248.48 68.1541 248.686 68.017 248.858 67.8443L252.217 69.4246L256.304 71.3479C256.525 71.4518 256.769 71.4965 257.013 71.4776C257.257 71.4587 257.491 71.3768 257.693 71.2402C257.894 71.1037 258.056 70.9172 258.161 70.6995C258.266 70.4818 258.312 70.2406 258.292 70.0002Z" fill="#0065FF"/>
<path d="M243.336 40.2168C243.8 40.2168 244.176 39.8459 244.176 39.3883C244.176 38.9307 243.8 38.5598 243.336 38.5598C242.872 38.5598 242.496 38.9307 242.496 39.3883C242.496 39.8459 242.872 40.2168 243.336 40.2168Z" fill="#E6E6E6"/>
<path d="M252.296 40.2168C252.76 40.2168 253.136 39.8459 253.136 39.3883C253.136 38.9307 252.76 38.5598 252.296 38.5598C251.832 38.5598 251.456 38.9307 251.456 39.3883C251.456 39.8459 251.832 40.2168 252.296 40.2168Z" fill="#E6E6E6"/>
<path d="M85.2898 87.2994C85.4942 87.3021 85.6986 87.3049 85.9058 87.3049C86.113 87.3049 86.3174 87.3021 86.5218 87.2994C97.3577 87.0563 105.212 80.3782 103.212 73.3715L98.3377 56.2785L97.1057 51.9535L75.2659 52.3208L73.9388 56.552L68.714 73.2058C66.502 80.2512 74.356 87.0563 85.2898 87.2994Z" fill="#3F3D56"/>
<path opacity="0.2" d="M73.9388 56.552C77.6626 58.6516 81.8869 59.7332 86.1759 59.6851C90.4649 59.637 94.6632 58.4611 98.3377 56.2785L97.1057 51.9535L75.2659 52.3208L73.9388 56.552Z" fill="black"/>
<path d="M72.2078 71.9127C69.8506 69.1762 64.8776 65.963 54.4012 64.1811C36.1296 61.0721 40.884 50.123 41.0949 49.6588C41.5374 48.685 41.0899 48.0326 40.0857 48.2072C39.5206 48.3465 38.9921 48.6034 38.5358 48.9606C38.0795 49.3178 37.7059 49.7671 37.44 50.2783C37.17 50.8477 31.0705 64.254 51.6878 67.7606C70.2434 70.9179 70.3096 78.6044 70.3047 78.6807C70.2553 79.5292 71.1124 79.7893 72.221 79.2627C73.3296 78.7362 74.2694 77.6216 74.3203 76.7733C74.3306 76.5941 74.4028 74.46 72.2078 71.9127Z" fill="#3F3D56"/>
<path d="M95.9858 89.7905C96.3167 89.7905 96.6444 89.7263 96.9501 89.6013C97.2559 89.4764 97.5337 89.2933 97.7677 89.0625C98.0017 88.8317 98.1873 88.5577 98.314 88.2561C98.4406 87.9545 98.5058 87.6313 98.5058 87.3049V76.5338C98.505 75.8751 98.2391 75.2436 97.7666 74.7781C97.2941 74.3126 96.6536 74.0511 95.9858 74.0511C95.318 74.0511 94.6775 74.3126 94.205 74.7781C93.7325 75.2436 93.4666 75.8751 93.4658 76.5338V87.3049C93.4658 87.6313 93.531 87.9545 93.6576 88.2561C93.7843 88.5577 93.9699 88.8317 94.2039 89.0625C94.4379 89.2933 94.7157 89.4764 95.0214 89.6013C95.3272 89.7263 95.6549 89.7905 95.9858 89.7905Z" fill="#3F3D56"/>
<path d="M93.7762 64.2194C93.9145 64.5159 94.1107 64.7827 94.3535 65.0045C94.5964 65.2262 94.8811 65.3986 95.1915 65.5118C95.5019 65.625 95.8318 65.6769 96.1625 65.6643C96.4932 65.6517 96.8181 65.575 97.1188 65.4386L107.039 60.9366C107.34 60.8003 107.611 60.6069 107.836 60.3674C108.061 60.1279 108.236 59.847 108.351 59.5407C108.466 59.2344 108.519 58.9087 108.506 58.5823C108.494 58.2559 108.416 57.9352 108.278 57.6384C108.139 57.3417 107.943 57.0747 107.7 56.8529C107.457 56.6311 107.172 56.4587 106.861 56.3455C106.55 56.2324 106.22 56.1808 105.889 56.1936C105.558 56.2065 105.233 56.2835 104.933 56.4203L95.0122 60.9224C94.7116 61.0588 94.4411 61.2523 94.2163 61.4918C93.9915 61.7313 93.8167 62.0122 93.7019 62.3184C93.5871 62.6245 93.5346 62.95 93.5474 63.2762C93.5601 63.6023 93.6379 63.9229 93.7762 64.2194Z" fill="#3F3D56"/>
<path d="M78.0354 64.2194C77.8971 64.5159 77.7009 64.7827 77.458 65.0045C77.2152 65.2262 76.9305 65.3986 76.6201 65.5118C76.3097 65.625 75.9797 65.6769 75.649 65.6643C75.3184 65.6517 74.9934 65.575 74.6928 65.4386L64.7725 60.9366C64.4715 60.8003 64.2007 60.6069 63.9755 60.3674C63.7504 60.1279 63.5753 59.847 63.4603 59.5407C63.3452 59.2344 63.2926 58.9087 63.3052 58.5823C63.3179 58.2559 63.3956 57.9352 63.5341 57.6384C63.6725 57.3417 63.8688 57.0747 64.1119 56.8529C64.3549 56.6311 64.6399 56.4587 64.9506 56.3455C65.2613 56.2324 65.5915 56.1808 65.9224 56.1936C66.2533 56.2065 66.5784 56.2835 66.8791 56.4203L76.7994 60.9224C77.1 61.0588 77.3704 61.2523 77.5953 61.4918C77.8201 61.7313 77.9949 62.0122 78.1097 62.3184C78.2244 62.6245 78.2769 62.95 78.2642 63.2762C78.2515 63.6023 78.1737 63.9229 78.0354 64.2194Z" fill="#3F3D56"/>
<path d="M75.8259 89.7905C75.495 89.7905 75.1673 89.7263 74.8616 89.6013C74.5558 89.4764 74.278 89.2933 74.044 89.0625C73.81 88.8317 73.6244 88.5577 73.4978 88.2561C73.3711 87.9545 73.306 87.6313 73.306 87.3049V76.5338C73.3068 75.8751 73.5726 75.2436 74.0451 74.7781C74.5176 74.3126 75.1581 74.0511 75.8259 74.0511C76.4938 74.0511 77.1343 74.3126 77.6068 74.7781C78.0793 75.2436 78.3451 75.8751 78.3459 76.5338V87.3049C78.3459 87.6313 78.2807 87.9545 78.1541 88.2561C78.0275 88.5577 77.8418 88.8317 77.6078 89.0625C77.3738 89.2933 77.096 89.4764 76.7903 89.6013C76.4846 89.7263 76.1569 89.7905 75.8259 89.7905Z" fill="#3F3D56"/>
<path d="M106.067 19.3636C106.213 18.964 106.25 18.5342 106.177 18.1159L104.806 10.1575L103.434 2.19918C103.36 1.76948 103.173 1.36658 102.891 1.03098C102.609 0.69537 102.242 0.438887 101.828 0.287296C101.414 0.135704 100.966 0.0943475 100.531 0.16739C100.095 0.240432 99.6865 0.425299 99.3463 0.703403L93.0447 5.85415L89.3876 8.84329C86.8433 8.4747 84.2554 8.51319 81.7235 8.95728L77.927 5.85414L71.6254 0.703392C71.2852 0.425287 70.8767 0.240422 70.4411 0.167379C70.0055 0.094336 69.558 0.135688 69.1437 0.287279C68.7294 0.43887 68.3629 0.695359 68.0809 1.03097C67.799 1.36657 67.6116 1.76947 67.5375 2.19917L66.166 10.1575L64.7945 18.1159C64.734 18.4562 64.7473 18.8052 64.8335 19.1401C64.9197 19.4749 65.0769 19.7879 65.2947 20.0585C63.0673 23.6914 61.8677 27.8467 61.8207 32.0921C61.7738 36.3374 62.8811 40.5176 65.0276 44.1976C67.1741 47.8777 70.2812 50.923 74.0256 53.0168C77.77 55.1105 82.0149 56.1762 86.3185 56.1028C90.6221 56.0295 94.8271 54.8198 98.496 52.5997C102.165 50.3796 105.163 47.2302 107.18 43.4792C109.196 39.7283 110.156 35.5129 109.961 31.2717C109.765 27.0304 108.421 22.9184 106.067 19.3636H106.067Z" fill="#3F3D56"/>
<path d="M99.1868 4.24904L91.5452 10.4951L91.545 10.4954C91.3766 10.6331 91.2479 10.812 91.1718 11.0143C91.0958 11.2166 91.075 11.4351 91.1117 11.6478C91.1483 11.8605 91.2411 12.06 91.3807 12.2261C91.5203 12.3922 91.7017 12.5192 91.9068 12.5943L101.212 15.9991C101.417 16.0741 101.638 16.0946 101.854 16.0585C102.07 16.0223 102.272 15.9308 102.44 15.7931C102.609 15.6554 102.738 15.4764 102.814 15.2741C102.89 15.0718 102.911 14.8533 102.874 14.6405L101.211 4.98952C101.175 4.7763 101.083 4.57624 100.943 4.40988C100.803 4.24353 100.621 4.11689 100.415 4.04298C100.275 3.99137 100.127 3.96484 99.9778 3.96463C99.6885 3.96516 99.4086 4.06581 99.1868 4.24904Z" fill="#E6E6E6"/>
<path d="M70.5563 4.04298C70.3505 4.11689 70.1683 4.24353 70.0285 4.40988C69.8887 4.57623 69.7963 4.7763 69.7609 4.98952L68.0977 14.6405C68.0611 14.8533 68.0818 15.0718 68.1579 15.2741C68.234 15.4764 68.3628 15.6554 68.5312 15.7931C68.6997 15.9308 68.9019 16.0223 69.1176 16.0585C69.3333 16.0946 69.5548 16.0741 69.7599 15.9991L79.0649 12.5943C79.27 12.5192 79.4514 12.3922 79.591 12.2261C79.7306 12.06 79.8234 11.8605 79.86 11.6478C79.8967 11.4351 79.8759 11.2166 79.7999 11.0143C79.7238 10.812 79.5951 10.6331 79.4267 10.4954L71.7849 4.24904C71.5631 4.06581 71.2832 3.96516 70.9939 3.96463C70.8445 3.96484 70.6963 3.99137 70.5563 4.04298Z" fill="#E6E6E6"/>
<path d="M85.9058 38.973C87.7615 38.973 89.2658 37.4891 89.2658 35.6588C89.2658 33.8284 87.7615 32.3446 85.9058 32.3446C84.0502 32.3446 82.5459 33.8284 82.5459 35.6588C82.5459 37.4891 84.0502 38.973 85.9058 38.973Z" fill="#E6E6E6"/>
<path d="M85.9059 34.8302C87.143 34.8302 88.1458 34.4592 88.1458 34.0016C88.1458 33.544 87.143 33.1731 85.9059 33.1731C84.6688 33.1731 83.6659 33.544 83.6659 34.0016C83.6659 34.4592 84.6688 34.8302 85.9059 34.8302Z" fill="#3F3D56"/>
<path d="M86.0458 42.8395C85.8436 42.8395 85.6434 42.8002 85.4565 42.7239C85.2697 42.6475 85.0999 42.5357 84.9569 42.3946C84.8139 42.2535 84.7005 42.0861 84.6231 41.9018C84.5457 41.7175 84.5059 41.52 84.5059 41.3205V37.592H87.5858V41.3205C87.5858 41.52 87.546 41.7175 87.4686 41.9018C87.3912 42.0861 87.2778 42.2535 87.1348 42.3946C86.9918 42.5357 86.822 42.6475 86.6352 42.7239C86.4483 42.8002 86.2481 42.8395 86.0458 42.8395Z" fill="#FF6584"/>
<path d="M85.7189 0C85.8804 0.33036 86.0372 0.664292 86.1847 1.00505C87.9224 5.00242 88.5084 9.39516 87.8782 13.6999C87.563 13.2487 87.2317 12.7787 86.8947 12.3035C87.6164 8.17204 87.2106 3.92561 85.7189 0Z" fill="#3F3D56"/>
<path d="M83.1989 3.03799C83.3604 3.36836 83.5172 3.70229 83.6647 4.04305C85.4024 8.04042 85.9884 12.4332 85.3582 16.7379C85.043 16.2867 84.7117 15.8167 84.3747 15.3415C85.0964 11.21 84.6906 6.9636 83.1989 3.03799Z" fill="#3F3D56"/>
<path d="M75.4296 14.3483L75.7846 9.89514L76.1396 5.442C76.1588 5.20155 76.2418 4.97032 76.3802 4.77155C76.5187 4.57277 76.7078 4.41345 76.9285 4.30961C77.1492 4.20576 77.3937 4.16104 77.6375 4.17995C77.8812 4.19886 78.1157 4.28072 78.3172 4.41732L82.0495 6.94714L84.7749 8.7945C84.9491 8.59333 85.1654 8.4318 85.409 8.32104C85.6526 8.21028 85.9176 8.15293 86.1858 8.15293C86.454 8.15293 86.7191 8.21028 86.9626 8.32104C87.2062 8.4318 87.4225 8.59333 87.5967 8.7945L90.3222 6.94714L94.0545 4.41732C94.256 4.28072 94.4904 4.19886 94.7342 4.17995C94.9779 4.16104 95.2225 4.20576 95.4431 4.30961C95.6638 4.41345 95.8529 4.57277 95.9914 4.77155C96.1299 4.97032 96.2129 5.20155 96.232 5.442L96.587 9.89514L96.942 14.3483C96.9612 14.5887 96.9159 14.8299 96.8106 15.0476C96.7053 15.2653 96.5438 15.4518 96.3423 15.5884C96.1408 15.7249 95.9063 15.8068 95.6626 15.8257C95.4188 15.8446 95.1743 15.7999 94.9536 15.6961L90.8663 13.7727L87.5079 12.1924C87.3351 12.3651 87.1293 12.5023 86.9023 12.5959C86.6754 12.6895 86.4318 12.7377 86.1858 12.7377C85.9398 12.7377 85.6963 12.6895 85.4693 12.5959C85.2423 12.5023 85.0365 12.3651 84.8637 12.1924L81.5053 13.7727L77.418 15.6961C77.1974 15.7999 76.9528 15.8446 76.7091 15.8257C76.4653 15.8068 76.2309 15.725 76.0294 15.5884C75.8278 15.4518 75.6663 15.2653 75.5611 15.0476C75.4558 14.8299 75.4104 14.5887 75.4296 14.3483Z" fill="#0065FF"/>
<path d="M89.5458 32.0684C89.5458 32.526 89.9219 32.0684 90.3858 32.0684C90.8497 32.0684 91.2258 32.526 91.2258 32.0684C91.2253 31.849 91.1366 31.6386 90.9791 31.4836C90.8216 31.3286 90.6083 31.2416 90.3858 31.2416C90.1633 31.2416 89.9499 31.3286 89.7924 31.4836C89.6349 31.6386 89.5462 31.849 89.5458 32.0684Z" fill="#E6E6E6"/>
<path d="M82.2659 32.0684C82.2659 32.526 81.8898 32.0684 81.4259 32.0684C80.9619 32.0684 80.5859 32.526 80.5859 32.0684C80.5863 31.849 80.675 31.6386 80.8325 31.4836C80.99 31.3286 81.2034 31.2416 81.4259 31.2416C81.6484 31.2416 81.8617 31.3286 82.0192 31.4836C82.1767 31.6386 82.2654 31.849 82.2659 32.0684Z" fill="#E6E6E6"/>
<path d="M175.46 94.6264V89.3597H148.764V89.6891V94.6264V137.088V142.355H154.103H175.46V137.088H154.103V94.6264H175.46Z" fill="#3F3D56"/>
<path d="M188.475 89.3598V142.355H215.171V89.3598H188.475ZM209.832 137.088H193.814V94.6264H209.832V137.088Z" fill="#0065FF"/>
<path d="M114.391 137.088V89.6891H109.052V137.088V142.355H114.391H135.749V137.088H114.391Z" fill="#0065FF"/>
<path d="M97.0387 94.6264V89.3597H70.3421V89.6891V94.6264V113.059V118.326V137.088V142.355H75.6815H97.0387V137.088H75.6815V118.326H97.0387V113.059H75.6815V94.6264H97.0387Z" fill="#3F3D56"/>
<path d="M305.94 94.6264V89.3597H279.243V89.6891V94.6264V113.059V118.326V137.088V142.355H284.583H305.94V137.088H284.583V118.326H305.94V113.059H284.583V94.6264H305.94Z" fill="#0065FF"/>
<path d="M52.3218 89.6891V133.216L38.2437 119.33L38.2117 119.362L38.1818 119.333L23.7899 133.529V89.5246H18.4505V142.19H23.7899V140.977L38.2142 126.749L52.3218 140.665V142.355H57.6612V89.6891H52.3218Z" fill="#3F3D56"/>
<path d="M261.557 89.6891V90.9024L247.133 105.13L233.025 91.2149V89.5246H227.685V142.19H233.025V98.6628L247.103 112.549L247.135 112.517L247.165 112.546L261.557 98.3503V142.355H266.896V89.6891H261.557Z" fill="#3F3D56"/>
<path d="M122.305 57.246C124.115 57.246 125.582 55.7987 125.582 54.0133C125.582 52.228 124.115 50.7807 122.305 50.7807C120.495 50.7807 119.028 52.228 119.028 54.0133C119.028 55.7987 120.495 57.246 122.305 57.246Z" fill="#0065FF"/>
<path d="M41.4655 93.164C43.2755 93.164 44.7428 91.7167 44.7428 89.9314C44.7428 88.146 43.2755 86.6987 41.4655 86.6987C39.6555 86.6987 38.1882 88.146 38.1882 89.9314C38.1882 91.7167 39.6555 93.164 41.4655 93.164Z" fill="#0065FF"/>
<path d="M106.283 165C108.093 165 109.56 163.553 109.56 161.767C109.56 159.982 108.093 158.535 106.283 158.535C104.473 158.535 103.005 159.982 103.005 161.767C103.005 163.553 104.473 165 106.283 165Z" fill="#0065FF"/>
<path d="M188.579 66.9438C190.389 66.9438 191.856 65.4965 191.856 63.7112C191.856 61.9259 190.389 60.4786 188.579 60.4786C186.769 60.4786 185.301 61.9259 185.301 63.7112C185.301 65.4965 186.769 66.9438 188.579 66.9438Z" fill="#0065FF"/>
<path d="M285.076 162.127C286.886 162.127 288.353 160.679 288.353 158.894C288.353 157.109 286.886 155.661 285.076 155.661C283.266 155.661 281.799 157.109 281.799 158.894C281.799 160.679 283.266 162.127 285.076 162.127Z" fill="#0065FF"/>
<path d="M288.353 77.3601C290.163 77.3601 291.63 75.9128 291.63 74.1274C291.63 72.3421 290.163 70.8948 288.353 70.8948C286.543 70.8948 285.076 72.3421 285.076 74.1274C285.076 75.9128 286.543 77.3601 288.353 77.3601Z" fill="#0065FF"/>
<path d="M246.841 135.547C248.651 135.547 250.118 134.1 250.118 132.315C250.118 130.529 248.651 129.082 246.841 129.082C245.031 129.082 243.564 130.529 243.564 132.315C243.564 134.1 245.031 135.547 246.841 135.547Z" fill="#0065FF"/>
</g>
<defs>
<clipPath id="clip0_673_153">
<rect width="323.749" height="165" fill="white" transform="translate(0.290039)"/>
</clipPath>
</defs>
</svg>
