<svg width="21" height="26" viewBox="0 0 21 26" fill="none" xmlns="http://www.w3.org/2000/svg">
<path fill-rule="evenodd" clip-rule="evenodd" d="M10.6 0.75C7.14822 0.75 4.35 3.54822 4.35 7C4.35 10.4518 7.14822 13.25 10.6 13.25C14.0518 13.25 16.85 10.4518 16.85 7C16.85 3.54822 14.0518 0.75 10.6 0.75ZM6.35 7C6.35 4.65279 8.25279 2.75 10.6 2.75C12.9472 2.75 14.85 4.65279 14.85 7C14.85 9.34721 12.9472 11.25 10.6 11.25C8.25279 11.25 6.35 9.34721 6.35 7ZM3.54993 15.15C2.00399 15.15 0.750013 16.4026 0.75 17.9493V18.4C0.75 20.7546 1.97333 22.5161 3.8221 23.6417C5.63139 24.7431 8.04349 25.25 10.6 25.25C13.1565 25.25 15.5686 24.7431 17.3779 23.6417C19.2267 22.5161 20.45 20.7546 20.45 18.4L20.45 17.9492C20.45 16.4025 19.196 15.15 17.6501 15.15H3.54993ZM2.75 17.9493C2.75001 17.5079 3.10776 17.15 3.54993 17.15H17.6501C18.0923 17.15 18.45 17.5079 18.45 17.9493L18.45 18.4C18.45 19.9458 17.6918 21.1091 16.3379 21.9333C14.9441 22.7819 12.9312 23.25 10.6 23.25C8.26882 23.25 6.25591 22.7819 4.86211 21.9333C3.50823 21.1091 2.75 19.9458 2.75 18.4L2.75 17.9493Z" fill="#484F68"/>
</svg>
